<svg xmlns:xlink="http://www.w3.org/1999/xlink" xmlns="http://www.w3.org/2000/svg" stroke-width="0.501" stroke-linejoin="bevel" fill-rule="evenodd" version="1.1" overflow="visible" viewBox="0 0 75 93.75" x="0px" y="0px"><g fill="none" stroke="black" font-family="Times New Roman" font-size="16" transform="scale(1 -1)"><g transform="translate(0 -75)"><g><path d="M 13.093,0.896 C 13.04,1.019 13.095,1.164 13.218,1.218 C 13.447,1.317 13.676,1.418 13.905,1.522 C 13.882,1.538 13.862,1.559 13.844,1.583 C 13.592,1.897 13.464,2.248 13.388,2.64 C 13.371,2.726 13.364,2.815 13.348,2.9 C 13.338,2.948 13.331,3.004 13.325,3.061 C 13.317,3.06 13.309,3.06 13.301,3.062 C 13.256,3.07 13.226,3.114 13.234,3.159 C 13.26,3.302 13.288,3.445 13.314,3.587 C 13.314,3.673 13.316,3.758 13.324,3.84 C 13.339,3.996 13.369,4.17 13.411,4.339 C 13.414,4.356 13.418,4.37 13.421,4.382 C 13.323,4.501 13.286,4.666 13.338,4.822 C 13.351,4.867 13.364,4.911 13.379,4.955 C 13.334,5.244 13.309,5.538 13.3,5.831 C 13.284,6.308 13.291,6.783 13.336,7.257 C 13.364,7.567 13.395,7.874 13.437,8.182 C 13.471,8.432 13.522,8.683 13.568,8.932 C 13.776,10.054 14.064,11.157 14.378,12.253 C 14.96,14.295 15.667,16.318 16.364,18.325 C 16.802,19.588 17.275,20.894 17.587,22.176 C 17.633,22.393 17.674,22.586 17.717,22.78 C 17.782,23.069 17.835,23.365 17.889,23.656 C 18.019,24.357 18.151,25.056 18.275,25.758 C 18.3,25.902 18.439,25.998 18.582,25.973 C 18.725,25.949 18.822,25.809 18.797,25.666 L 18.796,25.663 C 18.857,25.707 18.933,25.73 19.009,25.728 C 19.01,25.731 19.011,25.735 19.012,25.739 C 18.955,25.736 18.895,25.744 18.838,25.767 C 18.702,25.822 18.578,25.98 18.569,26.128 L 18.612,26.359 L 18.593,26.338 L 18.61,26.416 C 18.451,26.471 18.307,26.53 18.18,26.607 C 18.086,26.663 18.02,26.775 17.958,26.863 C 17.903,26.939 17.842,27.018 17.79,27.097 C 17.605,27.377 17.362,27.67 17.149,27.932 C 16.981,28.139 16.814,28.354 16.639,28.554 C 16.549,28.657 16.452,28.761 16.367,28.867 C 16.126,29.169 15.821,29.488 15.554,29.766 C 15.282,30.048 15.019,30.352 14.754,30.64 C 14.129,31.323 13.473,31.982 12.825,32.643 C 12.211,33.27 11.591,33.89 10.974,34.515 C 10.723,34.74 10.47,34.964 10.217,35.188 C 8.472,36.732 6.722,38.286 5.106,39.967 C 4.772,40.314 4.459,40.709 4.149,41.078 C 3.889,41.387 3.637,41.703 3.391,42.024 C 3.341,41.955 3.273,41.901 3.189,41.87 C 2.956,41.783 2.695,41.901 2.608,42.133 C 2.548,42.268 2.493,42.431 2.449,42.594 C 2.252,42.831 2.089,43.078 1.957,43.382 C 1.578,44.248 1.555,45.236 1.85,46.131 C 1.535,46.101 1.219,46.072 0.905,46.039 C 0.771,46.026 0.649,46.125 0.636,46.259 C 0.623,46.393 0.722,46.515 0.856,46.528 C 1.264,46.571 1.672,46.616 2.077,46.664 C 2.154,46.802 2.24,46.933 2.323,47.065 C 2.536,47.403 2.898,47.784 3.218,48.027 C 3.383,48.152 3.546,48.252 3.721,48.359 C 3.82,48.421 3.972,48.503 4.08,48.541 C 4.292,48.617 4.536,48.484 4.544,48.251 C 4.548,48.13 4.479,48.003 4.414,47.902 C 4.331,47.774 4.216,47.597 4.112,47.49 C 3.884,47.258 3.626,47.05 3.378,46.834 C 3.501,46.852 3.623,46.87 3.745,46.889 C 4.114,47.186 4.55,47.396 5.023,47.463 C 5.344,47.508 5.711,47.459 6.021,47.373 C 6.095,47.352 6.171,47.314 6.247,47.293 C 6.268,47.286 6.291,47.277 6.314,47.267 C 7.963,47.567 9.59,47.896 11.217,48.22 C 13.404,48.654 15.597,49.115 17.808,49.408 C 20.029,49.703 22.31,50.004 24.557,49.947 C 25.136,50.729 25.677,51.549 26.183,52.378 C 26.394,52.981 26.602,53.584 26.807,54.19 C 26.891,54.44 26.986,54.686 27.077,54.933 C 27.272,55.463 27.463,55.973 27.732,56.471 C 27.911,56.8 28.124,57.118 28.339,57.425 C 28.387,57.522 28.507,57.562 28.603,57.514 C 28.63,57.499 28.651,57.481 28.669,57.459 C 28.671,57.463 28.673,57.468 28.675,57.474 C 28.79,57.793 28.908,58.11 29.023,58.429 C 29.37,59.391 29.734,60.365 30.125,61.31 C 30.414,62.007 30.687,62.716 31.003,63.402 C 31.456,64.383 31.89,65.396 32.427,66.335 C 32.561,66.569 32.686,66.805 32.825,67.037 C 33.091,67.48 33.354,67.904 33.647,68.306 C 33.819,68.716 33.996,69.122 34.18,69.521 C 34.285,69.76 34.55,69.881 34.795,69.813 C 34.929,70.157 35.067,70.498 35.209,70.836 C 35.366,71.21 35.522,71.594 35.693,71.961 C 35.768,72.121 35.819,72.331 35.981,72.425 C 36.14,72.518 36.431,72.481 36.618,72.482 C 36.735,72.483 36.85,72.498 36.965,72.502 C 37.34,72.515 37.761,72.545 38.168,72.514 C 38.184,72.535 38.205,72.554 38.229,72.569 C 38.332,72.631 38.466,72.597 38.527,72.495 C 38.532,72.485 38.537,72.476 38.543,72.468 C 38.769,72.426 38.985,72.357 39.181,72.249 C 39.2,72.238 39.217,72.227 39.234,72.218 C 39.249,72.215 39.262,72.212 39.277,72.209 C 40.036,72.037 40.531,71.145 40.749,70.465 C 40.805,70.288 40.864,70.106 40.913,69.921 L 41.009,69.437 L 41.023,69.367 C 41.041,69.21 40.969,69.078 40.863,68.999 C 41.057,68.553 41.235,68.101 41.43,67.653 C 41.925,66.506 42.431,65.37 42.949,64.232 C 43.054,63.999 43.159,63.765 43.268,63.535 C 43.623,62.806 43.984,62.08 44.328,61.347 C 44.456,61.073 44.59,60.803 44.71,60.526 C 44.737,60.463 44.762,60.402 44.789,60.338 C 44.799,60.317 44.81,60.294 44.823,60.272 C 45.263,59.375 45.722,58.486 46.159,57.588 C 46.407,57.081 46.646,56.564 46.887,56.053 C 47.619,54.506 48.399,52.959 49.226,51.462 C 49.424,51.098 49.628,50.734 49.835,50.372 C 51.371,50.307 52.908,50.212 54.44,50.069 C 55.294,49.988 56.135,49.871 56.984,49.752 C 58.564,49.532 60.143,49.279 61.723,49.066 C 63.113,48.878 64.5,48.677 65.894,48.52 C 67.212,48.372 68.527,48.267 69.847,48.145 C 70.111,48.127 70.312,47.896 70.294,47.632 C 70.289,47.566 70.271,47.505 70.244,47.449 C 70.739,47.374 71.234,47.297 71.73,47.224 C 71.765,47.218 71.8,47.209 71.833,47.196 C 71.924,47.273 72.053,47.316 72.193,47.306 C 73.358,47.22 74.029,46.107 73.942,45.002 C 73.922,44.747 73.836,44.505 73.721,44.279 L 73.682,44.228 L 73.664,43.853 C 73.649,43.764 73.625,43.673 73.607,43.584 C 73.558,43.354 73.33,43.209 73.101,43.258 L 72.958,43.356 C 72.843,43.109 72.711,42.863 72.575,42.63 C 72.692,42.63 72.809,42.589 72.905,42.506 C 73.107,42.326 73.125,42.014 72.945,41.811 C 72.619,41.445 72.316,41.063 71.98,40.701 C 71.353,40.027 70.69,39.392 70.043,38.737 C 69.836,38.528 69.618,38.328 69.4,38.13 C 68.981,37.75 68.565,37.37 68.139,36.996 C 67.085,36.07 66.016,35.17 64.936,34.275 C 63.692,33.244 62.439,32.23 61.198,31.21 C 60.992,31.022 60.79,30.838 60.589,30.655 C 60.277,30.37 59.975,30.074 59.672,29.78 C 59.202,29.323 58.731,28.838 58.316,28.332 C 58.237,28.239 58.096,28.227 58.002,28.306 C 57.954,28.346 57.928,28.401 57.924,28.459 C 57.779,28.333 57.636,28.209 57.492,28.083 C 57.5,28.078 57.508,28.072 57.516,28.068 C 57.587,28.02 57.625,27.942 57.558,27.853 C 57.717,27.384 57.86,26.917 57.984,26.434 C 58.144,25.801 58.269,25.164 58.415,24.529 C 58.515,24.093 58.595,23.625 58.672,23.183 C 58.778,22.572 58.895,21.957 58.985,21.344 C 59.038,20.984 59.1,20.623 59.155,20.263 C 59.25,19.649 59.331,19.033 59.425,18.419 C 59.472,18.112 59.5,17.794 59.534,17.485 C 59.581,17.048 59.63,16.611 59.678,16.174 C 59.742,15.584 59.806,14.993 59.87,14.395 C 59.909,14.147 59.949,13.898 59.987,13.659 C 60.272,12.35 60.519,11.043 60.788,9.745 C 60.973,8.853 61.152,7.931 61.292,7.032 C 61.353,6.635 61.417,6.224 61.489,5.83 C 61.526,5.629 61.548,5.421 61.578,5.219 C 61.598,5.077 61.624,4.927 61.634,4.785 C 61.65,4.56 61.686,4.319 61.703,4.08 C 61.856,4.094 62.011,4.028 62.097,3.888 L 62.152,3.801 C 62.17,3.743 62.174,3.68 62.168,3.617 L 62.131,3.442 L 62.102,3.382 L 62.034,3.24 L 62.01,3.204 L 61.968,3.122 C 61.951,3.094 61.933,3.066 61.914,3.039 L 61.932,3.026 C 62.139,2.834 62.089,2.581 62.087,2.287 C 62.085,2.09 62.117,1.907 61.94,1.76 C 61.794,1.64 61.603,1.625 61.442,1.729 C 61.286,1.831 61.255,2.061 61.214,2.229 C 61.203,2.274 61.192,2.32 61.18,2.366 C 60.298,1.819 59.106,1.694 58.117,1.784 C 57.875,1.799 57.691,2.01 57.707,2.251 C 57.71,2.312 57.726,2.368 57.752,2.419 L 57.818,2.504 L 57.476,2.606 C 57.472,2.607 57.468,2.608 57.464,2.61 C 57.509,2.549 57.507,2.477 57.487,2.407 C 57.419,2.178 57.177,2.047 56.948,2.114 C 54.583,2.774 52.409,3.958 50.3,5.188 C 49.802,5.478 49.308,5.779 48.815,6.087 C 49.02,5.889 49.224,5.69 49.43,5.49 C 49.453,5.471 49.456,5.436 49.438,5.412 C 49.419,5.388 49.383,5.385 49.36,5.404 C 48.883,5.723 48.392,6.043 47.941,6.398 C 47.528,6.723 47.126,7.07 46.729,7.421 C 45.762,8.043 44.796,8.665 43.827,9.282 C 43.207,9.676 42.576,10.087 41.943,10.457 C 41.589,10.663 41.243,10.879 40.889,11.082 C 40.629,11.233 40.364,11.375 40.104,11.525 C 39.598,11.819 39.044,12.106 38.516,12.36 C 38.433,12.398 38.349,12.437 38.265,12.476 C 38.4,12.352 38.535,12.23 38.669,12.106 C 39.192,11.62 39.763,11.123 40.321,10.679 C 40.412,10.603 40.425,10.466 40.349,10.375 C 40.273,10.284 40.136,10.272 40.045,10.347 C 39.928,10.437 39.821,10.538 39.707,10.63 C 39.462,10.828 39.223,11.035 38.987,11.244 C 38.41,11.753 37.841,12.272 37.289,12.807 C 37.006,13.079 36.73,13.352 36.456,13.629 C 36.454,13.62 36.452,13.61 36.448,13.602 C 36.528,13.411 36.466,13.182 36.289,13.062 C 36.258,13.038 36.227,13.016 36.197,12.993 C 36.205,12.813 36.109,12.635 35.938,12.551 C 35.774,12.469 35.609,12.389 35.443,12.31 C 35.915,11.942 36.399,11.59 36.908,11.285 C 36.995,11.229 37.02,11.112 36.963,11.025 C 36.907,10.938 36.79,10.913 36.703,10.97 C 36.135,11.341 35.598,11.721 35.071,12.132 C 34.929,12.064 34.787,11.994 34.647,11.924 C 34.38,11.749 34.11,11.577 33.84,11.409 C 33.932,11.357 34.024,11.305 34.115,11.257 C 34.186,11.217 34.212,11.126 34.172,11.055 C 34.132,10.983 34.041,10.957 33.97,10.997 C 33.827,11.072 33.688,11.151 33.552,11.232 C 32.897,10.83 32.234,10.444 31.566,10.061 C 31.714,9.958 31.861,9.859 32.012,9.765 C 32.107,9.699 32.131,9.568 32.066,9.473 C 32,9.378 31.869,9.354 31.774,9.419 C 31.573,9.555 31.373,9.693 31.172,9.835 C 31.039,9.759 30.905,9.683 30.772,9.607 C 29.396,8.824 28.004,8.062 26.603,7.316 C 26.555,7.287 26.506,7.257 26.458,7.229 C 25.938,6.917 25.41,6.618 24.885,6.314 C 24.524,6.104 24.161,5.896 23.88,5.735 C 23.878,5.717 23.871,5.699 23.86,5.683 C 23.841,5.655 23.811,5.636 23.78,5.63 L 23.731,5.63 L 23.711,5.638 C 23.315,5.409 23.038,5.249 22.761,5.094 C 22.693,5.055 22.624,5.017 22.501,4.948 C 22.324,4.847 22.092,4.716 21.859,4.585 C 20.894,4.041 19.929,3.495 18.963,2.951 C 18.503,2.692 18.045,2.426 17.582,2.173 C 17.433,2.091 17.282,2.012 17.132,1.934 C 17.166,1.879 17.184,1.813 17.181,1.746 C 17.173,1.563 17.014,1.42 16.831,1.429 C 16.635,1.433 16.439,1.453 16.245,1.489 C 15.975,1.353 15.707,1.214 15.444,1.065 C 15.314,0.993 15.148,1.04 15.076,1.17 C 15.003,1.3 15.05,1.465 15.18,1.538 C 15.279,1.593 15.38,1.651 15.479,1.708 C 15.474,1.709 15.469,1.711 15.465,1.715 C 15.085,1.522 14.698,1.343 14.309,1.172 C 14.01,1.04 13.715,0.897 13.414,0.771 C 13.292,0.718 13.146,0.774 13.093,0.896 Z M 14.912,1.985 C 14.552,2.199 14.226,2.469 13.96,2.79 C 14.018,2.51 14.141,2.137 14.323,1.941 C 14.367,1.88 14.387,1.808 14.381,1.738 C 14.559,1.82 14.736,1.901 14.912,1.985 Z M 17.98,3.551 C 17.953,3.515 17.904,3.511 17.87,3.539 C 17.753,3.621 17.635,3.724 17.523,3.814 C 17.129,4.128 16.758,4.464 16.349,4.757 C 16.099,4.935 15.835,5.095 15.561,5.233 C 15.426,5.301 15.28,5.351 15.145,5.415 L 15.172,5.479 C 15.307,5.414 15.454,5.362 15.591,5.298 C 15.937,5.138 16.254,4.941 16.575,4.739 C 16.81,4.59 17.091,4.389 17.305,4.211 C 17.517,4.036 17.752,3.826 17.974,3.67 C 18.009,3.641 18.015,3.589 17.986,3.554 C 19.876,4.46 20.145,4.601 20.414,4.744 C 20.78,4.936 21.146,5.131 21.51,5.325 C 21.637,5.402 21.763,5.478 21.89,5.554 C 22.233,5.76 22.585,5.956 22.934,6.154 C 22.608,6.386 22.287,6.628 21.974,6.867 C 21.473,7.248 20.94,7.683 20.49,8.122 C 20.272,8.335 20.049,8.538 19.841,8.76 C 19.675,8.937 19.529,9.135 19.374,9.32 C 19.284,9.428 19.16,9.579 19.087,9.696 C 19.06,9.731 19.066,9.782 19.101,9.809 C 19.136,9.836 19.187,9.829 19.214,9.795 C 20.337,8.376 21.722,7.319 23.186,6.299 C 23.828,6.673 24.463,7.057 25.103,7.437 C 25.134,7.455 25.164,7.473 25.196,7.492 C 24.865,7.733 24.543,7.986 24.221,8.238 C 23.66,8.674 23.11,9.123 22.569,9.583 C 22.033,10.037 21.522,10.505 21.001,10.974 C 20.709,11.236 20.408,11.521 20.134,11.801 C 20.083,11.851 20.081,11.935 20.131,11.986 C 20.181,12.037 20.265,12.039 20.316,11.989 C 21.127,11.207 21.94,10.486 22.81,9.772 C 23.693,9.048 24.631,8.375 25.558,7.708 C 26.44,8.236 27.318,8.775 28.2,9.311 C 27.135,10.227 26.056,11.146 24.959,12.018 C 24.398,12.463 23.843,12.918 23.278,13.356 C 22.753,13.764 22.22,14.166 21.698,14.576 C 21.653,14.61 21.644,14.676 21.678,14.721 C 21.712,14.766 21.778,14.774 21.823,14.74 C 22.108,14.516 22.401,14.301 22.687,14.08 C 22.905,13.912 23.121,13.74 23.342,13.576 C 23.581,13.398 23.811,13.209 24.047,13.027 C 24.474,12.696 24.901,12.365 25.328,12.033 C 26.184,11.368 27.03,10.682 27.872,9.999 C 28.079,9.831 28.285,9.658 28.492,9.489 C 28.82,9.687 29.149,9.885 29.479,10.082 C 29.724,10.234 29.97,10.386 30.214,10.539 C 30.203,10.547 30.193,10.555 30.183,10.564 C 29.927,10.764 29.675,10.981 29.428,11.191 C 28.628,11.872 27.857,12.566 27.076,13.269 C 26.64,13.661 26.206,14.072 25.784,14.478 C 25.252,14.989 24.707,15.487 24.181,16.003 L 24.18,16.076 L 24.252,16.077 C 25.156,15.214 26.08,14.365 27.033,13.556 C 27.646,13.036 28.27,12.541 28.896,12.037 C 29.386,11.643 29.91,11.276 30.418,10.903 C 30.475,10.86 30.533,10.817 30.591,10.773 C 31.221,11.167 31.852,11.563 32.481,11.963 C 31.951,12.375 31.457,12.832 30.972,13.33 C 30.447,13.866 29.936,14.427 29.423,14.977 C 29.268,15.144 29.109,15.318 28.947,15.477 C 28.712,15.71 28.48,15.941 28.24,16.168 C 27.968,16.425 27.673,16.655 27.389,16.899 C 27.356,16.926 27.351,16.979 27.378,17.012 C 27.406,17.046 27.458,17.051 27.492,17.024 C 27.629,16.903 27.778,16.794 27.918,16.676 C 28.046,16.566 28.172,16.45 28.301,16.339 C 28.881,15.839 29.438,15.247 29.976,14.702 C 30.858,13.809 31.716,12.949 32.699,12.167 C 32.714,12.155 32.729,12.143 32.744,12.13 C 33.184,12.412 33.625,12.694 34.063,12.979 C 33.82,13.202 33.584,13.433 33.349,13.661 C 32.695,14.296 32.065,14.956 31.44,15.62 C 30.948,16.145 30.467,16.68 29.977,17.205 C 29.732,17.467 29.483,17.734 29.247,18.003 L 29.25,18.072 L 29.319,18.069 C 29.976,17.321 30.692,16.597 31.393,15.892 C 31.741,15.542 32.093,15.206 32.453,14.867 C 32.994,14.356 33.548,13.846 34.126,13.377 C 34.207,13.31 34.288,13.244 34.369,13.177 C 34.845,13.486 35.328,13.787 35.802,14.101 C 35.844,14.127 35.889,14.147 35.936,14.158 C 35.769,14.33 35.602,14.503 35.435,14.678 C 34.952,15.183 34.455,15.686 33.993,16.211 C 32.759,17.616 31.525,19.026 30.269,20.411 C 30.225,20.461 30.228,20.537 30.277,20.581 C 30.326,20.625 30.403,20.622 30.447,20.573 C 31.476,19.419 32.548,18.296 33.611,17.172 C 34.002,16.759 34.406,16.356 34.793,15.94 C 35.322,15.372 35.863,14.811 36.413,14.26 C 36.471,14.283 36.537,14.283 36.598,14.255 C 37.371,13.887 38.147,13.527 38.92,13.16 C 38.836,13.217 38.753,13.276 38.67,13.334 C 38.053,13.764 37.448,14.207 36.84,14.649 C 36.751,14.715 36.731,14.842 36.796,14.931 C 36.862,15.02 36.989,15.04 37.078,14.975 C 38.706,13.763 40.393,12.654 42.128,11.617 C 42.177,11.593 42.226,11.568 42.274,11.545 C 41.032,12.751 39.822,14 38.63,15.253 C 37.699,16.229 36.768,17.205 35.847,18.19 C 34.908,19.195 33.949,20.196 32.984,21.174 C 32.585,21.579 32.175,21.977 31.779,22.386 C 31.504,22.67 31.239,22.962 30.959,23.244 L 30.984,23.268 C 31.263,22.987 31.559,22.727 31.847,22.453 C 31.989,22.318 32.128,22.173 32.267,22.034 C 34.302,19.992 36.337,17.95 38.392,15.93 C 40.068,14.281 41.729,12.6 43.435,10.983 C 44.197,10.612 44.96,10.242 45.723,9.872 C 46.044,9.716 46.365,9.561 46.687,9.407 C 45.915,10.252 45.175,11.122 44.44,12.003 C 44.121,12.385 43.802,12.773 43.493,13.163 C 43.238,13.485 42.993,13.82 42.745,14.149 C 41.723,15.502 40.721,16.873 39.686,18.217 C 38.868,19.279 38.043,20.318 37.198,21.357 C 37.167,21.394 37.173,21.451 37.21,21.482 C 37.247,21.513 37.304,21.507 37.335,21.47 C 37.559,21.189 37.796,20.916 38.023,20.637 C 38.659,19.852 39.302,19.07 39.933,18.281 C 41.047,16.889 42.162,15.499 43.3,14.127 C 43.885,13.422 44.46,12.711 45.047,12.005 C 45.955,10.914 46.901,9.862 47.88,8.834 C 48.261,8.65 48.641,8.467 49.021,8.283 C 49.721,7.941 50.426,7.611 51.133,7.282 C 50.321,8.209 49.553,9.203 48.787,10.167 C 48.071,11.066 47.344,11.954 46.626,12.852 C 46.454,13.067 46.27,13.276 46.094,13.487 C 45.704,13.955 45.304,14.423 44.892,14.871 C 44.479,15.321 44.069,15.789 43.631,16.215 C 43.432,16.41 43.238,16.612 43.039,16.807 C 42.791,17.047 42.526,17.274 42.278,17.517 C 42.247,17.547 42.245,17.598 42.274,17.63 C 42.304,17.661 42.355,17.663 42.387,17.634 C 43.163,16.918 43.905,16.19 44.634,15.426 C 45.018,15.025 45.394,14.603 45.761,14.187 C 46.74,13.076 47.689,11.948 48.646,10.819 C 49.145,10.23 49.638,9.634 50.142,9.048 C 50.445,8.693 50.755,8.346 51.059,7.993 C 51.394,7.603 51.733,7.223 52.077,6.844 C 52.546,6.626 53.014,6.408 53.482,6.187 C 54.393,5.754 55.302,5.325 56.219,4.906 C 55.59,5.623 54.982,6.355 54.382,7.1 C 53.578,8.097 52.755,9.065 51.919,10.033 C 51.582,10.423 51.268,10.83 50.921,11.213 C 50.61,11.555 50.3,11.885 49.973,12.212 C 49.779,12.408 49.567,12.595 49.364,12.782 L 49.361,12.847 L 49.425,12.85 C 49.794,12.501 50.188,12.173 50.551,11.819 C 50.912,11.468 51.275,11.121 51.634,10.769 C 51.777,10.629 51.913,10.478 52.058,10.34 C 52.17,10.233 52.269,10.108 52.373,9.992 C 52.516,9.833 52.659,9.671 52.797,9.507 C 53.201,9.027 53.615,8.555 54.019,8.074 C 54.522,7.475 55.03,6.878 55.543,6.287 C 56.293,5.424 57.03,4.562 57.829,3.743 C 57.905,3.664 57.902,3.536 57.823,3.46 C 57.761,3.401 57.67,3.39 57.602,3.464 C 57.002,3.607 57.182,3.541 57.361,3.479 C 57.473,3.463 57.586,3.45 57.7,3.438 C 57.854,3.42 58.017,3.392 58.17,3.385 C 58.504,3.372 58.806,3.371 59.145,3.388 C 59.529,3.406 59.934,3.426 60.248,3.657 C 59.698,4.175 59.205,4.76 58.697,5.314 C 58.548,5.477 58.386,5.661 58.23,5.813 C 58.142,5.899 58.054,5.987 57.966,6.071 C 57.894,6.14 57.808,6.207 57.739,6.278 C 57.575,6.449 57.345,6.591 57.161,6.743 C 57.114,6.777 57.104,6.845 57.139,6.892 C 57.173,6.939 57.241,6.949 57.288,6.915 C 57.385,6.833 57.509,6.762 57.6,6.677 C 57.676,6.605 57.769,6.54 57.849,6.47 C 58.038,6.306 58.238,6.119 58.412,5.939 C 59.086,5.241 59.732,4.521 60.423,3.841 C 60.505,3.969 60.572,4.142 60.601,4.254 C 60.617,4.318 60.629,4.411 60.652,4.469 C 60.664,4.519 60.683,4.564 60.71,4.603 C 60.686,4.723 60.664,4.843 60.642,4.963 C 60.368,6.441 60.138,7.928 59.914,9.414 C 59.887,9.595 59.86,9.778 59.834,9.962 C 59.706,10.622 59.573,11.282 59.435,11.942 C 59.228,12.934 59.026,13.928 58.808,14.917 C 58.742,15.215 58.687,15.515 58.619,15.812 C 58.456,16.518 58.297,17.238 58.16,17.949 C 57.894,19.326 57.62,20.698 57.344,22.072 C 57.323,22.175 57.302,22.279 57.282,22.383 C 57.108,22.972 56.945,23.559 56.782,24.152 C 56.65,24.626 56.531,25.084 56.426,25.558 C 56.131,25.809 55.841,26.066 55.552,26.326 C 55.519,26.296 55.487,26.265 55.455,26.235 C 55.321,26.111 55.108,26.12 54.984,26.254 C 54.86,26.388 54.868,26.601 55.003,26.724 C 55.021,26.742 55.039,26.759 55.058,26.777 C 54.861,26.958 54.665,27.139 54.47,27.32 C 53.477,28.238 52.51,29.183 51.568,30.153 C 50.954,30.785 50.372,31.443 49.789,32.102 C 49.757,32.138 49.761,32.195 49.797,32.227 C 49.833,32.259 49.89,32.254 49.922,32.219 C 51.487,30.378 53.308,28.722 55.139,27.152 C 55.194,27.104 55.249,27.057 55.304,27.01 C 55.563,27.255 55.825,27.497 56.089,27.739 C 56.086,27.751 56.083,27.764 56.08,27.778 C 56.043,27.899 56.02,28.028 55.988,28.153 C 55.967,28.238 55.934,28.334 55.92,28.418 C 55.904,28.479 55.914,28.54 55.943,28.591 C 55.73,28.764 55.522,28.943 55.318,29.132 C 54.417,29.953 53.644,30.857 52.828,31.758 C 52.233,32.414 51.654,33.063 51.033,33.692 C 50.85,33.878 50.681,34.077 50.505,34.269 C 50.373,34.413 50.224,34.549 50.083,34.684 C 50.035,34.728 50.032,34.803 50.076,34.85 C 50.12,34.897 50.195,34.9 50.242,34.856 C 50.441,34.66 50.677,34.465 50.892,34.285 C 50.993,34.2 51.111,34.111 51.203,34.017 C 51.522,33.691 51.852,33.365 52.158,33.029 C 52.666,32.471 53.197,31.93 53.718,31.384 C 54.41,30.66 55.122,29.977 55.876,29.317 C 56.065,29.15 56.264,28.983 56.469,28.821 C 56.479,28.842 56.49,28.861 56.502,28.877 C 56.561,28.955 56.665,29.026 56.763,29.045 C 56.882,29.066 57.052,29.022 57.132,28.929 C 57.156,28.9 57.177,28.874 57.198,28.844 C 57.81,29.488 58.413,30.139 59.014,30.792 C 58.42,31.196 57.834,31.626 57.258,32.057 C 56.441,32.668 55.601,33.296 54.844,33.981 C 54.364,34.415 53.911,34.847 53.458,35.309 C 53.183,35.589 52.9,35.896 52.651,36.198 C 52.592,36.265 52.598,36.369 52.665,36.427 C 52.731,36.486 52.836,36.479 52.894,36.413 C 53.264,35.991 53.638,35.605 54.027,35.204 C 54.342,34.88 54.7,34.584 55.034,34.281 C 55.236,34.099 55.461,33.929 55.673,33.759 C 55.923,33.558 56.172,33.36 56.431,33.17 C 57.383,32.472 58.354,31.799 59.33,31.137 C 59.428,31.242 59.525,31.349 59.623,31.455 C 60.115,31.991 60.599,32.529 61.099,33.056 C 61.096,33.058 61.094,33.059 61.092,33.061 C 59.594,34.188 58.118,35.34 56.655,36.514 C 56.065,36.988 55.456,37.444 54.858,37.91 C 54.813,37.945 54.804,38.012 54.839,38.057 C 54.874,38.102 54.94,38.111 54.985,38.076 C 55.528,37.648 56.087,37.234 56.638,36.816 C 57.385,36.249 58.134,35.683 58.894,35.133 C 59.695,34.552 60.507,33.943 61.34,33.409 C 61.358,33.395 61.375,33.378 61.389,33.36 C 61.524,33.5 61.66,33.639 61.8,33.777 C 62.445,34.421 63.094,35.059 63.75,35.692 C 63.842,35.791 63.934,35.891 64.027,35.991 C 65.36,37.44 66.758,38.845 68.155,40.233 C 68.763,40.838 69.378,41.432 69.995,42.028 C 70.008,42.04 70.021,42.053 70.036,42.067 C 69.819,42.236 69.602,42.405 69.378,42.564 C 69.093,42.766 68.818,42.92 68.52,43.09 C 68.452,43.126 68.427,43.211 68.463,43.279 C 68.498,43.346 68.583,43.372 68.651,43.336 C 68.768,43.265 68.902,43.209 69.017,43.136 C 69.239,42.996 69.472,42.871 69.685,42.717 C 69.792,42.638 69.908,42.564 70.018,42.487 C 70.104,42.426 70.192,42.364 70.281,42.301 C 70.661,42.659 71.046,43.009 71.431,43.365 C 71.66,43.576 71.923,43.821 72.172,44.01 C 72.351,44.294 72.436,44.59 72.482,44.886 C 72.498,44.995 72.51,45.151 72.505,45.28 C 72.316,45.633 72.089,45.967 71.908,46.33 C 71.814,46.272 71.699,46.246 71.582,46.264 C 69.503,46.581 67.42,46.895 65.333,47.165 C 64.051,47.331 62.754,47.49 61.479,47.697 C 59.376,48.037 57.278,48.374 55.181,48.735 C 55.308,48.652 55.427,48.565 55.555,48.48 C 55.581,48.47 55.593,48.439 55.583,48.414 C 55.573,48.388 55.542,48.376 55.516,48.386 C 55.341,48.408 55.163,48.452 54.988,48.47 C 54.731,48.495 54.464,48.529 54.209,48.569 C 53.817,48.631 53.411,48.735 53.017,48.769 C 52.722,48.794 52.418,48.838 52.123,48.87 C 51.687,48.917 51.205,48.959 50.777,49.051 C 50.715,49.063 50.655,49.078 50.593,49.092 C 50.806,48.749 51.023,48.411 51.249,48.082 C 51.31,47.991 51.284,47.867 51.193,47.807 C 51.102,47.746 50.978,47.772 50.918,47.863 C 50.638,48.292 50.359,48.72 50.084,49.151 C 49.902,49.036 49.657,49.074 49.523,49.247 C 49.457,49.332 49.394,49.419 49.331,49.506 C 49.155,49.584 48.984,49.671 48.815,49.77 C 48.665,49.776 48.511,49.783 48.359,49.79 C 47.935,49.808 47.513,49.802 47.09,49.813 C 46.92,49.814 46.782,49.954 46.783,50.124 C 46.784,50.294 46.924,50.432 47.094,50.431 C 47.268,50.426 47.443,50.423 47.618,50.421 C 47.617,50.44 47.619,50.461 47.624,50.481 C 47.653,50.61 47.783,50.693 47.912,50.664 C 47.988,50.646 48.066,50.629 48.143,50.612 C 48.172,50.639 48.206,50.659 48.243,50.67 C 48.173,50.804 48.104,50.942 48.037,51.079 C 47.814,50.987 47.553,51.081 47.447,51.3 C 46.719,52.772 45.994,54.244 45.281,55.723 C 45.262,55.676 45.224,55.636 45.174,55.616 C 45.071,55.574 44.952,55.622 44.91,55.724 C 44.666,56.157 44.433,56.576 44.231,57.03 C 44.1,57.325 43.991,57.633 43.877,57.935 C 43.609,58.651 43.355,59.368 43.103,60.09 C 42.999,60.388 42.894,60.687 42.791,60.986 C 41.327,64.154 39.899,67.336 38.453,70.514 C 38.349,70.741 38.256,70.971 38.164,71.201 L 38.171,71.199 L 38.105,71.217 L 37.796,71.01 C 37.606,70.866 37.427,70.705 37.27,70.555 C 37.275,70.52 37.281,70.486 37.287,70.455 C 37.534,70.404 37.694,70.159 37.645,69.911 C 37.595,69.66 37.348,69.498 37.097,69.548 C 36.832,69.623 36.574,69.6 36.328,69.515 C 36.255,69.425 36.184,69.334 36.115,69.245 C 35.631,68.624 35.179,67.971 34.752,67.307 C 34.723,67.244 34.694,67.181 34.664,67.118 C 34.352,66.454 34.019,65.803 33.695,65.145 C 33.372,64.489 33.052,63.83 32.724,63.176 C 32.32,62.139 31.916,61.102 31.512,60.066 C 30.849,58.369 30.176,56.675 29.448,55.006 C 28.888,53.725 28.316,52.428 27.665,51.189 C 27.409,50.702 27.157,50.214 26.883,49.737 C 26.796,49.586 26.715,49.426 26.621,49.28 C 26.432,48.988 26.222,48.705 26.043,48.406 C 25.944,48.246 25.732,48.196 25.572,48.295 C 25.411,48.394 25.361,48.606 25.46,48.767 C 25.503,48.839 25.546,48.912 25.59,48.986 C 25.532,48.971 25.473,48.958 25.415,48.944 C 25.4,48.91 25.382,48.878 25.36,48.853 C 25.24,48.714 25.065,48.772 24.898,48.766 C 24.658,48.756 24.471,48.743 24.239,48.671 C 24.23,48.668 24.22,48.667 24.217,48.683 C 23.276,48.439 22.329,48.225 21.376,48.042 C 20.6,47.893 19.827,47.739 19.049,47.604 C 17.202,47.283 15.353,47.019 13.493,46.789 C 12.36,46.65 11.213,46.525 10.075,46.431 C 9.764,46.405 9.45,46.372 9.138,46.363 L 8.864,46.363 C 8.617,46.334 8.371,46.303 8.125,46.27 C 7.391,46.171 6.659,46.065 5.93,45.938 C 5.482,45.86 5.037,45.77 4.592,45.684 C 4.515,45.67 4.44,45.72 4.426,45.796 C 4.412,45.873 4.462,45.948 4.539,45.962 C 5.187,46.083 5.832,46.225 6.479,46.356 C 6.46,46.376 6.446,46.402 6.446,46.432 C 6.444,46.494 6.494,46.55 6.556,46.552 C 6.807,46.562 7.053,46.592 7.303,46.613 C 7.553,46.635 7.801,46.636 8.051,46.666 C 8.08,46.669 8.11,46.674 8.138,46.677 C 8.538,46.754 8.937,46.834 9.336,46.914 C 9.692,46.985 10.049,47.05 10.407,47.116 C 9.25,46.957 8.091,46.802 6.933,46.652 C 6.637,46.603 6.34,46.555 6.043,46.508 C 5.361,46.398 4.681,46.294 4,46.193 C 3.874,46.047 3.765,45.884 3.675,45.71 C 3.421,45.218 3.279,44.762 3.232,44.24 C 3.429,43.574 3.872,42.961 4.492,42.639 C 4.683,42.511 4.733,42.25 4.605,42.059 C 4.595,42.043 4.585,42.03 4.573,42.018 C 4.87,41.712 5.169,41.409 5.47,41.106 C 5.432,41.168 5.395,41.231 5.359,41.294 C 5.318,41.364 5.34,41.456 5.41,41.498 C 5.479,41.54 5.571,41.517 5.613,41.448 C 5.807,41.131 5.999,40.823 6.204,40.514 C 6.307,40.357 6.42,40.206 6.531,40.047 C 6.62,39.96 6.714,39.868 6.807,39.777 C 8.129,38.646 9.448,37.513 10.769,36.382 C 11.025,36.162 11.285,35.947 11.534,35.72 C 11.948,35.342 12.352,34.946 12.76,34.561 C 13.284,34.068 13.814,33.58 14.342,33.092 C 15.721,31.816 17.122,30.56 18.559,29.35 C 19.036,28.948 19.506,28.533 19.988,28.137 C 20.14,28.014 20.162,27.789 20.04,27.637 C 20,27.588 19.95,27.552 19.886,27.555 C 19.884,27.547 19.884,27.542 19.885,27.537 C 19.898,27.405 19.936,27.238 19.982,27.111 C 19.992,27.085 19.983,27.047 19.987,27.017 C 19.993,26.981 20.011,26.949 20.02,26.914 C 20.072,26.706 20.211,26.535 20.102,26.304 C 20.028,26.148 19.916,26.082 19.791,26.069 L 19.608,26.112 C 19.475,25.524 19.343,24.935 19.212,24.349 C 19.18,24.069 19.15,23.792 19.112,23.516 C 18.892,21.962 18.631,20.439 18.3,18.903 C 18.03,17.656 17.771,16.41 17.474,15.168 C 17.202,14.035 16.922,12.904 16.634,11.775 C 16.249,10.262 15.839,8.757 15.447,7.246 C 15.246,6.467 15.025,5.692 14.828,4.913 L 14.785,4.825 L 14.76,4.652 C 14.746,4.533 14.636,4.449 14.517,4.463 C 14.398,4.478 14.314,4.588 14.328,4.707 L 14.339,4.784 L 14.31,4.816 C 14.295,4.769 14.278,4.722 14.263,4.676 C 14.319,4.444 14.395,4.221 14.495,4.014 L 14.893,3.594 C 15.11,3.37 15.336,3.153 15.577,2.961 C 15.885,2.845 16.22,2.816 16.554,2.792 C 17.033,3.038 17.508,3.29 17.98,3.551 Z M 57.07,3.959 C 56.957,3.825 56.764,3.778 56.597,3.853 C 56.449,3.919 56.301,3.985 56.154,4.052 C 56.194,4.026 56.234,4.001 56.275,3.975 C 56.376,3.909 56.476,3.841 56.578,3.773 C 56.554,3.783 56.531,3.792 57.513,3.494 C 57.364,3.643 57.215,3.8 57.07,3.959 Z M 17.987,3.552 L 17.986,3.553 C 17.984,3.552 17.982,3.551 17.98,3.551 C 17.983,3.548 17.985,3.55 17.987,3.552 Z M 17.986,3.553 C 18.548,3.77 19.071,4.042 17.986,3.553 Z M 54.212,4.286 C 54.038,4.391 53.864,4.507 53.692,4.625 C 53.639,4.625 53.585,4.645 53.545,4.687 C 53.498,4.732 53.452,4.778 53.406,4.825 C 53.297,4.9 53.185,4.978 53.074,5.061 C 51.842,5.662 50.613,6.29 49.393,6.922 C 48.73,7.265 48.076,7.631 47.421,7.986 C 46.795,8.325 46.169,8.67 45.547,9.02 C 45.584,8.985 45.622,8.949 45.659,8.914 C 45.858,8.792 46.055,8.668 46.253,8.545 C 47.385,7.838 48.527,7.148 49.676,6.47 C 50.753,5.835 51.833,5.256 52.943,4.682 C 53.229,4.573 53.516,4.468 53.809,4.369 C 54.006,4.302 54.204,4.233 54.406,4.166 C 54.341,4.206 54.277,4.246 54.212,4.286 Z M 17.826,5.416 C 17.404,5.734 16.952,6.024 16.494,6.288 C 16.45,6.313 16.436,6.37 16.46,6.414 C 16.485,6.458 16.542,6.472 16.586,6.448 C 16.844,6.297 17.101,6.149 17.353,5.987 C 17.649,5.798 17.926,5.598 18.214,5.397 C 18.371,5.286 18.542,5.169 18.692,5.05 C 18.87,4.907 19.05,4.763 19.229,4.624 C 19.282,4.581 19.291,4.5 19.248,4.447 C 19.205,4.394 19.125,4.384 19.071,4.427 C 18.653,4.752 18.25,5.096 17.826,5.416 Z M 19.998,6.229 C 19.725,6.423 19.442,6.61 19.163,6.796 C 18.731,7.085 18.302,7.38 17.869,7.67 C 17.825,7.699 17.813,7.759 17.842,7.803 C 17.871,7.847 17.931,7.858 17.975,7.83 C 19.04,7.102 20.135,6.409 21.218,5.708 C 21.276,5.669 21.292,5.587 21.253,5.529 C 21.215,5.47 21.133,5.454 21.074,5.493 C 20.715,5.729 20.348,5.979 19.998,6.229 Z M 14.932,10.88 C 15.33,12.533 15.733,14.186 16.13,15.848 C 15.732,14.588 15.358,13.32 15.037,12.052 C 14.861,11.357 14.68,10.642 14.55,9.938 C 14.425,9.267 14.324,8.607 14.227,7.933 C 14.221,7.897 14.216,7.862 14.21,7.816 C 14.445,8.846 14.688,9.863 14.932,10.88 Z M 15.998,13.541 C 16.243,14.438 16.483,15.339 16.668,16.256 C 16.429,15.381 16.19,14.506 15.952,13.632 C 15.617,12.411 15.283,11.189 14.96,9.953 C 15.326,11.151 15.669,12.347 15.998,13.541 Z M 37.395,13.358 C 37.352,13.377 37.31,13.396 37.268,13.417 C 37.299,13.387 37.33,13.358 37.36,13.328 C 37.372,13.338 37.383,13.348 37.395,13.358 Z M 17.946,21.424 C 18.198,22.238 18.167,22.104 18.136,21.973 C 18.246,22.547 18.35,23.124 18.44,23.704 C 18.385,23.421 18.326,23.135 18.269,22.852 C 18.171,22.373 18.067,21.897 17.946,21.424 Z M 58.021,22.145 L 57.996,22.29 C 57.994,22.299 57.992,22.308 57.99,22.317 L 58.021,22.145 Z M 55.342,23.557 C 55.034,23.826 54.741,24.118 54.446,24.401 C 53.951,24.876 53.441,25.415 52.887,25.822 C 52.63,26.01 52.394,26.173 52.116,26.332 C 52.01,26.394 51.893,26.443 51.786,26.503 C 51.714,26.539 51.685,26.627 51.721,26.699 C 51.757,26.771 51.845,26.799 51.917,26.763 C 52.43,26.503 52.93,26.214 53.378,25.848 C 54.322,25.079 55.118,24.114 56.104,23.395 C 56.181,23.337 56.194,23.225 56.136,23.148 C 56.077,23.072 55.966,23.058 55.889,23.117 C 55.708,23.266 55.52,23.401 55.342,23.557 Z M 56.47,26.129 C 56.43,26.31 56.388,26.491 56.345,26.671 C 56.319,26.777 56.294,26.882 56.269,26.989 C 56.119,26.852 55.97,26.714 55.821,26.577 C 56.024,26.409 56.227,26.241 56.429,26.072 C 56.441,26.092 56.455,26.111 56.47,26.129 Z M 20.995,27.412 C 20.679,27.715 20.388,28.037 20.086,28.353 C 19.807,28.644 19.524,28.933 19.241,29.22 C 18.298,30.175 17.328,31.123 16.341,32.032 C 15.401,32.896 14.456,33.757 13.497,34.599 C 13.051,34.991 12.593,35.376 12.156,35.778 C 9.975,37.786 7.792,39.794 5.622,41.812 L 5.658,41.851 C 6.316,41.242 6.978,40.642 7.651,40.05 C 9.204,38.686 10.821,37.391 12.411,36.071 C 13.004,35.58 13.582,35.059 14.158,34.547 C 14.908,33.88 15.661,33.217 16.403,32.539 C 18.092,30.997 19.779,29.408 21.298,27.697 C 21.375,27.614 21.371,27.481 21.288,27.403 C 21.205,27.325 21.072,27.329 20.995,27.412 Z M 21.967,28.771 C 21.589,29.039 21.232,29.363 20.883,29.667 C 19.784,30.624 18.806,31.71 17.819,32.778 C 16.884,33.79 15.964,34.841 14.987,35.809 C 14.753,36.04 14.517,36.28 14.278,36.504 C 14.06,36.709 13.835,36.906 13.617,37.11 C 13.473,37.245 13.314,37.374 13.163,37.503 C 12.711,37.888 12.264,38.24 11.788,38.593 C 11.578,38.749 11.358,38.888 11.148,39.041 L 11.185,39.095 C 11.449,38.901 11.726,38.719 11.992,38.525 C 12.541,38.126 13.084,37.684 13.598,37.24 C 15.6,35.511 17.359,33.51 19.243,31.658 C 19.925,30.988 20.631,30.346 21.348,29.713 C 21.635,29.459 21.941,29.222 22.232,28.967 C 22.45,28.776 22.662,28.575 22.882,28.387 C 22.917,28.361 22.925,28.31 22.899,28.275 C 22.874,28.24 22.823,28.232 22.788,28.258 C 22.507,28.417 22.231,28.585 21.967,28.771 Z M 24.367,30.032 C 24.126,30.313 23.89,30.589 23.644,30.866 C 23.276,31.281 22.864,31.678 22.468,32.068 C 21.974,32.554 21.475,33.035 20.973,33.514 C 20.516,33.95 20.064,34.391 19.615,34.835 C 19.351,35.096 19.072,35.363 18.826,35.64 C 18.48,36.03 18.15,36.432 17.823,36.838 C 17.778,36.892 17.786,36.974 17.84,37.019 C 17.894,37.064 17.976,37.056 18.021,37.001 C 18.372,36.562 18.749,36.191 19.131,35.784 C 20.07,34.781 21.13,33.853 22.144,32.926 C 22.745,32.377 23.336,31.804 23.888,31.206 C 24.162,30.91 24.413,30.598 24.68,30.296 C 24.753,30.211 24.742,30.081 24.656,30.008 C 24.57,29.935 24.44,29.946 24.367,30.032 Z M 24.352,34.162 C 23.821,34.644 23.287,35.119 22.749,35.592 C 22.695,35.639 22.688,35.723 22.736,35.777 C 22.783,35.832 22.867,35.838 22.921,35.791 C 23.267,35.487 23.62,35.189 23.966,34.885 C 24.844,34.113 25.731,33.342 26.645,32.615 C 26.726,32.546 26.735,32.422 26.667,32.341 C 26.598,32.261 26.474,32.251 26.394,32.32 C 25.7,32.918 25.029,33.546 24.352,34.162 Z M 27.945,33.835 C 27.725,34.017 27.475,34.202 27.271,34.399 C 27.178,34.488 27.079,34.571 26.99,34.663 C 26.895,34.762 26.803,34.874 26.713,34.978 C 26.659,35.04 26.665,35.137 26.727,35.191 C 26.79,35.245 26.886,35.239 26.94,35.177 C 27.436,34.566 28.108,34.078 28.553,33.443 C 28.655,33.296 28.739,33.166 28.822,33.009 C 28.862,32.933 28.903,32.826 28.932,32.744 C 28.946,32.704 28.955,32.657 28.976,32.621 C 28.726,33.121 28.379,33.478 27.945,33.835 Z M 64.88,35.36 C 65.293,35.727 65.707,36.095 66.119,36.465 C 66.504,36.838 66.885,37.214 67.264,37.598 C 66.347,36.787 65.448,35.961 64.565,35.118 C 64.412,34.972 64.259,34.827 64.094,34.67 C 64.367,34.905 64.624,35.132 64.88,35.36 Z M 61.284,36.169 C 60.677,36.699 60.057,37.245 59.424,37.744 C 59.077,38.017 58.721,38.297 58.357,38.547 C 58.159,38.682 57.957,38.809 57.759,38.943 C 57.69,38.987 57.67,39.079 57.714,39.148 C 57.758,39.216 57.85,39.237 57.918,39.193 C 58.114,39.058 58.323,38.933 58.521,38.8 C 58.733,38.658 58.937,38.499 59.148,38.354 C 59.303,38.246 59.453,38.12 59.605,38.007 C 59.934,37.762 60.266,37.496 60.584,37.236 C 61.29,36.657 62.002,36.105 62.736,35.564 C 62.835,35.489 62.854,35.345 62.778,35.246 C 62.702,35.147 62.559,35.128 62.46,35.204 C 62.063,35.517 61.665,35.837 61.284,36.169 Z M 62.673,37.919 C 62.059,38.48 61.455,39.034 60.814,39.564 C 60.749,39.617 60.739,39.713 60.791,39.777 C 60.844,39.842 60.94,39.852 61.004,39.8 C 61.116,39.699 61.256,39.587 61.376,39.496 C 61.61,39.316 61.857,39.09 62.079,38.893 C 62.86,38.199 63.668,37.498 64.551,36.942 C 64.647,36.882 64.677,36.752 64.616,36.656 C 64.556,36.559 64.426,36.53 64.33,36.59 C 63.739,36.935 63.174,37.459 62.673,37.919 Z M 64.42,39.781 C 64.153,39.994 63.872,40.197 63.603,40.408 C 63.225,40.703 62.783,41.046 62.478,41.42 C 62.421,41.485 62.428,41.587 62.494,41.644 C 62.559,41.701 62.66,41.694 62.718,41.629 C 62.791,41.528 62.904,41.426 62.994,41.338 C 63.238,41.102 63.515,40.901 63.783,40.692 C 64.086,40.456 64.41,40.244 64.718,40.016 C 64.821,39.939 64.927,39.861 65.032,39.787 C 65.08,39.754 65.122,39.713 65.173,39.682 C 65.257,39.617 65.273,39.494 65.208,39.41 C 65.142,39.326 65.02,39.309 64.936,39.375 C 64.765,39.504 64.589,39.646 64.42,39.781 Z M 66.545,40.886 C 66.162,41.156 65.783,41.428 65.419,41.722 C 65.254,41.855 65.077,41.989 64.921,42.132 C 64.833,42.205 64.822,42.337 64.895,42.425 C 64.967,42.513 65.099,42.524 65.187,42.452 C 65.724,41.984 66.294,41.589 66.878,41.187 C 67.224,40.948 67.585,40.708 67.943,40.487 C 68.047,40.418 68.077,40.276 68.008,40.171 C 67.94,40.067 67.797,40.037 67.693,40.106 C 67.303,40.347 66.919,40.622 66.545,40.886 Z M 70.588,41.33 C 70.637,41.396 70.689,41.464 70.74,41.53 C 70.633,41.434 70.528,41.334 70.424,41.235 C 70.447,41.226 70.472,41.217 70.495,41.206 C 70.526,41.247 70.558,41.288 70.588,41.33 Z M 2.311,43.84 C 2.311,43.89 2.31,43.944 2.319,43.99 C 2.352,44.189 2.369,44.385 2.417,44.583 C 2.465,44.782 2.519,44.967 2.583,45.144 C 2.625,45.467 2.726,45.765 2.895,46.032 C 2.815,46.021 2.736,46.009 2.656,45.998 C 2.599,45.95 2.528,45.92 2.452,45.912 L 2.334,45.596 C 2.189,45.12 2.145,44.617 2.228,44.104 C 2.244,43.996 2.267,43.901 2.294,43.81 C 2.299,43.82 2.305,43.829 2.311,43.84 Z M 25.097,49.617 L 25.188,49.796 C 25.219,49.862 25.248,49.927 25.279,49.995 C 25.208,49.897 25.138,49.798 25.067,49.702 C 25.079,49.676 25.09,49.647 25.098,49.618 L 25.097,49.617 Z M 26.062,49.845 C 26.738,51.026 27.32,52.22 27.892,53.456 C 28.205,54.135 28.485,54.835 28.772,55.525 C 28.843,55.695 28.913,55.866 28.983,56.038 C 28.764,55.636 28.542,55.235 28.007,54.378 C 28,54.363 27.995,54.349 27.991,54.335 C 27.94,54.178 27.881,54.017 27.824,53.863 C 27.77,53.714 27.728,53.558 27.671,53.411 C 27.628,53.3 27.58,53.168 27.547,53.053 C 27.513,52.953 27.402,52.899 27.301,52.932 C 27.274,52.941 27.249,52.956 27.23,52.974 C 27.125,52.802 27.02,52.63 26.913,52.459 C 26.792,52.137 26.668,51.815 26.539,51.495 C 26.303,50.914 26.071,50.35 25.813,49.782 C 25.896,49.802 25.979,49.824 26.062,49.845 Z M 35.797,70.245 L 35.815,70.282 C 35.895,70.319 35.98,70.353 36.074,70.388 C 36.314,70.665 36.567,70.932 36.854,71.171 L 36.853,71.175 L 36.824,71.202 C 36.766,71.276 36.779,71.385 36.853,71.443 C 36.926,71.502 37.036,71.488 37.094,71.415 L 37.094,71.413 C 37.103,71.427 37.116,71.437 37.129,71.449 C 37.209,71.517 37.3,71.59 37.399,71.663 L 36.452,71.663 L 35.797,70.245 Z" stroke="none" fill="#000000" stroke-width="0.5" fill-rule="evenodd" marker-start="none" marker-end="none" stroke-miterlimit="79.8403193612775"/></g></g></g><text x="0" y="90" fill="#000000" font-size="5px" font-weight="bold" font-family="'Helvetica Neue', Helvetica, Arial-Unicode, Arial, Sans-serif">Created by Denis Sazhin</text><text x="0" y="95" fill="#000000" font-size="5px" font-weight="bold" font-family="'Helvetica Neue', Helvetica, Arial-Unicode, Arial, Sans-serif">from the Noun Project</text></svg>