<svg xmlns:xlink="http://www.w3.org/1999/xlink" xmlns="http://www.w3.org/2000/svg" stroke-width="0.501" stroke-linejoin="bevel" fill-rule="evenodd" version="1.1" overflow="visible" viewBox="0 0 75 93.75" x="0px" y="0px"><g fill="none" stroke="black" font-family="Times New Roman" font-size="16" transform="scale(1 -1)"><g transform="translate(0 -75)"><g><path d="M 0.746,1.555 C 0.893,1.908 1.056,2.269 1.22,2.614 C 1.518,3.242 1.805,3.869 2.12,4.49 C 2.632,5.496 3.156,6.484 3.706,7.469 C 3.78,7.602 3.856,7.735 3.933,7.867 C 5.106,10.421 6.419,12.949 8.06,15.234 C 9.337,17.011 10.821,18.834 12.703,20.004 C 12.705,20.005 12.707,20.005 12.71,20.007 C 12.812,20.1 12.917,20.194 13.022,20.288 C 13.323,20.558 13.649,20.803 13.964,21.058 C 14.245,21.651 14.533,22.24 14.833,22.825 C 14.853,22.909 14.872,22.993 14.9,23.08 C 14.946,23.222 15.043,23.397 15.106,23.538 C 15.247,23.847 15.401,24.157 15.556,24.462 L 15.553,24.464 C 15.027,23.701 14.555,22.904 14.093,22.103 C 14.025,21.985 13.87,21.944 13.752,22.012 C 13.634,22.08 13.593,22.235 13.661,22.353 C 14.137,23.181 14.625,24.005 15.127,24.82 C 15.124,24.823 15.12,24.826 15.117,24.829 C 15.115,24.83 15.114,24.831 15.113,24.832 C 14.93,24.608 14.748,24.385 14.566,24.162 C 14.517,24.102 14.428,24.094 14.369,24.142 C 14.336,24.168 14.319,24.205 14.317,24.243 C 14.315,24.245 14.312,24.246 14.31,24.248 C 14.234,24.29 14.206,24.388 14.248,24.464 C 14.456,24.837 14.655,25.224 14.876,25.588 C 15.51,26.635 16.143,27.667 16.834,28.679 C 17.309,29.374 17.792,30.064 18.288,30.746 C 18.552,31.11 18.826,31.467 19.092,31.829 C 20.032,33.112 21.06,34.33 22.057,35.567 C 22.299,35.868 22.555,36.159 22.804,36.455 C 23.538,37.327 24.285,38.191 25.049,39.036 C 26.067,40.162 27.091,41.273 28.132,42.378 C 29.753,44.098 31.434,45.766 33.122,47.424 C 32.998,47.54 32.874,47.657 32.752,47.775 C 32.657,47.863 32.651,48.013 32.739,48.108 C 32.827,48.203 32.977,48.208 33.072,48.121 C 33.201,47.998 33.332,47.878 33.465,47.76 C 33.848,48.136 34.232,48.512 34.616,48.888 C 36.299,50.537 38.001,52.168 39.716,53.803 C 39.853,53.962 40,54.129 40.149,54.295 C 40.455,54.634 40.759,54.977 41.08,55.301 C 41.206,55.428 41.337,55.55 41.463,55.677 C 41.976,56.192 42.549,56.658 43.087,57.146 C 43.294,57.333 43.502,57.523 43.709,57.712 C 44.567,58.587 45.414,59.479 46.24,60.362 C 46.46,60.607 46.672,60.861 46.882,61.117 C 46.882,61.141 46.89,61.164 46.906,61.184 C 46.921,61.204 46.944,61.217 46.968,61.223 C 47.322,61.656 47.67,62.093 48.045,62.509 C 48.273,62.763 48.507,62.991 48.75,63.228 C 49.431,63.849 50.084,64.499 50.727,65.16 C 50.724,65.167 50.722,65.173 50.72,65.179 C 50.699,65.223 50.717,65.279 50.761,65.3 C 50.792,65.315 50.827,65.31 50.854,65.291 C 50.981,65.423 51.108,65.555 51.235,65.688 C 51.462,65.924 51.689,66.16 51.917,66.394 C 51.901,66.418 51.886,66.441 51.871,66.465 C 51.832,66.521 51.846,66.601 51.901,66.64 C 51.957,66.679 52.037,66.666 52.076,66.61 C 52.083,66.599 52.09,66.589 52.097,66.58 C 52.517,67.012 52.937,67.445 53.356,67.88 C 54.162,68.717 55.038,69.577 55.983,70.354 C 55.982,70.359 55.981,70.364 55.981,70.37 C 55.964,70.449 56.015,70.529 56.094,70.546 C 56.151,70.557 56.209,70.57 56.268,70.583 C 57.27,71.377 58.348,72.069 59.505,72.541 C 59.587,72.6 59.672,72.658 59.758,72.714 C 60.088,72.93 60.548,73.173 60.923,73.294 C 61.007,73.322 61.09,73.356 61.174,73.383 C 61.586,73.516 62.108,73.627 62.54,73.643 C 63.149,73.667 63.788,73.638 64.38,73.476 C 64.653,73.402 64.922,73.331 65.187,73.228 C 65.394,73.148 65.595,73.056 65.797,72.964 C 66.031,72.856 66.287,72.711 66.512,72.569 C 66.655,72.518 66.797,72.464 66.941,72.41 C 67.224,72.303 67.469,72.209 67.692,72.026 C 67.709,72.024 67.728,72.018 67.746,72.013 C 67.922,71.96 68.099,71.901 68.266,71.824 C 68.554,71.69 68.873,71.547 69.124,71.348 C 69.205,71.283 69.295,71.23 69.372,71.16 C 69.484,71.057 69.594,70.96 69.704,70.854 C 69.884,70.683 70.027,70.476 70.172,70.277 C 70.363,70.012 70.603,69.552 70.702,69.243 C 70.904,68.618 71.065,68.024 71.093,67.362 C 71.106,67.052 71.102,66.739 71.08,66.427 C 71.513,65.324 71.927,64.215 72.31,63.091 C 72.7,61.948 73.023,60.791 73.306,59.616 C 73.472,58.924 73.587,58.219 73.716,57.52 C 73.768,57.238 73.799,56.947 73.836,56.664 C 73.911,56.093 73.957,55.518 73.984,54.944 C 73.988,54.842 73.993,54.74 73.997,54.637 C 74.037,54.542 74.074,54.445 74.108,54.344 C 74.361,53.556 74.26,52.601 74.156,51.797 C 74.062,51.058 73.932,50.321 73.758,49.597 C 73.71,49.395 73.668,49.17 73.602,48.976 C 73.536,48.788 73.539,48.604 73.481,48.423 C 73.317,47.907 73.165,47.381 72.974,46.874 C 72.705,46.157 72.417,45.45 72.076,44.762 C 71.87,44.347 71.648,43.948 71.429,43.54 C 70.958,42.663 70.358,41.839 69.772,41.036 C 69.65,40.869 69.519,40.712 69.39,40.55 C 68.898,39.931 68.365,39.344 67.803,38.788 C 66.58,37.578 65.217,36.532 63.722,35.68 C 63.348,35.467 62.971,35.275 62.585,35.085 C 62.376,34.982 62.155,34.896 61.943,34.798 C 61.797,34.729 61.639,34.673 61.488,34.616 C 61.115,34.475 60.747,34.344 60.366,34.224 C 58.154,33.526 55.832,33.354 53.576,32.855 C 52.298,32.572 51.131,32.199 49.995,31.653 L 49.673,31.479 L 49.821,31.438 L 50.061,31.459 C 50.154,31.476 50.207,31.513 50.315,31.515 C 50.469,31.52 50.613,31.458 50.716,31.343 L 50.698,31.362 C 50.87,31.173 51.142,30.995 51.287,30.815 C 51.35,30.736 51.428,30.554 51.466,30.458 C 51.964,29.175 51.233,27.839 50.119,27.166 C 50.074,27.138 50.029,27.112 49.985,27.088 C 49.882,26.984 49.766,26.881 49.667,26.812 C 49.468,26.671 49.317,26.579 49.101,26.464 C 48.546,26.17 47.676,26.133 47.091,26.345 C 46.897,26.415 46.738,26.48 46.554,26.578 C 45.509,27.134 44.646,28.389 44.322,29.575 C 43.989,29.225 43.654,28.876 43.319,28.527 C 43.145,28.347 42.967,28.162 42.787,27.987 C 42.275,27.49 41.774,26.981 41.259,26.486 C 40.679,25.928 40.089,25.38 39.498,24.834 C 38.382,23.801 37.235,22.809 36.083,21.817 C 35.812,21.582 35.52,21.366 35.237,21.146 C 34.841,20.84 34.444,20.536 34.046,20.232 C 32.676,19.188 31.264,18.161 29.836,17.198 C 29.785,17.163 29.734,17.129 29.599,17.047 L 29.597,17.046 C 28.919,16.498 28.237,15.952 27.543,15.423 C 26.837,14.884 26.129,14.338 25.411,13.807 C 25.603,13.595 25.787,13.377 25.954,13.132 C 26.066,13.005 26.054,12.809 25.927,12.697 C 25.8,12.585 25.605,12.596 25.493,12.723 C 25.375,12.824 25.256,12.926 25.152,13.04 C 25.057,13.142 24.969,13.251 24.874,13.353 C 24.863,13.365 24.851,13.377 24.84,13.389 C 24.553,13.181 24.264,12.978 23.973,12.779 C 23.949,12.762 23.923,12.755 23.897,12.757 C 23.753,12.349 23.592,11.934 23.413,11.549 C 23.352,11.418 23.281,11.288 23.225,11.156 C 23.179,11.051 23.111,10.939 23.056,10.835 C 22.775,10.302 22.451,9.817 22.082,9.342 C 21.749,8.916 21.375,8.54 20.968,8.186 C 19.508,6.915 17.587,6.323 15.704,6.043 C 15.225,5.97 14.746,5.912 14.266,5.86 C 14.131,5.831 13.997,5.801 13.865,5.772 C 12.527,5.468 11.162,5.286 9.817,5.021 C 8.649,4.791 7.527,4.501 6.399,4.122 C 6.044,4.003 5.698,3.862 5.35,3.724 C 5.038,3.599 4.716,3.46 4.413,3.311 C 4.332,3.271 4.252,3.232 4.172,3.192 C 4.085,3.132 4,3.069 3.912,3.007 C 3.525,2.707 2.951,2.38 2.701,1.943 C 2.608,1.806 2.42,1.771 2.283,1.865 C 2.198,1.922 2.152,2.017 2.152,2.113 C 2.075,2.12 2.002,2.161 1.959,2.232 C 1.947,2.25 1.938,2.269 1.933,2.289 C 1.897,2.283 1.86,2.286 1.826,2.3 C 1.725,2.341 1.675,2.457 1.715,2.558 C 1.772,2.7 1.819,2.849 1.864,2.996 C 1.886,3.067 1.901,3.144 1.928,3.213 C 1.982,3.356 2.046,3.496 2.103,3.639 C 2.182,3.837 2.264,4.035 2.347,4.233 C 2.321,4.184 2.296,4.134 2.271,4.085 C 1.821,3.213 1.414,2.333 1.013,1.438 C 0.981,1.365 0.894,1.33 0.821,1.363 C 0.748,1.395 0.713,1.482 0.746,1.555 Z M 2.88,3.088 C 3.068,3.194 3.256,3.3 3.447,3.402 C 3.483,3.431 3.52,3.458 3.556,3.487 C 3.914,3.748 4.254,3.997 4.633,4.229 C 5.116,4.525 5.613,4.757 6.128,4.991 C 6.383,5.106 6.664,5.205 6.929,5.297 C 7.167,5.38 7.407,5.457 7.648,5.526 C 7.506,5.561 7.353,5.568 7.179,5.531 C 7.07,5.508 6.96,5.579 6.938,5.688 C 6.915,5.798 6.986,5.907 7.095,5.929 C 7.144,5.934 7.205,5.96 7.25,5.961 C 7.382,5.965 7.534,5.983 7.664,5.95 C 7.837,5.906 8.009,5.858 8.171,5.776 C 8.217,5.752 8.262,5.727 8.309,5.702 C 8.775,5.815 9.245,5.908 9.717,5.988 C 9.553,6.086 9.372,6.209 9.314,6.253 C 9.058,6.446 8.778,6.622 8.53,6.827 C 8.427,6.913 8.309,6.987 8.213,7.08 C 8.149,7.133 8.141,7.229 8.194,7.292 C 8.247,7.356 8.343,7.363 8.406,7.311 C 8.446,7.248 8.765,7.037 8.84,6.98 C 9.136,6.757 9.474,6.557 9.794,6.372 C 9.871,6.328 10.059,6.208 10.14,6.191 C 10.192,6.169 10.228,6.124 10.242,6.073 C 10.8,6.157 11.363,6.228 11.927,6.3 C 12.067,6.316 12.207,6.333 12.352,6.348 C 12.654,6.406 12.962,6.462 13.267,6.527 C 14.699,6.834 16.072,7.204 17.384,7.865 C 17.386,7.866 17.389,7.867 17.391,7.869 C 17.342,7.788 17.281,7.805 17.23,7.842 C 16.329,8.513 15.432,9.256 14.651,10.064 C 14.378,10.347 14.112,10.618 13.86,10.919 C 13.756,11.043 13.641,11.17 13.55,11.302 C 13.472,11.402 13.488,11.547 13.588,11.625 C 13.688,11.703 13.833,11.687 13.911,11.587 C 14.466,10.887 15.085,10.266 15.769,9.684 C 16.349,9.192 16.929,8.732 17.558,8.307 C 17.653,8.24 17.694,8.123 17.671,8.016 C 17.857,8.117 18.044,8.228 18.205,8.341 C 18.34,8.436 18.485,8.521 18.619,8.622 C 19.09,8.975 19.522,9.333 19.928,9.762 C 20.536,10.408 21.008,11.08 21.489,11.823 C 21.564,11.94 21.637,12.062 21.708,12.186 C 21.68,12.195 21.653,12.206 21.627,12.224 C 20.837,12.728 20.209,13.348 19.534,13.997 C 19.205,14.314 18.877,14.639 18.529,14.935 C 18.435,15.015 18.357,15.115 18.266,15.2 C 18.133,15.322 18.003,15.44 17.869,15.559 C 17.794,15.62 17.785,15.731 17.845,15.805 C 17.906,15.879 18.017,15.889 18.091,15.829 C 18.32,15.639 18.583,15.484 18.802,15.295 C 18.991,15.133 19.172,14.962 19.357,14.797 C 19.829,14.379 20.316,13.947 20.813,13.559 C 21.034,13.387 21.256,13.183 21.488,13.025 C 21.644,12.919 21.791,12.818 21.952,12.716 C 21.962,12.709 21.974,12.7 21.984,12.691 C 22.054,12.825 22.124,12.959 22.193,13.09 C 22.209,13.12 22.225,13.151 22.241,13.182 C 22.185,13.305 22.226,13.457 22.344,13.532 C 22.377,13.553 22.409,13.573 22.441,13.594 C 22.517,13.756 22.592,13.919 22.67,14.081 C 22.746,14.247 22.902,14.352 23.073,14.372 C 23.09,14.543 23.098,14.708 23.095,14.851 C 23.093,14.907 23.088,14.965 23.083,15.024 L 23.079,15.07 C 23.01,15.103 22.939,15.137 22.87,15.171 L 22.879,15.169 L 22.349,15.323 C 22.552,15.165 22.758,15.01 22.969,14.865 C 23.077,14.781 23.097,14.623 23.013,14.515 C 22.929,14.406 22.77,14.387 22.662,14.471 C 22.334,14.744 22.001,15.018 21.683,15.303 C 21.468,15.496 21.204,15.728 20.967,15.896 C 20.758,16.044 20.561,16.193 20.343,16.332 C 20.214,16.414 20.07,16.479 19.942,16.561 C 19.855,16.61 19.824,16.721 19.873,16.808 C 19.922,16.895 20.033,16.927 20.12,16.878 C 20.252,16.801 20.396,16.73 20.524,16.65 C 20.77,16.496 21,16.337 21.24,16.173 C 21.44,16.037 21.636,15.873 21.829,15.726 C 21.982,15.609 22.134,15.489 22.288,15.37 C 22.271,15.396 22.264,15.429 22.274,15.462 C 22.276,15.469 22.279,15.477 22.282,15.484 C 20.554,16.46 18.993,17.842 17.652,19.228 C 17.315,19.575 16.977,19.922 16.634,20.271 C 16.56,20.325 16.482,20.382 16.406,20.438 C 16.173,20.609 15.931,20.778 15.704,20.958 C 15.418,21.185 15.141,21.416 14.849,21.637 C 14.759,21.702 14.726,21.818 14.806,21.92 C 14.802,21.913 14.798,21.906 14.795,21.9 C 14.679,21.679 14.567,21.454 14.457,21.228 C 14.556,21.205 14.648,21.149 14.715,21.065 C 14.782,20.979 14.814,20.878 14.814,20.777 C 14.924,20.727 15.012,20.631 15.047,20.506 C 15.11,20.281 14.978,20.048 14.753,19.985 C 14.687,19.969 14.623,19.953 14.557,19.934 C 14.334,19.675 14.108,19.419 13.872,19.176 C 13.277,18.561 12.662,17.971 12.073,17.349 C 11.897,17.163 11.716,16.982 11.546,16.792 C 11.287,16.503 11.019,16.22 10.757,15.933 C 10.367,15.504 9.988,15.056 9.609,14.616 C 9.356,14.323 9.094,14.037 8.841,13.744 C 8.563,13.424 8.297,13.093 8.022,12.77 C 7.835,12.549 7.658,12.318 7.477,12.091 C 7.357,11.942 7.239,11.791 7.121,11.641 C 6.991,11.422 6.862,11.202 6.736,10.983 C 5.964,9.636 5.253,8.285 4.655,6.851 C 4.461,6.386 4.281,5.916 4.112,5.443 C 4.328,5.682 4.541,5.925 4.754,6.17 C 4.951,6.397 5.139,6.621 5.353,6.833 C 5.376,6.855 5.398,6.878 5.42,6.899 C 5.833,7.381 6.248,7.858 6.668,8.328 C 7.409,9.159 8.162,10.027 8.99,10.771 C 8.967,10.789 8.949,10.813 8.935,10.84 C 8.879,10.943 8.879,11.083 8.926,11.191 C 9.033,11.438 9.123,11.69 9.259,11.926 C 9.331,12.051 9.404,12.174 9.482,12.298 L 9.488,12.32 C 9.688,13.219 10.527,14.091 11.429,14.299 L 11.587,14.321 L 11.749,14.4 C 11.842,14.47 11.974,14.45 12.05,14.343 L 12.35,14.29 C 12.45,14.264 12.543,14.229 12.626,14.184 C 12.692,14.146 12.759,14.114 12.791,14.019 C 12.889,14.002 12.972,13.924 13.004,13.825 C 13.005,13.82 13.006,13.815 13.001,13.811 C 13.038,13.817 13.045,13.792 13.05,13.764 C 13.087,13.531 13.11,13.316 13.085,13.08 C 12.957,11.866 11.95,10.916 10.805,10.599 C 10.706,10.571 10.606,10.549 10.503,10.531 C 8.919,9.135 7.356,7.703 5.898,6.178 C 5.627,5.894 5.328,5.63 5.043,5.36 C 4.749,5.082 4.456,4.785 4.18,4.489 C 4.08,4.383 3.929,4.354 3.801,4.403 C 3.779,4.376 3.757,4.351 3.735,4.325 C 3.698,4.207 3.661,4.09 3.625,3.973 C 3.592,3.863 3.475,3.803 3.366,3.836 C 3.351,3.84 3.338,3.846 3.326,3.852 C 3.063,3.546 2.8,3.24 2.536,2.935 C 2.481,2.871 2.387,2.857 2.316,2.9 C 2.277,2.823 2.238,2.749 2.2,2.674 C 2.427,2.809 2.65,2.957 2.88,3.088 Z M 3.037,4.061 C 3.13,4.173 3.224,4.285 3.318,4.399 C 3.442,4.799 3.585,5.204 3.723,5.594 C 3.917,6.15 4.11,6.708 4.319,7.259 C 4.081,6.78 3.844,6.302 3.611,5.82 C 3.244,5.066 2.904,4.287 2.58,3.512 C 2.734,3.694 2.885,3.877 3.037,4.061 Z M 11.043,6.672 C 10.854,6.765 10.657,6.896 10.485,7.02 C 10.143,7.264 9.845,7.552 9.528,7.824 C 9.346,7.982 9.16,8.125 8.971,8.273 C 8.919,8.312 8.908,8.387 8.947,8.439 C 8.986,8.491 9.061,8.501 9.113,8.462 C 9.286,8.327 9.458,8.193 9.631,8.055 C 9.971,7.783 10.277,7.508 10.64,7.263 C 10.866,7.11 11.075,7.021 11.31,6.903 C 11.391,6.865 11.425,6.767 11.387,6.685 C 11.349,6.604 11.251,6.57 11.169,6.608 C 11.128,6.622 11.083,6.652 11.043,6.672 Z M 11.163,8.878 C 11.122,8.92 11.123,8.99 11.165,9.031 C 11.207,9.072 11.276,9.071 11.317,9.029 C 11.447,8.888 11.593,8.748 11.732,8.616 C 12.142,8.226 12.517,7.885 12.989,7.569 C 13.199,7.428 13.439,7.311 13.666,7.202 C 13.75,7.157 13.782,7.051 13.738,6.967 C 13.693,6.883 13.586,6.851 13.502,6.895 C 12.564,7.413 11.901,8.123 11.163,8.878 Z M 14.598,7.675 C 13.721,8.404 12.753,8.987 12.244,10.043 C 12.199,10.135 12.237,10.249 12.329,10.294 C 12.421,10.339 12.535,10.301 12.58,10.209 C 12.854,9.563 13.53,9.02 14.085,8.625 C 14.447,8.369 14.826,8.109 15.17,7.831 C 15.289,7.735 15.401,7.619 15.519,7.527 C 15.621,7.43 15.624,7.267 15.527,7.165 C 15.43,7.063 15.267,7.061 15.166,7.157 C 14.979,7.341 14.8,7.507 14.598,7.675 Z M 10.76,8.085 L 10.733,8.092 L 10.708,8.106 L 10.689,8.126 L 10.67,8.15 L 10.654,8.175 L 10.635,8.198 L 10.614,8.216 L 10.592,8.23 L 10.576,8.253 L 10.563,8.284 L 10.546,8.308 L 10.525,8.322 L 10.521,8.37 L 10.523,8.426 L 10.502,8.442 C 10.447,8.472 10.425,8.544 10.455,8.6 C 10.486,8.656 10.558,8.677 10.614,8.647 L 10.638,8.637 C 10.665,8.657 10.696,8.675 10.726,8.691 C 10.764,8.664 10.808,8.696 10.838,8.685 C 10.904,8.662 11.014,8.671 11.049,8.626 C 11.017,8.547 10.985,8.469 10.954,8.39 C 10.979,8.377 10.989,8.344 10.976,8.319 C 10.963,8.293 10.93,8.284 10.905,8.296 L 10.76,8.085 Z M 20.601,8.982 C 20.979,9.353 21.286,9.721 21.572,10.128 C 21.558,10.166 21.559,10.209 21.579,10.248 C 21.593,10.309 21.609,10.37 21.631,10.429 C 21.112,9.574 20.428,8.84 19.654,8.215 C 19.988,8.438 20.305,8.692 20.601,8.982 Z M 17.406,10.168 C 17.187,10.405 16.976,10.669 16.746,10.894 C 16.611,11.026 16.472,11.155 16.341,11.291 C 16.139,11.502 15.946,11.71 15.733,11.911 C 15.571,12.064 15.403,12.195 15.237,12.34 C 15.166,12.398 15.155,12.504 15.213,12.576 C 15.27,12.647 15.377,12.658 15.448,12.6 C 15.848,12.261 16.286,11.953 16.677,11.603 C 16.843,11.453 17.007,11.28 17.167,11.123 C 17.362,10.933 17.571,10.753 17.77,10.567 C 18.057,10.299 18.323,10.007 18.613,9.737 C 18.721,9.631 18.723,9.455 18.617,9.346 C 18.51,9.238 18.334,9.236 18.226,9.342 C 17.954,9.603 17.661,9.891 17.406,10.168 Z M 18.775,11.742 C 18.303,12.213 17.883,12.744 17.458,13.26 C 17.32,13.428 17.167,13.594 17.017,13.752 C 16.908,13.866 16.779,13.968 16.672,14.081 C 16.591,14.155 16.586,14.283 16.66,14.364 C 16.734,14.445 16.862,14.45 16.943,14.376 C 17.036,14.275 17.167,14.169 17.269,14.071 C 17.432,13.916 17.608,13.729 17.756,13.559 C 18.321,12.917 19.002,12.119 19.759,11.688 C 19.893,11.596 19.927,11.411 19.835,11.278 C 19.743,11.144 19.558,11.11 19.425,11.201 C 19.198,11.373 18.978,11.539 18.775,11.742 Z M 24.678,13.561 C 24.576,13.668 24.475,13.774 24.374,13.882 L 24.192,13.785 L 24.229,13.804 C 24.16,13.563 24.088,13.324 24.01,13.087 C 24.234,13.242 24.456,13.401 24.678,13.561 Z M 11.672,13.569 L 11.759,13.598 L 11.832,13.713 C 11.812,13.714 11.793,13.715 11.773,13.716 L 11.688,13.71 L 11.648,13.665 C 11.598,13.608 11.551,13.551 11.505,13.494 C 11.558,13.521 11.614,13.547 11.672,13.569 Z M 25.813,14.397 C 26.294,14.75 26.772,15.117 27.245,15.494 C 26.79,15.207 26.33,14.931 25.865,14.667 L 25.018,14.221 L 25.023,14.223 C 25.099,14.141 25.175,14.061 25.25,13.98 C 25.438,14.119 25.626,14.258 25.813,14.397 Z M 23.45,14.8 C 23.42,14.829 23.389,14.858 23.358,14.887 C 23.369,14.749 23.376,14.613 23.379,14.479 C 23.403,14.585 23.428,14.693 23.45,14.8 Z M 27.765,16.211 C 28.682,16.848 29.575,17.513 30.45,18.198 C 30.491,18.235 30.533,18.271 30.574,18.307 C 30.497,18.253 30.42,18.198 30.343,18.145 C 28.654,16.964 26.968,15.774 25.241,14.65 C 25.234,14.621 25.224,14.595 25.212,14.569 C 26.086,15.073 26.942,15.638 27.765,16.211 Z M 25.432,15.896 C 24.622,16.49 23.807,17.068 22.984,17.649 C 22.391,18.067 21.783,18.47 21.199,18.899 C 20.866,19.143 20.543,19.402 20.215,19.651 C 20.135,19.71 20.119,19.826 20.179,19.906 C 20.238,19.986 20.354,20.002 20.434,19.942 C 20.775,19.683 21.123,19.451 21.468,19.201 C 21.95,18.852 22.446,18.518 22.939,18.185 C 23.458,17.834 23.974,17.471 24.496,17.128 C 24.945,16.834 25.376,16.506 25.807,16.185 C 26.114,16.422 26.42,16.658 26.725,16.895 C 25.258,18.035 23.831,19.221 22.32,20.304 C 22.277,20.335 22.267,20.395 22.297,20.438 C 22.328,20.481 22.388,20.491 22.431,20.461 C 23.298,19.826 24.19,19.223 25.048,18.576 C 25.696,18.088 26.329,17.579 26.976,17.09 C 27.409,17.428 27.841,17.766 28.273,18.107 C 28.213,18.097 28.15,18.11 28.099,18.15 C 26.989,19.049 25.896,19.967 24.827,20.917 C 24.597,21.122 24.379,21.346 24.154,21.559 C 23.978,21.727 23.795,21.889 23.618,22.056 C 23.571,22.098 23.567,22.17 23.609,22.217 C 23.651,22.264 23.724,22.268 23.771,22.226 C 24.231,21.814 24.715,21.44 25.18,21.037 C 25.936,20.381 26.688,19.76 27.486,19.158 C 27.776,18.939 28.073,18.714 28.374,18.513 C 28.457,18.449 28.485,18.337 28.448,18.244 C 28.932,18.628 29.416,19.015 29.896,19.405 C 29.75,19.516 29.605,19.635 29.472,19.746 C 29.008,20.128 28.574,20.523 28.131,20.93 C 27.808,21.228 27.491,21.534 27.169,21.833 C 27.056,21.938 26.948,22.048 26.833,22.15 C 26.488,22.452 26.149,22.76 25.802,23.062 C 25.745,23.111 25.739,23.199 25.788,23.256 C 25.837,23.314 25.924,23.32 25.982,23.271 C 26.168,23.106 26.363,22.951 26.547,22.785 C 26.92,22.447 27.293,22.109 27.666,21.769 C 28.48,21.025 29.291,20.277 30.193,19.645 C 30.539,19.927 30.884,20.211 31.227,20.496 C 31.238,20.506 31.251,20.516 31.264,20.526 C 31.088,20.67 30.912,20.813 30.738,20.96 C 30.513,21.148 30.291,21.367 30.079,21.571 C 28.972,22.636 27.905,23.742 26.832,24.84 C 26.785,24.887 26.786,24.964 26.833,25.011 C 26.88,25.058 26.957,25.057 27.004,25.01 C 27.325,24.676 27.659,24.347 27.993,24.024 C 28.369,23.662 28.737,23.29 29.121,22.935 C 29.616,22.477 30.117,22.03 30.631,21.593 C 30.942,21.327 31.266,21.058 31.591,20.8 C 32.147,21.265 32.7,21.733 33.251,22.202 C 32.983,22.425 32.722,22.649 32.459,22.885 C 31.793,23.482 31.158,24.123 30.522,24.751 C 30.201,25.068 29.871,25.397 29.538,25.7 C 29.291,25.925 29.039,26.143 28.789,26.365 C 28.634,26.502 28.483,26.65 28.33,26.792 C 28.186,26.926 28.023,27.049 27.869,27.174 C 27.818,27.214 27.809,27.292 27.849,27.343 C 27.889,27.395 27.966,27.404 28.018,27.364 C 28.313,27.13 28.621,26.919 28.921,26.693 C 29.047,26.598 29.175,26.477 29.295,26.371 C 29.566,26.134 29.831,25.891 30.097,25.648 C 30.949,24.871 31.793,24.078 32.661,23.32 C 32.974,23.045 33.281,22.766 33.604,22.505 C 33.728,22.611 33.852,22.717 33.976,22.824 C 34.363,23.156 34.745,23.5 35.126,23.841 C 34.689,24.16 34.264,24.473 33.838,24.81 C 33.134,25.364 32.442,25.933 31.738,26.488 C 31.379,26.77 31.006,27.038 30.637,27.305 C 30.305,27.546 29.948,27.762 29.597,27.974 C 29.502,28.032 29.47,28.157 29.528,28.253 C 29.586,28.349 29.711,28.38 29.806,28.322 C 30.026,28.178 30.26,28.047 30.481,27.902 C 31.01,27.556 31.553,27.172 32.046,26.781 C 32.535,26.394 33.035,26.017 33.527,25.634 C 34.136,25.16 34.764,24.671 35.412,24.251 C 35.446,24.226 35.472,24.196 35.49,24.162 C 35.882,24.51 36.269,24.866 36.653,25.226 C 36.436,25.365 36.222,25.51 36.012,25.66 C 34.523,26.721 33.119,28.021 32.059,29.516 C 32.005,29.589 32.022,29.694 32.095,29.747 C 32.168,29.801 32.273,29.785 32.327,29.711 C 33.479,28.057 35.202,26.611 37.005,25.557 C 37.221,25.76 37.436,25.964 37.652,26.168 C 37.879,26.382 38.105,26.6 38.329,26.819 C 37.691,27.283 37.119,27.831 36.546,28.373 C 36.221,28.679 35.915,29.011 35.603,29.33 C 34.776,30.174 33.977,31.043 33.129,31.861 C 33.076,31.91 33.073,31.995 33.122,32.048 C 33.171,32.101 33.256,32.104 33.308,32.055 C 33.409,31.954 33.521,31.861 33.628,31.767 C 33.823,31.593 34.013,31.412 34.209,31.239 C 34.485,30.996 34.755,30.683 35.016,30.42 C 36.171,29.256 37.29,28.044 38.664,27.15 C 38.801,27.286 38.937,27.423 39.072,27.559 C 39.367,27.859 39.666,28.158 39.955,28.467 C 39.89,28.384 39.772,28.373 39.692,28.437 C 38.982,29.015 38.344,29.678 37.699,30.328 C 37.175,30.856 36.653,31.388 36.13,31.919 C 35.927,32.126 35.704,32.319 35.488,32.513 C 35.396,32.595 35.292,32.67 35.199,32.752 C 35.153,32.79 35.147,32.861 35.185,32.907 C 35.223,32.954 35.293,32.96 35.34,32.922 C 35.53,32.756 35.732,32.6 35.924,32.436 C 36.241,32.166 36.54,31.876 36.847,31.597 C 36.963,31.492 37.083,31.384 37.19,31.271 C 37.408,31.044 37.638,30.822 37.859,30.598 C 38.515,29.937 39.19,29.3 39.932,28.738 C 40.013,28.674 40.027,28.556 39.961,28.473 C 40.219,28.735 40.246,28.764 40.273,28.793 C 40.574,29.117 40.888,29.435 41.193,29.757 C 41.12,29.819 41.047,29.881 40.976,29.942 C 40.441,30.395 39.96,30.905 39.509,31.443 C 39.369,31.611 39.228,31.778 39.086,31.945 C 38.874,32.195 38.663,32.471 38.465,32.733 C 38.009,33.333 37.55,33.932 37.091,34.53 C 37.055,34.576 37.063,34.644 37.109,34.679 C 37.155,34.715 37.223,34.707 37.259,34.661 C 38.362,33.231 39.475,31.876 40.841,30.688 C 41.067,30.49 41.286,30.292 41.517,30.102 C 41.839,30.452 42.16,30.808 42.475,31.164 C 42.121,31.429 41.777,31.717 41.441,31.994 C 41.328,32.088 41.22,32.194 41.111,32.294 C 40.839,32.543 40.583,32.794 40.321,33.054 C 40.011,33.362 39.679,33.704 39.402,34.04 C 39.23,34.249 39.05,34.452 38.879,34.662 C 38.696,34.887 38.523,35.129 38.343,35.358 C 38.279,35.441 38.294,35.561 38.377,35.625 C 38.46,35.688 38.58,35.674 38.644,35.591 C 38.823,35.354 39.005,35.116 39.191,34.885 C 39.356,34.678 39.539,34.482 39.709,34.28 C 40.063,33.862 40.473,33.484 40.863,33.101 C 41.202,32.768 41.58,32.453 41.947,32.151 C 42.217,31.929 42.492,31.711 42.772,31.501 C 43.113,31.884 43.463,32.262 43.809,32.643 C 43.86,32.699 43.911,32.756 43.962,32.813 C 43.459,33.281 42.957,33.749 42.476,34.24 C 41.461,35.269 40.477,36.314 39.531,37.407 C 39.465,37.481 39.472,37.595 39.546,37.661 C 39.621,37.726 39.735,37.719 39.8,37.645 C 40.534,36.802 41.295,36.009 42.089,35.224 C 42.419,34.898 42.765,34.591 43.102,34.273 C 43.379,34.012 43.671,33.76 43.958,33.511 C 44.073,33.411 44.191,33.306 44.311,33.203 C 44.329,33.222 44.346,33.242 44.364,33.261 C 44.626,33.545 44.882,33.837 45.133,34.132 C 44.507,34.712 43.895,35.314 43.282,35.901 C 42.437,36.707 41.589,37.493 40.714,38.264 C 40.636,38.333 40.629,38.452 40.697,38.529 C 40.765,38.606 40.885,38.614 40.962,38.546 C 41.371,38.184 41.78,37.825 42.188,37.461 C 43.282,36.484 44.353,35.483 45.459,34.517 C 45.53,34.602 45.602,34.688 45.674,34.774 C 45.33,35.151 44.984,35.526 44.627,35.886 C 44.109,36.404 43.601,36.935 43.073,37.443 C 41.935,38.536 40.759,39.622 39.539,40.622 C 38.737,41.281 37.925,41.949 37.085,42.559 C 36.324,43.111 35.567,43.65 34.783,44.17 C 34.311,44.485 33.822,44.801 33.334,45.091 C 33.295,45.113 33.258,45.135 33.22,45.159 C 33.426,44.833 33.709,44.579 34.007,44.326 C 34.137,44.214 34.25,44.066 34.378,43.958 C 34.45,43.885 34.449,43.765 34.376,43.693 C 34.303,43.62 34.183,43.621 34.11,43.695 C 34.057,43.74 34.011,43.8 33.959,43.848 C 33.841,43.957 33.733,44.081 33.618,44.192 C 33.475,44.328 33.342,44.47 33.204,44.61 C 33.141,44.673 33.056,44.754 33.004,44.823 C 32.976,44.858 32.945,44.897 32.913,44.937 C 32.835,44.851 32.737,44.751 32.584,44.61 C 32.49,44.482 32.384,44.372 32.279,44.266 C 32.175,44.162 32.07,44.062 31.96,43.964 C 31.915,43.907 31.868,43.854 31.821,43.803 C 32.117,43.532 32.457,43.259 32.782,43.023 C 32.909,42.93 33.174,42.716 33.313,42.66 C 33.397,42.608 33.423,42.497 33.371,42.413 C 33.319,42.329 33.208,42.304 33.124,42.355 C 33.078,42.375 33.028,42.425 32.985,42.452 C 32.752,42.599 32.514,42.842 32.296,43.016 C 32.104,43.17 31.914,43.352 31.731,43.518 C 31.702,43.542 31.664,43.576 31.622,43.613 C 31.62,43.612 31.618,43.61 31.616,43.608 C 31.432,43.44 31.246,43.275 31.075,43.118 C 30.941,42.989 30.809,42.862 30.677,42.735 C 31.136,42.327 31.635,41.967 32.147,41.617 C 32.221,41.562 32.236,41.456 32.181,41.381 C 32.126,41.307 32.02,41.293 31.946,41.347 C 31.512,41.682 31.069,42.033 30.665,42.403 C 30.607,42.455 30.551,42.508 30.496,42.561 C 30.291,42.363 30.09,42.166 29.891,41.967 C 29.792,41.866 29.692,41.767 29.599,41.674 C 29.635,41.648 29.671,41.623 29.704,41.599 C 29.777,41.547 29.859,41.458 29.927,41.396 C 30.101,41.237 30.268,41.067 30.447,40.912 C 30.602,40.778 31.056,40.382 31.261,40.328 C 31.352,40.278 31.383,40.16 31.332,40.07 C 31.281,39.979 31.164,39.947 31.073,39.998 C 30.872,40.107 30.631,40.32 30.471,40.484 C 30.373,40.583 30.267,40.677 30.17,40.777 C 29.989,40.962 29.786,41.169 29.59,41.336 C 29.534,41.381 29.486,41.433 29.436,41.484 C 29.056,41.033 28.677,40.584 28.298,40.136 C 28.507,39.981 28.726,39.836 28.93,39.689 C 29.067,39.589 29.211,39.483 29.336,39.37 C 29.387,39.323 29.437,39.261 29.492,39.22 C 29.537,39.175 29.536,39.1 29.491,39.055 C 29.446,39.01 29.371,39.011 29.326,39.056 C 29.064,39.329 28.812,39.533 28.513,39.763 C 28.408,39.843 28.297,39.924 28.189,40.007 C 27.888,39.651 27.587,39.297 27.287,38.941 C 27.385,38.863 27.486,38.79 27.577,38.722 C 27.749,38.592 27.93,38.47 28.097,38.332 C 28.246,38.208 28.378,38.073 28.509,37.93 C 28.57,37.861 28.564,37.753 28.494,37.693 C 28.425,37.632 28.318,37.638 28.257,37.708 C 28.197,37.771 28.145,37.847 28.086,37.912 C 27.919,38.095 27.702,38.266 27.508,38.421 C 27.388,38.516 27.247,38.622 27.112,38.736 C 27.08,38.698 27.048,38.66 27.016,38.622 C 26.737,38.294 26.461,37.964 26.184,37.635 C 26.331,37.515 26.486,37.411 26.672,37.321 C 26.727,37.293 26.788,37.258 26.846,37.238 C 26.929,37.198 26.963,37.095 26.923,37.012 C 26.883,36.929 26.78,36.895 26.697,36.935 C 26.424,37.068 26.202,37.198 25.971,37.38 C 25.828,37.208 25.683,37.036 25.541,36.864 C 25.392,36.686 25.247,36.506 25.099,36.327 C 25.219,36.255 25.33,36.172 25.42,36.072 C 25.526,35.955 25.802,35.616 25.948,35.543 C 25.985,35.513 25.991,35.456 25.961,35.419 C 25.93,35.382 25.874,35.376 25.837,35.406 C 25.585,35.57 25.419,35.901 25.187,36.078 C 25.123,36.125 25.064,36.169 25.001,36.209 C 24.958,36.158 24.916,36.108 24.873,36.058 C 24.532,35.658 24.192,35.26 23.853,34.86 C 24.044,34.683 24.228,34.525 24.475,34.402 C 24.53,34.376 24.553,34.309 24.527,34.254 C 24.5,34.2 24.434,34.176 24.379,34.203 C 24.209,34.257 24.004,34.467 23.868,34.58 C 23.821,34.618 23.773,34.664 23.727,34.712 C 23.281,34.185 22.838,33.657 22.398,33.125 C 22.455,33.079 22.511,33.034 22.569,32.992 C 22.676,32.914 23.01,32.638 23.14,32.61 C 23.175,32.593 23.19,32.548 23.174,32.513 C 23.157,32.478 23.112,32.462 23.077,32.479 C 22.952,32.514 22.633,32.78 22.533,32.864 C 22.466,32.92 22.396,32.978 22.326,33.037 C 22.255,32.951 22.184,32.865 22.114,32.779 C 21.799,32.397 21.491,32.01 21.185,31.621 C 21.245,31.574 21.306,31.527 21.367,31.482 C 21.552,31.34 22.049,30.947 22.275,30.891 C 22.333,30.867 22.359,30.798 22.335,30.74 C 22.31,30.682 22.241,30.656 22.183,30.68 C 21.774,30.882 21.421,31.177 21.068,31.472 C 20.695,30.996 20.328,30.515 19.964,30.034 C 20.208,29.822 20.434,29.576 20.658,29.348 C 20.803,29.2 21.167,28.903 21.393,28.892 C 21.479,28.868 21.531,28.777 21.507,28.691 C 21.484,28.605 21.393,28.554 21.307,28.577 C 20.756,28.708 20.311,29.262 19.932,29.654 C 19.896,29.689 19.843,29.744 19.785,29.797 C 19.181,28.996 18.602,28.181 18.042,27.351 C 18.427,26.948 18.792,26.642 19.248,26.312 C 19.481,26.142 19.76,25.994 20.009,25.844 C 20.133,25.77 20.252,25.677 20.376,25.607 C 20.429,25.578 20.448,25.512 20.42,25.459 C 20.392,25.406 20.325,25.387 20.273,25.415 C 19.654,25.675 19.12,26.025 18.607,26.456 C 18.475,26.567 18.33,26.69 18.213,26.817 C 18.115,26.924 17.994,27.023 17.898,27.134 C 17.61,26.704 17.326,26.268 17.049,25.83 C 17.16,25.738 17.268,25.641 17.366,25.547 C 17.534,25.384 17.711,25.226 17.877,25.061 C 18.211,24.727 18.629,24.363 19.072,24.185 C 19.148,24.149 19.181,24.055 19.145,23.979 C 19.109,23.903 19.015,23.87 18.939,23.906 C 18.582,24.061 18.303,24.306 18.018,24.567 C 17.753,24.81 17.498,25.078 17.246,25.334 C 17.143,25.439 17.035,25.538 16.924,25.633 C 16.703,25.282 16.485,24.929 16.27,24.574 C 16.219,24.49 16.169,24.406 16.119,24.322 C 16.326,24.151 16.532,23.981 16.737,23.809 C 17.115,23.492 17.533,23.145 17.942,22.867 C 18.018,22.807 18.033,22.695 17.973,22.619 C 17.913,22.542 17.801,22.528 17.725,22.587 C 17.64,22.649 17.562,22.721 17.48,22.787 C 17.173,23.035 16.881,23.302 16.585,23.563 C 16.384,23.739 16.184,23.916 15.984,24.092 C 15.68,23.566 15.392,23.033 15.11,22.497 C 15.137,22.477 15.164,22.456 15.188,22.441 C 15.303,22.362 15.428,22.27 15.552,22.193 C 15.565,22.215 15.587,22.232 15.613,22.238 C 15.842,22.288 15.985,22.31 16.219,22.28 C 16.545,22.238 16.877,21.985 17.153,21.817 C 17.311,21.72 17.463,21.635 17.634,21.562 C 17.718,21.511 17.744,21.398 17.694,21.314 C 17.643,21.23 17.531,21.204 17.447,21.255 C 16.868,21.684 16.494,22.205 15.744,22.063 C 15.818,21.997 15.889,21.917 15.954,21.854 L 15.956,21.851 C 16.02,21.96 16.12,21.954 16.201,21.902 C 18.2,20.559 20.241,19.281 22.135,17.791 C 22.693,17.352 23.234,16.894 23.758,16.415 C 23.892,16.292 24.042,16.163 24.172,16.032 C 24.19,16.03 24.207,16.027 24.225,16.024 C 24.428,15.981 24.578,15.824 24.583,15.621 C 24.598,15.608 24.612,15.594 24.626,15.58 C 24.683,15.523 24.74,15.465 24.795,15.407 C 25.007,15.57 25.219,15.733 25.432,15.896 Z M 14.961,22.091 C 14.948,22.109 14.936,22.126 14.923,22.144 C 14.91,22.117 14.896,22.091 14.882,22.065 C 14.907,22.077 14.933,22.086 14.961,22.091 Z M 15.373,25.592 C 15.763,26.072 16.15,26.556 16.534,27.044 C 17.501,28.524 18.507,29.981 19.552,31.407 C 19.579,31.448 19.606,31.489 19.635,31.531 C 20.068,32.181 20.56,32.827 21.044,33.44 C 21.367,33.847 21.71,34.298 22.072,34.669 C 22.09,34.687 22.109,34.707 22.129,34.72 C 22.718,35.501 23.342,36.249 23.949,36.961 C 23.363,36.312 22.76,35.626 22.166,34.933 C 19.526,31.854 17.011,28.623 14.976,25.107 C 15.108,25.269 15.241,25.43 15.373,25.592 Z M 48.154,27.495 C 47.972,27.678 47.793,27.864 47.612,28.049 C 47.227,28.44 46.833,28.824 46.449,29.217 C 46.392,29.274 46.392,29.367 46.449,29.424 L 46.656,29.424 C 47.277,28.789 47.913,28.159 48.55,27.538 C 48.968,27.618 49.342,27.803 49.718,28.064 C 49.713,28.067 49.708,28.071 49.704,28.076 C 49.582,28.181 49.47,28.303 49.349,28.409 C 49.21,28.53 49.067,28.649 48.924,28.765 C 48.546,29.069 48.166,29.365 47.794,29.677 C 47.589,29.849 47.344,30.036 47.165,30.233 C 46.982,30.433 46.828,30.621 46.661,30.833 C 46.607,30.901 46.564,30.983 46.514,31.053 C 46.5,31.074 46.506,31.103 46.527,31.117 C 46.547,31.131 46.577,31.125 46.59,31.104 C 46.759,30.782 47.153,30.453 47.423,30.208 C 48.193,29.508 49.119,28.966 49.847,28.221 C 49.858,28.209 49.867,28.195 49.871,28.181 C 49.88,28.188 49.89,28.197 49.9,28.206 C 49.957,28.342 49.994,28.48 50.001,28.615 C 50.004,28.686 50.016,28.753 50.01,28.826 C 50.002,28.93 49.95,29.145 49.884,29.225 C 49.861,29.254 49.841,29.303 49.815,29.326 C 49.787,29.35 49.767,29.384 49.742,29.408 C 49.712,29.439 49.66,29.476 49.625,29.505 C 49.528,29.586 49.39,29.624 49.284,29.687 C 49.1,29.774 49.021,29.996 49.108,30.18 C 49.194,30.365 49.416,30.444 49.601,30.357 C 49.825,30.253 50.123,30.089 50.283,29.9 C 50.322,29.853 50.367,29.809 50.407,29.762 C 50.489,29.663 50.547,29.538 50.601,29.42 C 50.604,29.449 50.605,29.475 50.605,29.501 C 50.604,29.532 50.609,29.565 50.611,29.595 C 50.618,29.73 50.562,29.983 50.507,30.107 L 50.47,30.188 L 50.328,30.313 L 50.234,30.399 L 50.128,30.365 C 50.064,30.357 49.998,30.361 49.933,30.38 L 49.844,30.406 L 49.812,30.404 C 49.737,30.405 49.664,30.413 49.595,30.427 C 49.529,30.441 49.464,30.474 49.396,30.489 C 49.264,30.517 49.141,30.572 49.027,30.642 C 49.027,30.607 49.027,30.571 49.029,30.536 C 49.036,30.381 48.916,30.248 48.762,30.241 C 48.607,30.234 48.474,30.354 48.467,30.508 C 48.448,30.719 48.344,31.249 48.407,31.427 C 48.423,31.472 48.446,31.51 48.479,31.545 C 48.504,31.571 48.555,31.605 48.614,31.643 C 48.583,31.682 48.552,31.719 48.52,31.757 C 48.358,31.566 48.22,31.355 48.113,31.12 C 47.968,30.799 47.922,30.528 47.885,30.183 C 47.876,30.079 47.783,30.001 47.678,30.01 C 47.574,30.019 47.497,30.112 47.506,30.216 C 47.537,30.939 47.835,31.55 48.275,32.058 C 48.168,32.191 48.062,32.326 47.958,32.463 C 47.788,32.682 47.618,32.912 47.443,33.133 C 47.125,32.718 46.787,32.318 46.446,31.921 C 46.161,31.589 45.874,31.261 45.582,30.935 C 45.556,30.694 45.55,30.458 45.569,30.236 C 45.586,30.048 45.614,29.885 45.645,29.701 C 45.679,29.491 45.791,29.17 45.894,28.984 C 46.016,28.761 46.118,28.603 46.259,28.431 L 46.396,28.274 L 46.573,28.096 C 46.631,28.033 46.693,27.973 46.765,27.926 C 46.821,27.889 46.88,27.838 46.938,27.806 C 47.257,27.635 47.533,27.522 47.9,27.5 C 47.987,27.494 48.072,27.493 48.154,27.495 Z M 45.005,29.455 C 44.971,29.741 44.962,30.008 44.976,30.269 C 44.93,30.22 44.884,30.17 44.838,30.122 C 44.8,30.081 44.763,30.041 44.725,30.002 C 44.801,29.685 44.922,29.375 45.071,29.086 C 45.042,29.209 45.019,29.336 45.005,29.455 Z M 44.569,32.423 C 44.546,32.417 44.52,32.414 44.496,32.414 C 44.334,32.184 44.168,31.955 43.998,31.727 C 43.816,31.484 43.629,31.249 43.427,31.029 C 43.425,31.031 43.423,31.032 43.421,31.033 C 43.816,31.487 44.189,31.958 44.569,32.423 Z M 49.008,31.864 C 49.348,32.05 49.687,32.233 50.037,32.398 C 50.07,32.412 50.103,32.428 50.135,32.442 C 50.039,32.543 49.944,32.644 49.845,32.742 C 49.438,32.535 49.051,32.288 48.73,31.978 C 48.784,31.919 48.839,31.86 48.895,31.803 C 48.94,31.827 48.98,31.849 49.008,31.864 Z M 49.501,33.059 C 49.249,33.287 48.997,33.516 48.749,33.75 C 48.562,33.924 48.373,34.096 48.201,34.287 C 48.201,34.286 48.197,34.279 48.193,34.273 C 48.196,34.262 48.19,34.254 48.183,34.249 C 48.182,34.247 48.18,34.245 48.177,34.246 C 48.053,33.991 47.897,33.755 47.735,33.528 C 47.684,33.456 47.633,33.386 47.581,33.316 C 47.672,33.207 47.765,33.1 47.854,32.993 C 48.017,32.797 48.181,32.599 48.349,32.407 C 48.389,32.36 48.43,32.314 48.471,32.268 C 48.773,32.571 49.128,32.834 49.501,33.059 Z M 51,32.815 C 51.327,32.951 51.675,33.071 52.012,33.181 C 52.953,33.49 53.908,33.735 54.878,33.938 C 56.265,34.228 57.638,34.521 59.003,34.898 L 60.005,35.211 L 62.056,36.058 C 62.157,36.106 62.257,36.155 62.35,36.215 C 61.861,35.966 61.339,35.776 60.814,35.596 C 60.314,35.424 59.816,35.246 59.314,35.074 C 59.073,34.991 58.793,34.878 58.544,34.816 C 58.182,34.727 57.831,34.617 57.462,34.547 C 57.124,34.482 56.788,34.411 56.449,34.351 C 55.773,34.232 55.095,34.125 54.418,34.01 C 53.869,33.917 53.331,33.813 52.786,33.701 C 52.181,33.576 51.514,33.42 50.933,33.205 C 50.655,33.102 50.368,32.989 50.086,32.86 C 50.118,32.828 50.149,32.798 50.179,32.768 C 50.247,32.698 50.314,32.623 50.384,32.554 C 50.588,32.643 50.793,32.728 51,32.815 Z M 45.288,33.269 C 45.407,33.402 45.527,33.534 45.649,33.665 L 45.647,33.668 C 45.578,33.728 45.511,33.789 45.442,33.849 C 45.222,33.493 44.994,33.14 44.757,32.792 C 44.772,32.754 44.778,32.713 44.776,32.673 C 44.943,32.874 45.113,33.074 45.288,33.269 Z M 49.896,33.28 C 50.793,33.745 51.719,34.03 52.687,34.304 C 53.724,34.598 54.795,34.8 55.851,35.017 C 56.572,35.166 57.314,35.295 58.025,35.488 C 58.249,35.549 58.462,35.62 58.682,35.688 C 59.58,36.004 60.481,36.314 61.369,36.657 C 62.107,36.944 62.81,37.238 63.517,37.597 C 63.776,37.729 64.046,37.87 64.293,38.021 C 64.759,38.307 65.219,38.598 65.649,38.938 L 66.475,39.641 L 67.487,40.713 C 67.58,40.831 67.683,40.944 67.777,41.063 C 67.963,41.299 68.147,41.539 68.326,41.781 C 69.522,43.401 70.487,45.217 71.273,47.068 C 71.485,47.567 71.672,48.086 71.843,48.601 C 72.303,49.987 72.655,51.47 72.729,52.932 C 72.765,53.632 72.724,54.31 72.62,55.001 C 72.586,55.229 72.516,55.455 72.477,55.679 C 72.456,55.804 72.449,55.928 72.443,56.054 C 72.394,56.224 72.479,56.402 72.634,56.476 C 72.634,56.521 72.634,56.566 72.634,56.612 C 72.522,57.343 72.392,58.071 72.253,58.797 C 72.158,59.287 72.044,59.771 71.94,60.259 C 71.87,60.585 71.789,60.913 71.705,61.241 L 71.609,61.593 L 71.424,62.199 C 71.302,62.581 71.17,62.959 71.047,63.34 C 70.961,63.602 70.869,63.864 70.776,64.126 C 70.739,63.819 70.679,63.511 70.619,63.216 C 70.527,62.766 70.363,62.293 70.187,61.87 C 70.128,61.727 70.057,61.588 69.994,61.446 C 69.964,61.381 69.917,61.331 69.861,61.297 C 69.866,61.277 69.871,61.256 69.876,61.236 C 69.951,61.17 70.037,61.098 70.059,61.034 L 69.943,60.826 L 69.958,60.852 C 69.985,60.71 70.008,60.569 70.023,60.431 C 70.03,60.362 70.022,60.304 69.976,60.268 C 69.992,60.249 69.997,60.24 69.999,60.236 L 69.996,60.191 C 70.096,60.073 70.08,59.893 69.962,59.794 C 69.861,59.709 69.716,59.707 69.614,59.781 C 69.611,59.778 69.609,59.776 69.604,59.77 C 69.666,59.629 69.609,59.471 69.479,59.384 C 69.392,59.327 69.291,59.311 69.197,59.332 C 69.13,59.259 69.063,59.186 68.997,59.113 C 68.811,58.909 68.622,58.71 68.433,58.512 C 68.577,58.54 68.731,58.502 68.846,58.396 C 68.992,58.259 69.032,58.051 68.963,57.876 C 69.03,57.823 69.098,57.766 69.139,57.725 C 69.207,57.656 69.281,57.595 69.35,57.528 C 69.574,57.315 69.795,57.074 70.035,56.881 C 70.191,56.756 70.345,56.656 70.513,56.549 C 70.579,56.507 70.599,56.417 70.557,56.35 C 70.515,56.284 70.425,56.264 70.358,56.306 C 69.819,56.618 69.418,57.143 68.97,57.57 C 68.925,57.612 68.881,57.651 68.836,57.688 C 68.647,57.458 68.459,57.23 68.265,57.006 C 68.431,56.746 68.698,56.529 68.942,56.352 C 69.103,56.235 69.26,56.11 69.421,55.993 C 69.562,55.889 69.905,55.607 70,55.451 C 70.022,55.414 70.056,55.375 70.081,55.338 C 70.11,55.295 70.131,55.24 70.162,55.198 C 70.211,55.107 70.176,54.992 70.085,54.943 C 69.994,54.894 69.879,54.929 69.83,55.02 C 69.735,55.231 69.578,55.415 69.404,55.567 C 69.26,55.692 69.121,55.812 68.973,55.933 C 68.813,56.064 68.643,56.192 68.483,56.33 C 68.514,56.214 68.541,56.096 68.568,55.979 C 68.637,55.68 68.678,55.37 68.696,55.056 C 68.724,55.05 68.75,55.032 68.763,55.005 C 68.799,54.833 69.122,54.63 69.244,54.521 C 69.378,54.402 69.498,54.312 69.592,54.152 C 69.624,54.098 69.638,54.025 69.663,53.97 C 69.681,53.911 69.648,53.848 69.59,53.83 C 69.531,53.813 69.468,53.845 69.45,53.903 C 69.429,53.948 69.425,53.995 69.401,54.042 C 69.322,54.197 69.182,54.313 69.049,54.419 C 68.961,54.489 68.812,54.609 68.707,54.731 C 68.711,54.185 68.652,53.633 68.559,53.114 C 68.553,53.086 68.548,53.058 68.543,53.03 C 68.731,52.889 68.927,52.766 69.049,52.673 C 69.151,52.592 69.26,52.485 69.325,52.371 C 69.346,52.333 69.373,52.259 69.393,52.231 C 69.422,52.16 69.387,52.077 69.316,52.048 C 69.245,52.02 69.162,52.054 69.133,52.126 C 69.11,52.172 69.091,52.254 69.055,52.294 C 69.011,52.342 68.974,52.394 68.925,52.442 C 68.876,52.491 68.811,52.538 68.757,52.584 C 68.668,52.659 68.58,52.725 68.494,52.789 C 68.401,52.358 68.279,51.932 68.132,51.511 C 68.327,51.286 68.629,51.048 68.836,50.894 C 69.089,50.703 69.358,50.513 69.591,50.298 C 69.666,50.229 69.734,50.148 69.808,50.078 C 69.862,50.021 69.858,49.929 69.801,49.875 C 69.743,49.821 69.651,49.825 69.597,49.883 C 69.448,50.037 69.328,50.196 69.156,50.333 C 69,50.457 68.85,50.591 68.695,50.717 C 68.467,50.901 68.25,51.088 68.056,51.3 C 68.007,51.167 67.955,51.034 67.903,50.904 C 67.884,50.826 67.865,50.748 67.845,50.671 C 67.779,50.416 67.703,50.167 67.62,49.924 C 67.762,49.717 67.951,49.589 68.2,49.422 C 68.283,49.366 68.388,49.304 68.464,49.242 C 68.515,49.201 68.596,49.145 68.639,49.101 C 68.696,49.044 68.75,48.984 68.808,48.927 C 68.874,48.856 68.868,48.743 68.796,48.677 C 68.725,48.612 68.612,48.618 68.546,48.689 C 68.452,48.793 68.37,48.901 68.255,48.987 C 68.038,49.149 67.733,49.36 67.507,49.607 C 67.342,49.172 67.151,48.752 66.935,48.347 C 66.996,48.261 67.057,48.174 67.115,48.097 C 67.163,48.034 67.444,47.632 67.5,47.598 C 67.56,47.52 67.545,47.407 67.467,47.348 C 67.389,47.288 67.277,47.303 67.217,47.381 C 67.128,47.493 67.04,47.657 66.966,47.785 C 66.908,47.882 66.846,47.979 66.784,48.076 C 66.551,47.665 66.292,47.271 66.013,46.893 C 66.037,46.87 66.058,46.852 66.076,46.838 C 66.194,46.737 66.308,46.619 66.435,46.53 C 66.484,46.497 66.536,46.467 66.582,46.436 C 66.604,46.421 66.634,46.421 66.654,46.412 C 66.706,46.396 66.736,46.341 66.721,46.289 C 66.705,46.237 66.649,46.207 66.598,46.223 C 66.427,46.252 66.113,46.574 65.921,46.77 C 65.665,46.432 65.393,46.106 65.106,45.792 C 65.109,45.79 65.111,45.788 65.114,45.786 C 65.301,45.623 65.575,45.351 65.803,45.257 C 65.865,45.226 65.89,45.15 65.859,45.089 C 65.828,45.027 65.752,45.002 65.69,45.033 C 65.559,45.073 65.272,45.367 65.172,45.46 C 65.107,45.52 65.041,45.584 64.974,45.649 C 64.468,45.107 63.918,44.598 63.341,44.119 C 63.462,44.04 63.586,43.966 63.71,43.895 C 63.921,43.772 64.15,43.646 64.351,43.51 C 64.535,43.386 64.692,43.255 64.864,43.117 C 64.958,43.039 64.969,42.898 64.891,42.805 C 64.813,42.711 64.672,42.699 64.579,42.777 C 64.501,42.837 64.43,42.909 64.353,42.968 C 64.046,43.202 63.678,43.42 63.349,43.626 C 63.258,43.682 63.136,43.761 63.01,43.851 C 62.812,43.694 62.613,43.54 62.411,43.39 C 62.305,43.287 62.198,43.186 62.09,43.085 C 61.993,42.995 61.896,42.906 61.799,42.819 C 62.023,42.6 62.248,42.381 62.475,42.167 C 62.529,42.113 62.529,42.023 62.475,41.969 L 62.278,41.969 C 62.057,42.198 61.836,42.425 61.613,42.651 C 61.149,42.237 60.679,41.842 60.194,41.45 C 60.309,41.354 60.423,41.267 60.488,41.215 C 60.752,41 61.168,40.708 61.369,40.43 C 61.419,40.361 61.448,40.294 61.492,40.23 C 61.528,40.153 61.495,40.059 61.418,40.023 C 61.34,39.987 61.247,40.02 61.21,40.097 C 61.184,40.147 61.151,40.241 61.112,40.279 C 61.088,40.301 61.067,40.339 61.045,40.364 C 60.965,40.457 60.881,40.541 60.791,40.628 C 60.603,40.81 60.399,40.972 60.204,41.146 C 60.152,41.193 60.085,41.248 60.016,41.307 C 59.989,41.286 59.963,41.264 59.937,41.244 C 59.536,40.925 59.095,40.595 58.659,40.305 C 58.755,40.212 58.851,40.122 58.95,40.034 C 59.412,39.615 59.989,39.129 60.561,38.863 C 60.652,38.814 60.686,38.7 60.637,38.609 C 60.588,38.518 60.474,38.484 60.383,38.533 C 59.839,38.819 59.297,39.346 58.853,39.767 C 58.718,39.895 58.58,40.029 58.447,40.166 C 57.95,39.848 57.471,39.549 56.97,39.276 C 57.007,39.248 57.044,39.22 57.081,39.192 C 57.265,39.051 57.456,38.916 57.641,38.776 C 57.829,38.635 58.008,38.483 58.194,38.339 C 58.238,38.302 58.244,38.236 58.208,38.192 C 58.172,38.148 58.105,38.142 58.061,38.178 C 57.862,38.335 57.676,38.512 57.472,38.665 C 57.249,38.832 57.019,39.004 56.791,39.182 C 56.569,39.065 56.34,38.954 56.104,38.85 C 55.724,38.681 55.332,38.543 54.935,38.422 C 55.028,38.334 55.12,38.245 55.213,38.157 C 55.552,37.83 55.907,37.458 56.315,37.221 C 56.389,37.171 56.407,37.069 56.358,36.995 C 56.308,36.92 56.205,36.902 56.131,36.952 C 55.912,37.074 55.609,37.362 55.429,37.532 C 55.15,37.792 54.902,38.064 54.648,38.338 C 54.197,38.209 53.74,38.096 53.285,37.983 C 52.944,37.897 52.602,37.813 52.261,37.724 C 52.243,37.719 52.227,37.714 52.21,37.711 C 52.151,37.681 52.093,37.652 52.035,37.624 C 51.694,37.452 51.36,37.278 51.033,37.098 C 51.51,36.685 52.032,36.297 52.538,35.933 C 52.629,35.864 52.647,35.733 52.578,35.643 C 52.51,35.552 52.379,35.534 52.288,35.603 C 52.028,35.799 51.768,36.002 51.515,36.207 C 51.236,36.433 50.953,36.657 50.697,36.91 C 50.205,36.631 49.727,36.336 49.26,36.017 C 49.3,35.996 49.34,35.975 49.381,35.952 C 49.719,35.759 49.946,35.541 50.227,35.278 C 50.562,34.966 50.912,34.508 51.343,34.323 C 51.435,34.267 51.464,34.145 51.408,34.053 C 51.352,33.961 51.23,33.933 51.138,33.989 C 50.647,34.274 50.292,34.816 49.909,35.224 C 49.693,35.454 49.511,35.587 49.254,35.764 C 49.203,35.798 49.147,35.826 49.087,35.853 C 49.082,35.838 49.076,35.825 49.068,35.813 C 48.946,35.598 48.842,35.355 48.724,35.135 C 48.645,34.988 48.563,34.842 48.298,34.432 C 48.672,34.076 49.086,33.756 49.471,33.415 C 49.554,33.34 49.641,33.265 49.727,33.189 C 49.783,33.22 49.839,33.25 49.896,33.28 Z M 46.715,33.643 C 46.764,33.703 46.814,33.762 46.864,33.823 C 46.859,33.828 46.853,33.833 46.848,33.839 C 46.733,33.712 46.618,33.584 46.502,33.457 C 46.449,33.371 46.396,33.282 46.344,33.193 C 46.469,33.342 46.592,33.493 46.715,33.643 Z M 47.423,34.467 C 47.422,34.469 47.42,34.471 47.419,34.473 C 47.277,34.315 47.135,34.159 46.994,34.001 C 46.998,33.997 47.001,33.993 47.005,33.989 C 47.143,34.149 47.283,34.308 47.423,34.467 Z M 46.174,34.226 C 46.073,34.337 45.971,34.448 45.869,34.559 C 45.818,34.47 45.766,34.383 45.714,34.296 C 45.806,34.215 45.899,34.136 45.992,34.057 C 45.996,34.053 46,34.049 46.003,34.045 C 46.06,34.106 46.116,34.166 46.174,34.226 Z M 46.909,34.995 C 45.815,36.106 44.694,37.176 43.542,38.232 C 43.05,38.681 42.555,39.132 42.053,39.568 C 40.949,40.528 39.85,41.489 38.741,42.442 C 37.228,43.743 35.707,45.038 34.226,46.374 C 34.018,46.56 33.817,46.757 33.617,46.951 C 33.487,46.825 33.359,46.699 33.231,46.574 C 33.225,46.561 33.218,46.549 33.211,46.539 C 33.14,46.379 33.073,46.221 33.001,46.064 C 33.034,46.046 33.068,46.027 33.101,46.01 C 33.412,46.199 33.728,46.377 34.036,46.552 C 33.956,46.318 33.8,46.127 33.657,45.93 C 33.621,45.881 33.585,45.832 33.549,45.782 C 33.594,45.806 33.637,45.831 33.68,45.855 C 33.664,45.814 33.637,45.773 33.606,45.733 C 33.652,45.707 33.696,45.68 33.741,45.654 C 34.377,45.255 35.007,44.85 35.638,44.443 C 35.765,44.361 35.887,44.27 36.013,44.186 C 36.504,43.86 36.985,43.519 37.466,43.177 C 39.973,41.393 42.364,39.37 44.563,37.218 C 45.085,36.707 45.591,36.18 46.093,35.649 C 46.16,35.577 46.229,35.504 46.295,35.431 L 46.297,35.431 C 46.305,35.425 46.311,35.417 46.316,35.408 C 46.477,35.233 46.637,35.055 46.798,34.88 C 46.834,34.918 46.872,34.956 46.909,34.995 Z M 50.116,38.315 C 50.086,38.326 50.058,38.341 50.033,38.36 C 49.868,38.476 49.829,38.705 49.946,38.869 C 50.271,39.314 50.586,39.774 50.907,40.224 C 51.308,40.789 51.735,41.346 52.158,41.895 C 52.248,42.011 52.337,42.129 52.428,42.244 C 52.321,42.341 52.219,42.441 52.113,42.542 C 51.541,43.079 51.039,43.685 50.535,44.285 C 49.985,44.939 49.451,45.61 48.904,46.268 C 48.586,46.65 48.232,47.006 47.893,47.37 C 47.828,47.439 47.83,47.548 47.898,47.614 C 47.967,47.679 48.076,47.677 48.141,47.609 C 48.371,47.36 48.613,47.118 48.844,46.869 C 49.036,46.661 49.222,46.445 49.413,46.235 C 50.106,45.475 50.748,44.667 51.47,43.932 C 51.732,43.664 52,43.413 52.272,43.156 C 52.44,42.997 52.625,42.853 52.804,42.705 C 53.347,43.344 53.902,43.973 54.465,44.594 C 53.182,45.426 52.154,46.593 51.132,47.72 C 50.842,48.039 50.538,48.341 50.237,48.647 C 50.087,48.799 49.921,48.935 49.773,49.087 C 49.684,49.169 49.679,49.308 49.761,49.397 C 49.843,49.486 49.983,49.491 50.072,49.409 C 50.624,48.906 51.136,48.37 51.659,47.835 C 51.985,47.502 52.305,47.154 52.644,46.834 C 52.968,46.528 53.276,46.215 53.621,45.933 C 53.787,45.8 53.945,45.651 54.115,45.523 C 54.352,45.344 54.591,45.168 54.841,45.005 C 55.24,45.439 55.643,45.87 56.051,46.298 C 55.445,46.79 54.877,47.324 54.324,47.882 C 53.309,48.906 52.358,49.959 51.403,51.037 C 51.34,51.109 51.347,51.22 51.419,51.284 C 51.49,51.347 51.601,51.339 51.665,51.268 C 52.17,50.679 52.706,50.102 53.249,49.548 C 54.248,48.529 55.299,47.56 56.429,46.691 C 56.8,47.077 57.174,47.46 57.55,47.84 C 57.411,47.958 57.276,48.081 57.149,48.204 C 56.933,48.411 56.71,48.609 56.505,48.828 C 56.093,49.265 55.696,49.704 55.294,50.152 C 55.069,50.402 54.836,50.656 54.621,50.914 C 54.391,51.191 54.164,51.489 53.923,51.754 C 53.732,51.965 53.536,52.17 53.343,52.379 C 53.292,52.431 53.293,52.516 53.346,52.567 C 53.399,52.618 53.484,52.617 53.535,52.564 C 54.044,52.018 54.602,51.512 55.101,50.953 C 55.518,50.487 55.932,50.019 56.362,49.565 C 56.61,49.305 56.871,49.063 57.126,48.811 C 57.35,48.589 57.605,48.373 57.862,48.167 C 58.14,48.486 58.418,48.804 58.696,49.123 C 58.532,49.288 58.374,49.466 58.21,49.632 C 57.796,50.048 57.37,50.454 56.954,50.869 C 56.169,51.655 55.284,52.569 54.771,53.568 C 54.73,53.642 54.756,53.735 54.829,53.776 C 54.902,53.817 54.996,53.792 55.037,53.719 C 55.151,53.517 55.279,53.269 55.422,53.088 C 55.498,52.99 55.568,52.885 55.644,52.786 C 55.77,52.623 55.908,52.466 56.043,52.309 C 56.258,52.059 56.502,51.83 56.735,51.595 C 57.085,51.242 57.467,50.886 57.839,50.555 C 58.115,50.31 58.374,50.034 58.638,49.776 C 58.751,49.666 58.853,49.543 58.965,49.431 C 59.818,50.409 60.675,51.388 61.543,52.356 C 61.41,52.495 61.281,52.637 61.149,52.777 C 60.878,53.062 60.596,53.342 60.319,53.621 C 59.478,54.468 58.621,55.317 57.965,56.318 C 57.906,56.407 57.929,56.53 58.018,56.59 C 58.107,56.649 58.23,56.626 58.29,56.537 C 58.944,55.547 59.797,54.728 60.661,53.918 C 61.075,53.53 61.485,53.139 61.886,52.739 C 62.358,53.262 62.834,53.781 63.314,54.295 C 62.884,54.734 62.46,55.178 62.029,55.616 C 61.291,56.364 60.571,57.115 59.894,57.92 C 59.828,57.996 59.837,58.113 59.913,58.178 C 59.989,58.243 60.106,58.235 60.171,58.158 C 60.853,57.322 61.658,56.532 62.432,55.781 C 62.829,55.395 63.22,55.002 63.615,54.617 C 63.738,54.747 63.86,54.877 63.978,55.004 C 64.605,55.777 65.229,56.542 65.848,57.311 C 65.55,57.56 65.254,57.811 64.96,58.061 C 64.061,58.826 63.123,59.628 62.457,60.614 C 62.304,60.841 62.172,61.063 62.037,61.3 C 61.977,61.406 62.014,61.543 62.121,61.603 C 62.227,61.662 62.364,61.625 62.424,61.519 C 63.149,60.139 64.39,59.156 65.584,58.2 C 65.782,58.04 65.983,57.884 66.182,57.725 C 66.541,58.173 66.904,58.625 67.281,59.059 C 67.397,59.48 67.526,59.899 67.654,60.318 C 67.631,60.334 67.61,60.353 67.593,60.377 C 67.533,60.454 67.478,60.538 67.422,60.619 C 67.321,60.767 67.178,60.937 67.057,61.069 C 66.948,61.189 66.837,61.326 66.721,61.437 C 66.571,61.578 66.43,61.729 66.282,61.872 C 66.046,62.103 65.803,62.329 65.564,62.557 C 64.915,63.18 64.315,63.768 63.857,64.552 C 63.813,64.624 63.835,64.721 63.907,64.765 C 63.98,64.809 64.076,64.786 64.12,64.714 C 64.51,63.989 65.225,63.337 65.837,62.798 C 66.417,62.288 67.025,61.787 67.551,61.223 C 67.649,61.117 67.741,61.007 67.831,60.897 C 67.969,61.336 68.112,61.775 68.252,62.214 C 67.532,62.743 66.864,63.583 66.313,64.258 C 65.982,64.662 65.647,65.065 65.318,65.469 C 65.159,65.665 64.966,65.856 64.816,66.052 C 64.791,66.081 64.793,66.125 64.822,66.15 C 64.85,66.174 64.895,66.172 64.919,66.144 C 65.032,65.999 65.176,65.866 65.295,65.723 C 65.375,65.626 65.467,65.533 65.551,65.439 C 65.833,65.127 66.126,64.823 66.423,64.525 C 66.995,63.95 67.717,63.275 68.458,62.856 C 68.574,63.215 68.694,63.578 68.783,63.94 C 68.85,64.216 68.946,64.492 69.015,64.77 C 69.017,64.777 69.019,64.785 69.02,64.793 C 68.974,64.809 68.931,64.836 68.897,64.875 C 68.49,65.352 68.095,65.835 67.692,66.315 C 67.471,66.578 67.249,66.841 67.009,67.086 C 66.923,67.174 66.838,67.272 66.747,67.354 C 66.638,67.453 66.529,67.565 66.415,67.658 C 66.291,67.759 66.163,67.85 66.039,67.948 C 65.929,68.029 65.904,68.187 65.985,68.297 C 66.066,68.407 66.224,68.432 66.334,68.351 C 66.489,68.232 66.649,68.119 66.796,67.988 C 67.237,67.596 67.648,67.175 68.037,66.727 C 68.281,66.448 68.527,66.169 68.771,65.89 C 68.896,65.746 69.027,65.594 69.16,65.45 C 69.213,65.746 69.252,66.041 69.284,66.347 C 69.254,66.437 69.225,66.534 69.187,66.619 C 69.078,66.861 68.972,67.089 68.852,67.326 C 68.658,67.709 68.398,68.052 68.154,68.402 C 67.918,68.74 67.65,69.054 67.371,69.358 C 67.275,69.463 67.176,69.578 67.072,69.674 C 66.716,70.005 66.387,70.355 66.001,70.657 C 65.888,70.745 65.78,70.841 65.667,70.928 C 65.339,71.18 65,71.413 64.65,71.633 C 64.545,71.697 64.439,71.762 64.332,71.825 C 64.263,71.82 64.195,71.816 64.129,71.809 C 64.007,71.795 63.881,71.788 63.757,71.78 C 63.957,71.69 64.17,71.632 64.361,71.505 C 64.467,71.434 64.547,71.374 64.632,71.276 C 64.659,71.246 64.68,71.204 64.707,71.175 C 64.759,71.101 64.743,70.999 64.669,70.947 C 64.596,70.895 64.494,70.912 64.442,70.985 C 64.404,71.033 64.361,71.111 64.312,71.148 C 64.274,71.177 64.208,71.221 64.176,71.25 C 64.104,71.315 63.813,71.425 63.71,71.472 C 63.542,71.547 63.392,71.629 63.268,71.735 C 63.168,71.723 63.068,71.71 62.972,71.699 C 62.526,71.648 62.07,71.568 61.629,71.489 C 61.453,71.457 61.278,71.425 61.102,71.39 C 61.303,71.244 61.525,71.109 61.677,70.976 C 61.745,70.917 61.822,70.857 61.885,70.796 C 61.952,70.731 62.005,70.661 62.066,70.594 C 62.121,70.524 62.108,70.42 62.038,70.365 C 61.967,70.31 61.863,70.323 61.808,70.393 C 61.792,70.409 61.692,70.541 61.675,70.565 C 61.63,70.633 61.459,70.772 61.389,70.828 C 61.256,70.934 61.113,71.036 60.975,71.138 C 60.907,71.186 60.834,71.25 60.764,71.321 C 60.25,71.214 59.738,71.097 59.228,70.977 C 59.111,70.949 58.995,70.922 58.879,70.894 C 58.89,70.886 58.9,70.878 58.911,70.871 C 59.147,70.696 59.378,70.528 59.619,70.36 C 59.788,70.243 59.961,70.13 60.125,70.006 C 60.187,69.961 60.273,69.908 60.326,69.858 C 60.416,69.776 60.511,69.689 60.603,69.609 C 60.68,69.538 60.684,69.414 60.613,69.337 C 60.541,69.26 60.418,69.256 60.341,69.328 C 60.264,69.379 60.158,69.492 60.082,69.557 C 59.91,69.704 59.721,69.851 59.539,69.985 C 59.213,70.225 58.833,70.497 58.51,70.805 C 58.325,70.762 58.138,70.717 57.953,70.672 C 57.917,70.647 57.878,70.622 57.839,70.595 C 57.83,70.582 57.819,70.567 57.808,70.552 C 57.902,70.354 57.864,70.109 57.699,69.95 C 57.538,69.79 57.375,69.631 57.212,69.474 C 57.49,69.256 57.803,69.083 58.149,68.893 C 58.326,68.795 58.484,68.676 58.652,68.57 C 58.713,68.53 58.768,68.476 58.829,68.435 C 58.905,68.371 58.916,68.257 58.852,68.181 C 58.789,68.105 58.675,68.094 58.598,68.157 C 58.14,68.58 57.587,68.84 57.112,69.229 C 57.083,69.251 57.055,69.275 57.029,69.298 C 56.936,69.209 56.843,69.119 56.75,69.032 C 56.502,68.793 56.255,68.554 56.008,68.314 C 56.184,68.181 56.36,68.049 56.54,67.922 C 56.729,67.788 57.102,67.517 57.324,67.469 C 57.433,67.428 57.488,67.305 57.447,67.195 C 57.406,67.086 57.283,67.031 57.173,67.072 C 56.981,67.111 56.541,67.463 56.377,67.594 C 56.175,67.754 55.976,67.921 55.775,68.085 C 55.39,67.706 55.005,67.325 54.623,66.945 C 54.581,66.904 54.54,66.863 54.499,66.822 C 54.616,66.757 54.73,66.687 54.839,66.605 C 54.961,66.512 55.092,66.421 55.217,66.332 C 55.443,66.169 55.666,65.998 55.907,65.859 C 56.018,65.79 56.052,65.645 55.983,65.535 C 55.915,65.424 55.77,65.39 55.659,65.458 C 55.354,65.634 55.074,65.86 54.796,66.077 C 54.666,66.178 54.518,66.267 54.391,66.369 C 54.331,66.417 54.255,66.461 54.176,66.502 C 53.826,66.154 53.475,65.806 53.123,65.458 C 53.384,65.212 53.659,65.002 53.987,64.814 C 54.086,64.754 54.119,64.624 54.059,64.524 C 53.999,64.425 53.87,64.393 53.77,64.452 C 53.486,64.618 53.174,64.92 52.944,65.153 C 52.922,65.173 52.901,65.196 52.879,65.217 C 52.516,64.858 52.152,64.498 51.789,64.139 C 51.905,64.037 52.026,63.938 52.146,63.842 C 52.292,63.723 52.599,63.514 52.777,63.459 C 52.857,63.42 52.89,63.322 52.851,63.243 C 52.812,63.164 52.714,63.131 52.635,63.17 C 52.447,63.231 52.15,63.5 51.994,63.628 C 51.862,63.734 51.74,63.851 51.623,63.975 C 51.574,63.927 51.525,63.878 51.476,63.83 C 51.209,63.565 50.941,63.3 50.673,63.037 C 50.863,62.838 51.069,62.658 51.307,62.476 C 51.443,62.373 51.634,62.211 51.777,62.131 C 51.851,62.078 51.869,61.973 51.816,61.899 C 51.764,61.825 51.658,61.807 51.584,61.86 C 51.194,62.131 50.806,62.465 50.476,62.842 C 50.12,62.492 49.761,62.143 49.402,61.797 C 49.516,61.716 49.635,61.643 49.744,61.575 C 49.852,61.509 49.981,61.412 50.072,61.324 C 50.108,61.289 50.143,61.244 50.18,61.212 C 50.233,61.151 50.225,61.058 50.164,61.005 C 50.104,60.952 50.01,60.96 49.957,61.021 C 49.76,61.265 49.498,61.454 49.241,61.644 C 49.041,61.452 48.84,61.262 48.638,61.072 C 48.418,60.866 48.197,60.661 47.976,60.457 C 48.397,60.111 48.798,59.782 49.283,59.504 C 49.363,59.453 49.386,59.344 49.335,59.264 C 49.284,59.184 49.176,59.162 49.096,59.212 C 48.619,59.535 48.218,59.907 47.795,60.289 C 47.321,59.853 46.843,59.42 46.364,58.991 C 46.418,58.949 46.473,58.908 46.532,58.868 C 46.904,58.603 47.337,58.299 47.775,58.157 C 47.84,58.13 47.87,58.053 47.843,57.989 C 47.815,57.924 47.738,57.894 47.674,57.921 C 47.246,58.121 46.909,58.353 46.536,58.643 C 46.436,58.719 46.334,58.796 46.234,58.875 C 46.126,58.78 46.019,58.685 45.912,58.59 C 45.62,58.332 45.33,58.073 45.038,57.817 C 45.151,57.762 45.264,57.706 45.377,57.645 C 45.784,57.422 46.134,57.123 46.505,56.85 C 46.576,56.795 46.589,56.691 46.535,56.621 C 46.48,56.551 46.376,56.537 46.306,56.592 C 45.996,56.807 45.712,57.084 45.393,57.281 C 45.261,57.362 45.129,57.446 44.99,57.518 C 44.927,57.55 44.862,57.579 44.799,57.607 C 44.73,57.548 44.662,57.489 44.595,57.431 C 44.258,57.107 43.921,56.784 43.582,56.462 C 44.118,55.952 44.716,55.488 45.327,55.092 C 45.399,55.041 45.414,54.94 45.363,54.869 C 45.313,54.797 45.211,54.782 45.14,54.832 C 44.754,55.114 44.402,55.424 44.038,55.73 C 43.891,55.853 43.757,55.995 43.617,56.123 C 43.553,56.179 43.487,56.242 43.418,56.307 C 43.324,56.217 43.229,56.127 43.134,56.037 C 42.785,55.706 42.437,55.375 42.089,55.042 C 42.405,54.741 42.81,54.499 43.15,54.283 C 43.315,54.178 43.5,54.025 43.637,53.884 C 43.676,53.844 43.713,53.795 43.754,53.757 C 43.816,53.685 43.807,53.574 43.735,53.512 C 43.663,53.449 43.552,53.458 43.49,53.53 C 43.453,53.569 43.417,53.63 43.38,53.664 C 43.292,53.746 43.223,53.823 43.126,53.903 C 43.082,53.94 43.041,53.984 42.994,54.014 C 42.886,54.082 42.767,54.174 42.662,54.249 C 42.461,54.395 42.244,54.525 42.057,54.688 C 41.996,54.74 41.941,54.794 41.888,54.852 C 41.458,54.443 41.028,54.032 40.598,53.623 C 41.038,53.177 41.569,52.772 42.11,52.484 C 42.196,52.429 42.224,52.312 42.169,52.225 C 42.114,52.138 41.997,52.111 41.91,52.166 C 41.79,52.244 41.674,52.332 41.553,52.41 C 41.438,52.483 41.294,52.58 41.193,52.67 C 41.063,52.785 40.931,52.895 40.801,53.012 C 40.663,53.134 40.522,53.277 40.388,53.423 C 40.039,53.091 39.69,52.759 39.34,52.427 C 38.736,51.736 38.145,51.029 37.535,50.34 C 37.526,50.33 37.518,50.321 37.511,50.313 C 37.618,50.223 37.779,50.128 37.897,50.054 C 38.199,49.862 38.507,49.674 38.809,49.48 C 39.078,49.308 39.351,49.144 39.61,48.96 C 39.688,48.904 39.816,48.819 39.88,48.753 C 39.907,48.725 39.945,48.691 39.975,48.67 C 40.06,48.58 40.056,48.437 39.966,48.352 C 39.877,48.267 39.734,48.271 39.649,48.361 C 39.553,48.501 39.35,48.717 39.219,48.825 C 39.026,48.983 38.848,49.168 38.647,49.326 C 38.406,49.515 38.165,49.696 37.923,49.88 C 37.769,49.996 37.577,50.104 37.433,50.226 C 37.153,49.914 36.863,49.606 36.564,49.307 C 37.01,49.121 37.453,48.915 37.856,48.675 C 38.307,48.407 38.756,48.151 39.187,47.85 C 39.312,47.762 39.463,47.673 39.58,47.577 C 39.76,47.428 39.971,47.295 40.159,47.148 C 40.573,46.822 40.984,46.504 41.381,46.156 C 41.863,45.733 42.356,45.313 42.821,44.871 C 43.841,43.9 44.845,42.91 45.833,41.907 C 46.133,41.602 46.423,41.282 46.718,40.972 C 47.134,40.535 47.559,40.102 47.988,39.676 C 48.249,39.418 48.506,39.153 48.777,38.907 C 48.856,38.836 48.929,38.758 49.011,38.689 C 49.1,38.605 49.152,38.497 49.169,38.383 C 49.271,38.312 49.373,38.242 49.478,38.176 C 49.594,38.098 49.625,37.94 49.547,37.824 C 49.469,37.708 49.311,37.676 49.194,37.754 C 49.12,37.8 49.047,37.848 48.974,37.896 C 48.834,37.79 48.652,37.761 48.491,37.814 C 48.478,37.747 48.446,37.683 48.395,37.631 C 48.258,37.492 48.03,37.491 47.89,37.628 C 46.293,39.192 44.729,40.789 43.075,42.291 C 42.592,42.728 42.104,43.172 41.604,43.589 C 41.069,44.035 40.532,44.48 39.98,44.904 C 39.707,45.114 39.416,45.31 39.147,45.526 C 38.854,45.761 38.536,45.993 38.233,46.214 C 38.003,46.38 37.766,46.536 37.537,46.702 C 37.324,46.858 37.094,46.997 36.873,47.141 C 36.442,47.421 36.001,47.678 35.556,47.934 C 35.456,47.99 35.356,48.043 35.255,48.095 C 35.164,48.022 35.071,47.95 34.983,47.876 C 34.721,47.66 34.438,47.446 34.156,47.256 C 34.133,47.239 34.108,47.227 34.082,47.219 C 34.26,47.067 34.438,46.913 34.614,46.759 C 35.111,46.321 35.6,45.875 36.101,45.443 C 37.67,44.09 39.253,42.754 40.841,41.423 C 41.337,41.006 41.836,40.587 42.329,40.164 C 42.306,40.205 42.281,40.248 42.258,40.292 C 42.167,40.458 42.069,40.652 42.005,40.83 C 41.969,40.913 42.007,41.011 42.09,41.047 C 42.173,41.084 42.272,41.045 42.308,40.962 C 42.976,39.419 44.458,38.273 45.814,37.35 C 45.967,37.246 46.116,37.134 46.27,37.03 C 46.489,36.881 46.717,36.73 46.93,36.573 C 47.137,36.419 47.361,36.241 47.575,36.102 C 47.677,36.023 47.698,35.873 47.619,35.771 C 47.54,35.668 47.39,35.647 47.288,35.727 C 47.212,35.783 47.137,35.844 47.068,35.899 C 47.185,35.783 47.306,35.663 47.428,35.543 C 47.438,35.553 47.447,35.562 47.457,35.572 C 47.451,35.559 47.445,35.546 47.439,35.532 C 47.481,35.491 47.522,35.45 47.564,35.409 C 48.423,36.369 49.272,37.341 50.116,38.315 Z M 50.236,37.39 C 50.197,37.433 50.158,37.476 50.121,37.52 C 50.024,37.409 49.926,37.297 49.828,37.187 C 49.961,37.258 50.097,37.326 50.236,37.39 Z M 53.095,39.155 C 53.293,39.277 53.493,39.403 53.696,39.518 C 54.017,39.699 54.354,39.864 54.68,40.039 C 55.294,40.369 55.913,40.692 56.522,41.031 C 57.667,41.67 58.832,42.323 59.93,43.042 C 60.419,43.362 60.913,43.679 61.386,44.024 C 62.256,44.657 63.116,45.364 63.865,46.137 C 64.004,46.28 64.142,46.427 64.274,46.573 C 64.62,47.034 64.95,47.504 65.265,47.988 C 65.354,48.124 65.439,48.26 65.522,48.397 L 65.583,48.524 L 65.952,49.301 C 66.208,49.949 66.42,50.578 66.613,51.248 C 66.766,51.777 66.898,52.365 66.961,52.911 C 66.997,53.221 67.032,53.531 67.048,53.843 L 67.048,53.897 L 66.894,55.557 C 66.707,55.366 66.52,55.174 66.332,54.986 C 65.691,54.343 65.046,53.707 64.402,53.069 C 63.856,52.529 63.291,52.003 62.738,51.47 C 61.752,50.519 60.767,49.564 59.777,48.616 C 59.437,48.29 59.096,47.962 58.761,47.64 C 58.737,47.612 58.714,47.584 58.691,47.557 C 58.693,47.555 58.695,47.554 58.697,47.553 C 58.785,47.489 58.872,47.419 58.961,47.358 C 59.05,47.303 59.076,47.185 59.021,47.096 C 58.967,47.007 58.848,46.981 58.76,47.035 C 58.642,47.091 58.526,47.154 58.412,47.221 C 56.979,45.499 55.539,43.791 54.087,42.098 C 52.846,40.65 51.6,39.209 50.346,37.777 C 50.414,37.704 50.48,37.629 50.548,37.557 C 51.387,38.104 52.239,38.629 53.095,39.155 Z M 54.344,38.661 C 54.329,38.677 54.313,38.693 54.297,38.71 C 54.2,38.66 54.103,38.612 54.005,38.564 C 54.119,38.596 54.232,38.628 54.344,38.661 Z M 55.603,39.098 C 55.878,39.216 56.148,39.345 56.412,39.483 C 56.331,39.551 56.25,39.619 56.17,39.689 C 55.619,39.4 55.068,39.112 54.516,38.824 C 54.547,38.796 54.575,38.767 54.604,38.739 C 54.942,38.845 55.276,38.961 55.603,39.098 Z M 58.113,40.532 C 58.08,40.57 58.046,40.609 58.011,40.647 C 57.836,40.554 57.663,40.463 57.491,40.375 C 57.102,40.174 56.715,39.973 56.327,39.771 C 56.41,39.703 56.494,39.637 56.578,39.572 C 57.109,39.86 57.62,40.184 58.113,40.532 Z M 47.462,41.727 C 47.191,42.031 46.936,42.347 46.667,42.651 C 46.304,43.063 45.947,43.483 45.586,43.896 C 45.544,43.944 45.548,44.018 45.596,44.06 C 45.644,44.102 45.718,44.098 45.76,44.05 C 46.528,43.172 47.303,42.279 48.129,41.457 C 48.434,41.153 48.75,40.863 49.087,40.596 C 49.203,40.504 49.331,40.398 49.455,40.318 C 49.54,40.252 49.556,40.129 49.49,40.044 C 49.425,39.959 49.302,39.944 49.217,40.009 C 48.581,40.489 47.988,41.135 47.462,41.727 Z M 58.994,41.188 C 58.738,41.042 58.478,40.898 58.219,40.758 C 58.247,40.728 58.274,40.697 58.302,40.666 C 58.537,40.835 58.766,41.01 58.994,41.188 Z M 50.782,41.768 C 50.631,41.926 50.494,42.102 50.342,42.262 C 50.031,42.589 49.71,42.908 49.384,43.22 C 48.589,43.98 47.697,44.77 47.051,45.665 C 47.015,45.713 47.024,45.782 47.072,45.818 C 47.12,45.854 47.189,45.846 47.225,45.798 C 47.517,45.366 47.987,44.895 48.37,44.542 C 48.813,44.135 49.265,43.75 49.718,43.356 C 50.194,42.941 50.678,42.531 51.114,42.075 C 51.198,41.984 51.192,41.84 51.101,41.756 C 51.01,41.672 50.866,41.677 50.782,41.768 Z M 44.346,42.022 C 42.618,43.972 40.835,45.871 38.72,47.402 C 38.314,47.696 37.88,47.95 37.451,48.208 C 37.36,48.263 37.253,48.315 37.158,48.365 C 36.825,48.538 36.501,48.685 36.158,48.837 C 36.14,48.843 36.123,48.851 36.105,48.858 C 35.928,48.69 35.749,48.526 35.569,48.367 C 35.96,48.164 36.351,47.96 36.736,47.741 C 37.219,47.464 37.692,47.173 38.165,46.882 C 38.443,46.711 38.711,46.535 38.984,46.356 C 39.207,46.21 39.443,46.066 39.654,45.902 C 39.881,45.725 40.122,45.561 40.349,45.384 C 41.15,44.761 41.93,44.121 42.704,43.466 C 43.261,42.994 43.809,42.511 44.348,42.018 C 44.348,42.019 44.347,42.02 44.346,42.022 Z M 39.982,51.084 C 39.783,51.238 39.621,51.397 39.442,51.572 C 39.338,51.672 39.198,51.827 39.118,51.946 C 39.071,52.005 39.08,52.093 39.14,52.14 C 39.2,52.187 39.287,52.177 39.334,52.118 C 39.397,51.986 39.727,51.695 39.837,51.601 C 40.029,51.437 40.256,51.307 40.463,51.161 C 40.591,51.071 40.733,50.984 40.857,50.889 C 40.933,50.83 41.017,50.766 41.099,50.715 C 41.18,50.653 41.195,50.533 41.133,50.452 C 41.07,50.371 40.951,50.356 40.87,50.418 C 40.582,50.661 40.28,50.856 39.982,51.084 Z M 57.18,53.606 C 56.985,53.854 56.781,54.119 56.612,54.385 C 56.536,54.493 56.563,54.645 56.671,54.72 C 56.78,54.795 56.931,54.769 57.006,54.66 C 57.567,53.807 58.344,52.953 59.115,52.284 C 59.475,51.972 59.827,51.651 60.207,51.364 C 60.323,51.268 60.339,51.094 60.243,50.978 C 60.148,50.862 59.974,50.846 59.858,50.942 C 58.888,51.746 57.963,52.617 57.18,53.606 Z M 63.535,56.52 C 63.317,56.728 63.088,56.928 62.886,57.152 C 62.073,58.059 61.403,59.109 60.743,60.129 C 60.683,60.222 60.71,60.347 60.803,60.406 C 60.896,60.466 61.021,60.438 61.081,60.346 C 61.241,60.079 61.425,59.816 61.605,59.562 C 62.102,58.858 62.637,58.215 63.238,57.599 C 63.61,57.219 64.011,56.806 64.455,56.511 C 64.581,56.415 64.607,56.233 64.511,56.107 C 64.415,55.981 64.234,55.956 64.108,56.051 C 63.924,56.175 63.695,56.368 63.535,56.52 Z M 66.699,58.896 C 66.438,59.232 66.174,59.554 65.88,59.863 C 65.338,60.433 64.744,60.963 64.177,61.509 C 63.714,61.955 63.262,62.424 62.877,62.941 C 62.746,63.117 62.607,63.307 62.5,63.498 C 62.44,63.592 62.467,63.718 62.56,63.777 C 62.654,63.837 62.78,63.81 62.84,63.717 C 63.648,62.419 64.865,61.509 65.98,60.488 C 66.233,60.257 66.501,60.004 66.727,59.746 C 66.87,59.582 66.996,59.391 67.139,59.234 C 67.232,59.113 67.209,58.938 67.088,58.845 C 66.967,58.752 66.792,58.775 66.699,58.896 Z M 68.45,60.367 L 68.457,60.352 L 68.426,60.421 L 68.363,60.54 C 68.325,60.456 68.288,60.372 68.25,60.29 C 68.206,60.194 68.163,60.098 68.118,60.001 C 68.228,60.125 68.338,60.246 68.45,60.367 Z M 69.695,62.469 C 69.729,62.575 69.774,62.679 69.807,62.785 C 69.835,62.878 69.858,62.973 69.889,63.065 C 69.937,63.216 69.975,63.403 70.005,63.559 C 70.123,64.178 70.17,64.772 70.139,65.401 C 70.126,65.646 70.111,65.893 70.07,66.135 C 70.041,66.308 70.019,66.483 69.982,66.655 C 69.95,66.804 69.914,66.955 69.874,67.104 C 69.899,66.793 69.902,66.475 69.889,66.157 C 69.907,66.079 69.926,65.999 69.946,65.92 C 69.969,65.831 69.975,65.741 69.989,65.65 C 70.005,65.553 70.028,65.431 70.027,65.334 C 70.026,65.251 70.039,65.149 70.045,65.064 C 70.054,64.931 70.045,64.805 70.043,64.672 C 70.041,64.557 70.038,64.387 70.017,64.272 C 69.992,64.145 69.974,64.002 69.953,63.873 C 69.934,63.755 69.906,63.633 69.871,63.511 C 69.929,63.388 69.931,63.242 69.866,63.113 C 69.845,63.059 69.811,63.004 69.786,62.951 C 69.731,62.837 69.704,62.694 69.686,62.57 C 69.679,62.516 69.675,62.461 69.674,62.407 C 69.681,62.427 69.688,62.449 69.695,62.469 Z M 70.192,68.641 C 70.156,68.775 70.113,68.925 70.061,69.053 C 69.932,69.372 69.781,69.721 69.579,70.001 C 69.495,70.118 69.404,70.222 69.317,70.335 C 69.224,70.455 68.997,70.679 68.872,70.764 C 68.868,70.766 68.865,70.768 68.861,70.771 C 68.917,70.66 68.965,70.551 69.004,70.448 C 69.041,70.349 69.091,70.245 69.118,70.143 C 69.124,70.12 69.13,70.097 69.136,70.075 C 69.347,69.776 69.541,69.462 69.716,69.136 C 69.767,69.038 69.82,68.941 69.871,68.842 C 69.931,68.849 69.992,68.819 70.02,68.762 C 70.11,68.57 70.204,68.382 70.298,68.189 C 70.269,68.337 70.233,68.486 70.192,68.641 Z M 68.361,69.422 C 68.338,69.501 68.321,69.588 68.293,69.666 C 68.282,69.698 68.27,69.73 68.259,69.762 C 68.108,69.914 67.939,70.053 67.751,70.181 C 67.602,70.281 67.451,70.373 67.297,70.457 C 67.347,70.413 67.397,70.37 67.447,70.326 C 67.7,70.1 67.932,69.844 68.173,69.607 C 68.236,69.544 68.298,69.482 68.361,69.42 L 68.361,69.422 Z M 67.859,70.655 C 67.783,70.765 67.695,70.906 67.596,70.996 C 67.55,71.038 67.503,71.093 67.457,71.131 C 67.412,71.168 67.354,71.204 67.306,71.239 L 67.1,71.349 L 65.861,71.804 C 65.658,71.82 65.456,71.831 65.245,71.835 C 65.213,71.835 65.179,71.836 65.147,71.836 C 65.353,71.732 65.554,71.621 65.753,71.505 C 65.821,71.577 65.938,71.586 66.016,71.521 C 66.118,71.433 66.224,71.35 66.329,71.266 C 66.439,71.235 66.551,71.204 66.657,71.163 C 66.829,71.096 67.009,71.038 67.175,70.959 C 67.448,70.828 67.681,70.701 67.927,70.548 C 67.906,70.584 67.882,70.62 67.859,70.655 Z M 59.11,71.264 C 59.583,71.376 60.056,71.492 60.529,71.603 C 60.463,71.696 60.409,71.793 60.374,71.885 C 59.835,71.703 59.311,71.466 58.804,71.186 C 58.905,71.213 59.008,71.239 59.11,71.264 Z M 61.15,71.744 C 61.762,71.879 62.387,72.003 63.008,72.099 C 62.995,72.131 62.983,72.165 62.974,72.202 C 62.963,72.231 62.962,72.26 62.969,72.288 C 62.603,72.289 62.236,72.268 61.842,72.222 C 61.42,72.17 61.006,72.08 60.601,71.957 C 60.634,71.891 60.661,71.835 60.706,71.767 C 60.729,71.731 60.755,71.696 60.786,71.662 C 60.907,71.69 61.028,71.717 61.15,71.744 Z M 63.649,72.193 C 63.593,72.219 63.538,72.245 63.483,72.271 C 63.405,72.275 63.329,72.279 63.253,72.281 C 63.273,72.233 63.289,72.187 63.31,72.144 C 63.421,72.16 63.534,72.177 63.649,72.193 Z M 63.344,73.209 C 63.579,73.2 63.805,73.168 64.037,73.15 C 63.723,73.261 63.414,73.3 63.067,73.333 C 62.517,73.383 61.957,73.291 61.423,73.168 C 61.309,73.142 61.198,73.11 61.108,73.026 C 61.853,73.185 62.582,73.239 63.344,73.209 Z" stroke="none" fill="#000000" stroke-width="0.5" fill-rule="evenodd" marker-start="none" marker-end="none" stroke-miterlimit="79.8403193612775"/></g></g></g><text x="0" y="90" fill="#000000" font-size="5px" font-weight="bold" font-family="'Helvetica Neue', Helvetica, Arial-Unicode, Arial, Sans-serif">Created by Denis Sazhin</text><text x="0" y="95" fill="#000000" font-size="5px" font-weight="bold" font-family="'Helvetica Neue', Helvetica, Arial-Unicode, Arial, Sans-serif">from the Noun Project</text></svg>