<svg xmlns:xlink="http://www.w3.org/1999/xlink" xmlns="http://www.w3.org/2000/svg" stroke-width="0.501" stroke-linejoin="bevel" fill-rule="evenodd" version="1.1" overflow="visible" viewBox="0 0 75 93.75" x="0px" y="0px"><g fill="none" stroke="black" font-family="Times New Roman" font-size="16" transform="scale(1 -1)"><g transform="translate(0 -75)"><g><path d="M 37.112,4.741 C 37.055,4.835 37.085,4.959 37.179,5.016 C 37.636,5.292 38.09,5.573 38.542,5.856 C 38.422,5.915 38.303,5.975 38.186,6.032 C 37.947,6.147 37.708,6.262 37.469,6.377 C 37.429,6.362 37.389,6.347 37.35,6.332 C 37.249,6.296 37.136,6.347 37.1,6.448 C 37.087,6.484 37.085,6.522 37.093,6.557 C 36.602,6.791 36.11,7.025 35.62,7.262 C 35.404,7.365 35.189,7.47 34.958,7.584 C 33.269,8.34 31.61,9.237 30.023,10.2 C 28.324,11.23 26.672,12.34 25.085,13.536 C 24.537,13.948 23.984,14.362 23.449,14.793 C 21.115,16.322 18.922,17.981 16.817,19.84 C 15.902,20.648 15.001,21.51 14.164,22.399 C 13.575,23.024 13.02,23.657 12.465,24.312 C 12.422,24.363 12.428,24.441 12.479,24.484 C 12.53,24.527 12.608,24.521 12.651,24.47 C 13.046,24.003 13.441,23.549 13.851,23.095 C 14.028,22.899 14.215,22.713 14.394,22.519 C 14.788,22.093 15.222,21.676 15.643,21.276 C 16.575,20.39 17.54,19.536 18.546,18.736 C 19.266,18.163 19.985,17.61 20.727,17.065 C 20.735,17.058 20.744,17.052 20.753,17.045 C 19.995,17.709 19.256,18.403 18.525,19.092 C 18.484,19.13 18.444,19.168 18.409,19.201 C 17.775,19.717 17.165,20.254 16.573,20.801 C 16.034,21.298 15.489,21.822 14.986,22.354 C 14.389,22.986 13.795,23.616 13.234,24.281 C 12.986,24.574 12.726,24.866 12.488,25.168 C 12.484,25.159 12.477,25.15 12.47,25.143 C 12.436,25.111 12.381,25.112 12.349,25.146 C 10.949,26.571 9.693,28.211 8.588,29.873 C 8.123,30.572 7.703,31.283 7.268,32 C 6.983,32.47 6.734,32.966 6.468,33.447 C 6.389,33.588 6.314,33.731 6.239,33.878 C 5.618,34.797 5.013,35.744 4.434,36.69 C 4.4,36.743 4.415,36.816 4.466,36.852 C 4.389,36.983 4.312,37.113 4.234,37.243 C 3.65,38.211 3.108,39.248 2.649,40.283 C 2.415,40.809 2.193,41.341 1.998,41.883 C 1.898,42.16 1.807,42.441 1.708,42.718 C 1.587,43.054 1.483,43.429 1.392,43.775 C 1.24,44.349 1.102,44.919 0.989,45.503 C 0.908,45.924 0.848,46.345 0.787,46.769 C 0.704,47.35 0.649,47.974 0.629,48.561 C 0.612,49.058 0.604,49.554 0.62,50.052 C 0.647,50.915 0.733,51.776 0.879,52.625 C 0.875,52.659 0.872,52.692 0.87,52.726 C 0.858,52.756 0.853,52.788 0.859,52.821 C 0.859,52.825 0.86,52.83 0.861,52.835 C 0.632,55.902 1.901,58.904 4.009,61.163 C 4.623,61.821 5.263,62.423 5.974,62.976 C 8.972,65.308 12.909,66.774 16.725,66.722 C 17.144,66.716 17.581,66.692 17.998,66.642 C 18.116,66.628 18.234,66.607 18.352,66.594 C 18.531,66.574 18.746,66.54 18.921,66.5 C 19.142,66.45 19.372,66.408 19.591,66.353 C 19.669,66.354 19.747,66.355 19.824,66.36 C 20.076,66.375 20.343,66.351 20.596,66.35 C 20.906,66.349 21.261,66.321 21.57,66.285 C 21.725,66.267 21.887,66.258 22.04,66.234 C 22.329,66.188 22.625,66.139 22.914,66.098 C 23.168,66.062 23.449,66.001 23.699,65.94 C 23.897,65.892 24.093,65.854 24.29,65.799 C 25.119,65.566 25.956,65.342 26.753,65.008 C 27.092,64.866 27.455,64.743 27.785,64.581 C 27.935,64.507 28.094,64.444 28.246,64.373 C 28.558,64.226 28.861,64.069 29.17,63.917 C 29.625,63.693 30.079,63.43 30.515,63.171 C 31.415,62.637 32.245,62.061 33.09,61.446 C 33.239,61.337 33.384,61.213 33.53,61.1 C 33.548,61.085 33.567,61.071 33.583,61.052 C 33.7,60.989 33.806,60.917 33.911,60.846 C 35.106,60.028 36.237,59.124 37.317,58.161 C 37.579,58.661 37.872,59.146 38.192,59.626 C 38.629,60.282 39.18,60.916 39.735,61.475 C 41.282,63.033 43.176,64.18 45.236,64.942 C 45.257,64.96 45.267,64.967 45.278,64.974 C 45.918,65.396 46.588,65.767 47.267,66.123 C 47.665,66.332 48.104,66.517 48.52,66.689 C 48.885,66.84 49.253,66.982 49.626,67.112 C 50.043,67.257 50.469,67.373 50.894,67.491 C 51.159,67.565 51.421,67.627 51.69,67.685 C 51.836,67.716 51.979,67.754 52.127,67.778 C 52.366,67.817 52.604,67.872 52.843,67.907 C 53.081,67.942 53.319,67.972 53.557,68.005 C 53.964,68.061 54.393,68.083 54.804,68.106 C 55.45,68.143 56.156,68.144 56.801,68.097 C 57.033,68.08 57.265,68.061 57.498,68.046 C 57.869,68.022 58.276,67.957 58.644,67.899 C 59.72,67.728 60.708,67.48 61.744,67.147 C 62.442,66.922 63.161,66.626 63.822,66.307 C 64.045,66.199 64.266,66.093 64.484,65.975 C 64.593,65.916 64.704,65.867 64.811,65.802 C 64.978,65.701 65.154,65.61 65.323,65.511 C 65.522,65.395 65.719,65.265 65.915,65.143 C 66.472,64.797 67.021,64.377 67.531,63.964 C 68.674,63.04 69.706,61.94 70.556,60.723 C 71.567,59.543 72.449,58.188 73.067,56.793 C 73.243,56.392 73.406,55.986 73.552,55.575 C 73.515,55.813 73.474,56.049 73.433,56.283 C 73.424,56.338 73.462,56.392 73.517,56.401 C 73.572,56.41 73.626,56.372 73.635,56.317 C 73.7,55.948 73.761,55.576 73.813,55.202 C 74.086,55.081 74.362,54.961 74.64,54.844 C 74.758,54.788 74.808,54.646 74.752,54.528 C 74.696,54.41 74.554,54.36 74.436,54.416 C 74.248,54.506 74.062,54.603 73.877,54.702 C 73.889,54.604 73.9,54.505 73.91,54.407 C 75.049,50.013 74.155,45.334 72.428,41.215 C 70.543,36.72 67.807,32.713 64.605,29.057 C 64.284,28.691 63.958,28.329 63.626,27.973 C 63.491,27.744 63.354,27.519 63.216,27.3 C 62.729,26.53 62.23,25.791 61.689,25.058 C 61.069,24.218 60.408,23.41 59.724,22.622 C 59.847,22.556 59.969,22.488 60.093,22.422 C 60.203,22.372 60.253,22.24 60.203,22.13 C 60.153,22.02 60.021,21.97 59.911,22.02 C 59.729,22.08 59.549,22.148 59.371,22.219 C 59.218,22.046 59.064,21.874 58.91,21.703 C 57.476,20.114 55.909,18.616 54.3,17.205 C 54.238,17.15 54.176,17.096 54.114,17.042 C 54.361,16.899 54.613,16.756 54.862,16.627 C 54.91,16.606 54.931,16.549 54.91,16.501 C 54.889,16.453 54.832,16.432 54.784,16.453 C 54.495,16.559 54.201,16.655 53.912,16.761 C 53.883,16.771 53.854,16.782 53.826,16.792 C 53.406,16.429 52.983,16.071 52.555,15.717 C 52.131,15.354 51.704,14.995 51.273,14.641 C 51.267,14.613 51.258,14.586 51.244,14.56 C 51.19,14.46 51.088,14.404 50.983,14.403 C 50.416,13.94 49.843,13.484 49.264,13.034 C 49.323,13.003 49.381,12.972 49.44,12.941 C 49.574,12.87 49.625,12.703 49.554,12.569 C 49.483,12.435 49.316,12.384 49.182,12.455 C 49.047,12.52 48.913,12.588 48.779,12.658 C 48.168,12.189 47.552,11.725 46.932,11.267 C 46.876,11.223 46.821,11.179 46.765,11.135 C 47.112,11.272 47.461,11.404 47.804,11.535 C 47.581,11.303 47.254,11.079 46.996,10.878 C 46.828,10.748 46.657,10.621 46.483,10.498 C 46.847,10.298 47.211,10.098 47.575,9.896 C 47.688,9.84 47.735,9.701 47.679,9.588 C 47.623,9.475 47.484,9.428 47.371,9.484 C 46.884,9.685 46.41,9.904 45.942,10.136 C 45.73,10 45.514,9.872 45.298,9.751 C 45.071,9.624 44.833,9.515 44.599,9.401 C 44.491,9.348 44.383,9.295 44.275,9.242 C 42.733,8.116 41.154,7.044 39.544,6.015 C 39.598,5.932 39.611,5.824 39.57,5.727 C 39.504,5.571 39.322,5.499 39.166,5.565 C 39.101,5.592 39.035,5.621 38.97,5.651 C 38.445,5.321 37.917,4.995 37.387,4.674 C 37.293,4.617 37.169,4.647 37.112,4.741 Z M 40.171,6.903 C 39.918,6.965 39.668,7.029 39.42,7.094 C 39.065,6.91 38.707,6.729 38.349,6.554 C 38.34,6.549 38.331,6.546 38.323,6.544 C 38.591,6.436 38.863,6.331 39.133,6.23 C 39.481,6.452 39.826,6.676 40.171,6.903 Z M 38.156,6.628 C 38.164,6.631 38.158,6.628 38.153,6.626 L 38.156,6.626 C 38.155,6.626 38.155,6.627 38.156,6.628 Z M 38.739,7.279 C 38.493,7.348 38.246,7.42 37.999,7.495 C 37.526,7.635 37.048,7.807 36.585,7.978 C 35.737,8.291 34.887,8.623 34.065,9 C 32.99,9.493 31.951,10.002 30.911,10.566 C 30.629,10.717 30.351,10.872 30.084,11.025 C 29.975,11.077 29.868,11.129 29.799,11.165 C 29.786,11.147 29.76,11.141 29.74,11.153 C 29.425,11.3 29.102,11.476 28.797,11.644 C 28.65,11.724 28.504,11.805 28.37,11.879 C 28.438,11.833 28.519,11.781 28.601,11.73 C 29.719,11.011 30.845,10.332 32.001,9.677 C 33.209,8.992 34.443,8.355 35.688,7.741 C 36.294,7.441 36.918,7.148 37.628,6.845 C 38.001,6.983 38.371,7.128 38.739,7.279 Z M 41.187,7.582 C 41.198,7.615 41.22,7.645 41.251,7.666 C 41.521,7.853 41.793,8.041 42.066,8.228 C 41.491,7.974 40.913,7.722 40.333,7.484 C 40.38,7.406 40.384,7.305 40.336,7.223 C 40.358,7.217 40.381,7.212 40.404,7.207 C 40.45,7.196 40.487,7.166 40.511,7.128 C 40.737,7.279 40.962,7.43 41.187,7.582 Z M 39.347,7.535 C 39.185,7.633 39.023,7.732 38.859,7.833 C 38.771,7.852 38.68,7.873 38.589,7.895 C 38.03,8.026 37.479,8.186 36.927,8.343 C 36.471,8.472 36.018,8.614 35.569,8.765 C 35.876,8.64 36.184,8.519 36.494,8.403 C 37.406,8.057 38.33,7.76 39.268,7.501 C 39.294,7.512 39.32,7.523 39.347,7.535 Z M 40.707,8.3 C 41.034,8.515 41.348,8.744 41.662,8.974 C 41.301,9.211 40.943,9.451 40.588,9.698 C 39.746,10.281 38.912,10.888 38.077,11.482 C 36.562,12.559 35.035,13.626 33.537,14.727 C 33.113,15.039 32.686,15.347 32.263,15.66 C 31.394,16.302 30.54,16.967 29.685,17.627 C 28.948,18.196 28.218,18.795 27.507,19.395 C 26.003,20.664 24.569,21.955 23.182,23.352 C 22.277,24.264 21.375,25.223 20.556,26.212 L 20.598,26.248 C 21.327,25.368 22.121,24.528 22.919,23.711 C 24.367,22.229 25.92,20.862 27.523,19.551 C 29.728,17.748 32.065,16.058 34.422,14.459 C 35.573,13.678 36.723,12.897 37.88,12.123 C 38.915,11.431 39.964,10.746 40.983,10.031 C 41.341,9.779 41.688,9.513 42.037,9.248 C 42.2,9.366 42.365,9.491 42.521,9.619 C 42.951,9.972 43.4,10.306 43.82,10.672 C 43.959,10.794 44.103,10.912 44.248,11.029 C 42.518,11.98 40.856,13.005 39.209,14.092 C 37.066,15.504 35.01,17.075 33.034,18.711 C 31.133,20.284 29.271,21.991 27.558,23.767 C 27.092,24.25 26.643,24.755 26.196,25.257 C 25.258,26.31 24.366,27.39 23.481,28.487 C 23.436,28.542 23.445,28.625 23.5,28.67 C 23.555,28.715 23.638,28.706 23.683,28.651 C 24.271,27.922 24.867,27.218 25.486,26.516 C 26.228,25.674 27.018,24.876 27.806,24.077 C 28.421,23.453 29.037,22.828 29.675,22.227 C 30.081,21.844 30.494,21.47 30.905,21.093 C 31.767,20.302 32.681,19.557 33.587,18.818 C 35.187,17.512 36.889,16.287 38.606,15.14 C 40.203,14.073 41.858,13.044 43.535,12.108 C 43.941,11.88 44.349,11.657 44.757,11.434 C 44.797,11.465 44.836,11.497 44.876,11.529 C 45.234,11.817 45.588,12.113 45.94,12.407 C 46.372,12.768 46.799,13.136 47.222,13.509 C 46.461,13.941 45.712,14.395 44.975,14.863 C 43.079,16.066 41.221,17.326 39.419,18.668 C 39.045,18.946 38.669,19.222 38.297,19.502 C 37.428,20.157 36.577,20.835 35.723,21.51 C 34.258,22.668 32.839,23.882 31.422,25.097 C 29.429,26.805 27.477,28.582 25.556,30.371 L 25.553,30.438 L 25.62,30.441 C 27.61,28.587 29.644,26.774 31.727,25.025 C 33.186,23.8 34.674,22.583 36.198,21.438 C 38.084,20.021 39.972,18.636 41.95,17.348 C 42.601,16.924 43.253,16.497 43.916,16.092 C 45.151,15.337 46.403,14.609 47.668,13.905 C 48.15,14.335 48.627,14.771 49.101,15.208 C 49.152,15.255 49.203,15.302 49.254,15.349 C 48.908,15.557 48.566,15.77 48.226,15.985 C 45.392,17.771 42.742,19.834 40.203,22.015 C 38.334,23.62 36.534,25.284 34.752,26.984 C 34.057,27.647 33.358,28.313 32.678,28.99 C 31.592,30.071 30.486,31.132 29.404,32.217 L 29.404,32.271 L 29.458,32.271 C 32.693,29.025 36.005,25.848 39.503,22.884 C 41.888,20.863 44.426,18.95 47.071,17.28 C 47.919,16.744 48.785,16.224 49.667,15.735 C 50.357,16.383 51.037,17.044 51.71,17.709 C 51.004,18.065 50.307,18.462 49.626,18.852 C 48.143,19.701 46.705,20.596 45.281,21.541 C 44.228,22.239 43.205,22.974 42.188,23.723 C 41.198,24.452 40.22,25.212 39.275,25.998 C 38.774,26.415 38.267,26.826 37.775,27.254 C 35.723,29.04 33.759,30.893 31.898,32.876 C 31.879,32.896 31.88,32.931 31.9,32.95 C 31.92,32.969 31.955,32.968 31.974,32.948 C 32.881,31.982 33.816,31.061 34.773,30.145 C 35.08,29.851 35.394,29.555 35.711,29.272 C 36.008,29.007 36.308,28.744 36.606,28.479 C 37.201,27.95 37.808,27.427 38.428,26.927 C 38.966,26.493 39.507,26.042 40.059,25.628 C 40.425,25.354 40.795,25.076 41.157,24.797 C 41.506,24.528 41.878,24.273 42.237,24.017 C 43.053,23.437 43.875,22.884 44.71,22.332 C 45.582,21.756 46.497,21.189 47.403,20.669 C 48.096,20.272 48.79,19.854 49.497,19.485 C 50.016,19.214 50.53,18.93 51.055,18.669 C 51.414,18.49 51.778,18.314 52.135,18.129 C 52.889,18.879 53.632,19.64 54.366,20.409 C 53.878,20.763 53.388,21.116 52.891,21.455 C 52.106,21.989 51.322,22.519 50.532,23.045 C 49.874,23.483 49.198,23.903 48.535,24.334 C 47.018,25.32 45.489,26.288 43.974,27.279 C 41.414,28.953 38.908,30.746 36.608,32.766 C 36.33,33.011 36.018,33.274 35.763,33.54 C 35.404,33.914 35.055,34.298 34.691,34.666 C 34.645,34.712 34.646,34.789 34.692,34.835 C 34.738,34.881 34.815,34.88 34.861,34.834 C 35.221,34.435 35.662,34.096 36.06,33.737 C 36.48,33.359 36.893,32.963 37.329,32.603 C 37.548,32.422 37.764,32.237 37.983,32.056 C 38.478,31.646 38.992,31.256 39.504,30.867 C 40.268,30.286 41.057,29.744 41.849,29.202 C 43.396,28.144 44.991,27.158 46.585,26.171 C 47.971,25.313 49.356,24.454 50.733,23.582 C 51.493,23.101 52.241,22.599 52.986,22.095 C 53.592,21.684 54.186,21.267 54.768,20.832 C 55.539,21.649 56.3,22.474 57.051,23.309 C 56.043,23.809 55.067,24.346 54.082,24.896 C 53.423,25.264 52.768,25.645 52.124,26.037 C 49.027,27.919 46.084,29.997 43.246,32.25 C 42.23,33.057 41.229,33.873 40.24,34.713 C 39.991,34.925 39.738,35.133 39.494,35.35 C 38.707,36.049 37.962,36.776 37.191,37.49 C 37.137,37.54 37.134,37.627 37.184,37.681 C 37.234,37.735 37.321,37.738 37.375,37.688 C 37.769,37.322 38.171,36.957 38.584,36.613 C 38.81,36.424 39.041,36.239 39.265,36.049 C 39.521,35.831 39.767,35.598 40.025,35.382 C 40.373,35.09 40.721,34.797 41.067,34.502 C 41.338,34.271 41.623,34.051 41.9,33.826 C 42.558,33.291 43.231,32.764 43.908,32.254 C 46.78,30.09 49.793,28.086 52.887,26.252 C 53.751,25.74 54.625,25.244 55.509,24.767 C 56.151,24.42 56.799,24.087 57.447,23.75 C 58.161,24.55 58.867,25.358 59.567,26.172 C 59.359,26.28 59.152,26.39 58.945,26.497 C 57.822,27.078 56.7,27.679 55.604,28.308 C 54.776,28.783 53.955,29.263 53.138,29.755 C 52.707,30.015 52.283,30.288 51.854,30.551 C 51.572,30.724 51.295,30.909 51.018,31.09 C 50.385,31.504 49.758,31.921 49.129,32.342 C 47.808,33.226 46.546,34.193 45.278,35.151 C 44.994,35.365 44.717,35.595 44.439,35.817 C 43.666,36.433 42.903,37.07 42.162,37.724 C 41.935,37.925 41.703,38.12 41.479,38.324 C 41.11,38.661 40.744,39.002 40.376,39.341 C 40.329,39.384 40.326,39.459 40.369,39.506 C 40.412,39.553 40.487,39.556 40.534,39.513 C 41.287,38.813 42.046,38.133 42.826,37.464 C 43.215,37.131 43.617,36.81 44.01,36.483 C 44.292,36.248 44.59,36.026 44.879,35.799 C 45.863,35.026 46.877,34.288 47.902,33.57 C 49.197,32.663 50.538,31.806 51.887,30.983 C 52.292,30.736 52.705,30.499 53.111,30.253 C 53.471,30.035 53.844,29.834 54.209,29.624 C 55.619,28.812 57.077,28.069 58.529,27.333 C 59.002,27.092 59.481,26.861 59.959,26.631 C 60.544,27.318 61.119,28.012 61.684,28.714 C 61.411,28.853 61.139,28.993 60.872,29.142 C 60.031,29.606 59.202,30.085 58.382,30.586 C 56.85,31.523 55.366,32.551 53.905,33.596 C 51.36,35.416 48.897,37.361 46.388,39.233 C 45.695,39.75 44.998,40.285 44.29,40.782 C 44.013,40.976 43.794,41.19 43.54,41.408 C 43.404,41.525 43.257,41.634 43.114,41.743 L 43.146,41.787 C 43.468,41.557 43.796,41.385 44.133,41.183 C 44.258,41.108 44.372,41.02 44.489,40.934 C 44.664,40.806 44.841,40.678 45.016,40.55 C 47.459,38.763 49.889,36.945 52.378,35.222 C 53.255,34.615 54.134,34.013 55.022,33.422 C 55.686,32.98 56.361,32.557 57.032,32.128 C 58.146,31.416 59.297,30.752 60.449,30.104 C 60.986,29.801 61.534,29.501 62.086,29.219 C 62.535,29.785 62.976,30.357 63.409,30.936 C 62.81,31.201 62.218,31.48 61.631,31.77 C 60.964,32.099 60.298,32.485 59.651,32.854 C 58.794,33.343 57.942,33.837 57.1,34.352 C 53.741,36.408 50.536,38.621 47.422,41.031 C 47.386,41.059 47.379,41.112 47.407,41.148 C 47.435,41.184 47.488,41.191 47.524,41.163 C 48.147,40.686 48.767,40.219 49.398,39.753 C 50.275,39.104 51.184,38.503 52.087,37.892 C 52.69,37.484 53.313,37.094 53.932,36.71 C 54.924,36.094 55.938,35.49 56.959,34.924 C 57.965,34.366 58.972,33.821 59.998,33.302 C 60.665,32.965 61.343,32.648 62.007,32.308 C 62.591,32.008 63.176,31.708 63.761,31.408 C 64.135,31.916 64.504,32.429 64.866,32.947 C 65.515,34.029 66.129,35.125 66.731,36.236 C 67.19,37.084 67.629,37.943 68.054,38.807 C 67.177,38.957 66.323,39.265 65.499,39.589 C 64.944,39.807 64.383,40.034 63.846,40.294 C 63.343,40.538 62.84,40.774 62.344,41.034 C 62.161,41.13 61.981,41.233 61.797,41.328 C 60.911,41.788 60.048,42.321 59.19,42.831 C 57.774,43.672 56.374,44.546 54.964,45.397 C 54.94,45.411 54.932,45.445 54.946,45.469 C 54.96,45.493 54.994,45.501 55.018,45.487 C 55.625,45.117 56.24,44.762 56.849,44.396 C 57.46,44.029 58.077,43.663 58.698,43.313 C 59.134,43.067 59.566,42.815 60.005,42.574 C 61.207,41.914 62.446,41.287 63.713,40.761 C 64.605,40.391 65.525,40.037 66.454,39.772 C 67.06,39.599 67.674,39.446 68.278,39.264 C 68.7,40.133 69.111,41.006 69.518,41.882 C 69.404,41.903 69.291,41.927 69.178,41.961 C 69.033,42.003 68.885,42.038 68.74,42.081 C 68.208,42.239 67.695,42.424 67.18,42.63 C 66.962,42.717 66.73,42.812 66.52,42.916 C 66.23,43.059 65.93,43.185 65.644,43.335 C 65.189,43.574 64.746,43.821 64.295,44.066 C 64.093,44.176 63.888,44.302 63.692,44.422 C 63.327,44.645 62.962,44.868 62.597,45.091 C 62.405,45.208 62.219,45.337 62.027,45.454 C 61.593,45.72 61.167,46.006 60.738,46.281 C 60.337,46.538 59.931,46.788 59.531,47.045 C 58.737,47.555 57.908,48.011 57.08,48.462 C 56.995,48.507 56.964,48.614 57.009,48.699 C 57.054,48.784 57.161,48.815 57.246,48.77 C 57.771,48.48 58.304,48.204 58.82,47.898 C 59.319,47.601 59.813,47.296 60.312,46.998 C 61.354,46.376 62.37,45.718 63.423,45.111 C 63.758,44.918 64.105,44.709 64.449,44.535 C 64.693,44.411 64.935,44.272 65.181,44.153 C 65.453,44.021 65.725,43.884 66,43.758 C 66.177,43.677 66.361,43.605 66.539,43.526 C 67.423,43.133 68.459,42.781 69.408,42.594 C 69.539,42.567 69.673,42.535 69.806,42.503 C 69.824,42.54 69.841,42.578 69.859,42.616 C 69.936,42.783 70.014,42.951 70.092,43.118 C 70.163,43.33 70.237,43.543 70.303,43.757 C 70.424,44.151 70.559,44.544 70.684,44.938 C 70.946,45.764 71.197,46.597 71.439,47.429 C 71.597,47.972 71.755,48.554 71.911,49.074 C 71.962,49.308 72.032,49.547 72.088,49.782 C 72.184,50.184 72.262,50.627 72.31,51.038 C 72.465,52.366 72.457,53.668 72.208,54.985 C 72.187,55.095 72.165,55.207 72.142,55.318 C 72.131,55.352 72.12,55.386 72.109,55.42 C 72.073,55.525 72.033,55.639 71.99,55.751 C 71.09,56.275 70.208,56.836 69.346,57.413 C 69.059,57.604 68.78,57.804 68.503,58.007 L 67.685,58.608 L 66.863,58.121 L 66.841,58.159 C 67.062,58.293 67.285,58.427 67.507,58.559 C 67.534,58.575 67.674,58.673 67.693,58.663 C 67.747,58.635 67.825,58.569 67.882,58.529 C 68.071,58.396 68.26,58.261 68.448,58.126 C 68.915,57.792 69.423,57.495 69.912,57.193 C 70.37,56.91 70.862,56.645 71.339,56.395 C 71.499,56.31 71.661,56.228 71.822,56.146 C 71.644,56.542 71.468,56.959 71.251,57.332 C 71.087,57.612 70.939,57.899 70.76,58.171 C 70.565,58.467 70.373,58.752 70.17,59.043 C 69.887,59.448 69.549,59.865 69.218,60.232 C 68.19,61.373 67.081,62.378 65.81,63.244 C 65.216,63.649 64.614,64.032 63.987,64.384 C 61.226,65.933 57.834,66.891 54.656,66.763 C 53.922,66.733 53.229,66.654 52.505,66.528 C 52.434,66.517 52.365,66.566 52.354,66.637 C 52.343,66.708 52.392,66.777 52.463,66.788 C 52.946,66.871 53.423,66.938 53.911,66.985 C 54.365,67.029 54.82,67.034 55.275,67.043 C 55.606,67.049 55.936,67.026 56.266,67.014 C 56.724,66.997 57.205,66.942 57.658,66.876 C 58.484,66.755 59.305,66.599 60.108,66.368 C 60.568,66.236 61.018,66.101 61.469,65.939 C 61.58,65.899 61.699,65.862 61.807,65.817 C 62.122,65.686 62.444,65.572 62.758,65.433 C 63.216,65.23 63.656,65.015 64.105,64.792 C 64.307,64.691 64.519,64.573 64.714,64.458 C 65.127,64.215 65.546,63.979 65.941,63.706 C 66.604,63.247 67.238,62.77 67.846,62.239 C 68.503,61.665 69.157,61.022 69.719,60.355 C 70.072,59.935 70.405,59.503 70.72,59.052 C 70.062,60.206 69.258,61.256 68.337,62.191 C 68.217,62.294 68.1,62.396 67.989,62.503 C 67.956,62.53 67.932,62.564 67.916,62.603 C 67.429,63.06 66.913,63.489 66.371,63.886 C 65.793,64.309 65.174,64.718 64.542,65.055 C 64.122,65.279 63.713,65.501 63.276,65.693 C 62.227,66.155 61.134,66.569 60.011,66.814 C 59.637,66.896 59.265,66.993 58.886,67.054 C 58.252,67.155 57.603,67.251 56.961,67.283 C 56.587,67.302 56.198,67.334 55.824,67.323 C 55.354,67.31 54.88,67.312 54.411,67.269 C 53.262,67.165 52.183,66.992 51.069,66.688 C 50.886,66.638 50.699,66.589 50.519,66.53 C 50.313,66.462 50.099,66.401 49.896,66.328 C 49.633,66.233 49.374,66.134 49.117,66.03 C 50.179,66.213 51.248,66.318 52.304,66.352 C 53.39,66.387 54.448,66.349 55.53,66.247 C 55.889,66.212 56.252,66.172 56.618,66.123 C 56.685,66.119 56.755,66.115 56.825,66.113 C 56.856,66.113 56.886,66.101 56.908,66.082 C 57.267,66.029 57.623,65.968 57.975,65.898 C 58.218,65.849 58.461,65.791 58.704,65.744 C 59.022,65.682 59.344,65.594 59.657,65.512 C 59.828,65.467 60.001,65.424 60.17,65.372 C 60.983,65.12 61.785,64.886 62.555,64.511 C 63.04,64.275 63.513,63.965 63.944,63.64 C 64.08,63.538 64.212,63.425 64.35,63.326 C 64.266,63.314 63.836,63.459 63.726,63.493 C 63.265,63.636 62.797,63.759 62.336,63.905 C 61.877,64.05 61.429,64.225 60.973,64.378 C 60.85,64.419 60.73,64.466 60.606,64.502 C 60.325,64.583 60.046,64.674 59.764,64.754 C 59.151,64.929 58.507,65.082 57.881,65.2 C 57.004,65.365 56.123,65.496 55.234,65.572 C 55.028,65.589 54.823,65.61 54.616,65.625 C 54.454,65.603 54.291,65.575 54.128,65.555 C 53.771,65.51 53.392,65.431 53.04,65.354 C 52.42,65.217 51.799,65.069 51.195,64.872 C 50.744,64.725 50.304,64.568 49.869,64.401 C 50.641,63.991 51.42,63.591 52.193,63.185 C 52.462,63.043 52.736,62.907 53.003,62.761 C 53.477,62.503 53.947,62.234 54.422,61.979 C 54.513,61.925 54.542,61.806 54.488,61.715 C 54.434,61.624 54.315,61.595 54.224,61.649 C 53.781,61.931 53.339,62.209 52.894,62.486 C 52.593,62.673 52.277,62.853 51.97,63.032 C 51.211,63.473 50.447,63.902 49.682,64.328 C 49.137,64.114 48.6,63.882 48.063,63.631 C 47.665,63.445 47.266,63.238 46.874,63.022 C 47.64,62.447 48.386,61.805 49.192,61.292 C 49.42,61.147 49.655,61.014 49.893,60.885 C 50.275,60.678 50.673,60.558 51.084,60.428 C 51.241,60.372 51.322,60.197 51.266,60.04 C 51.21,59.883 51.035,59.802 50.878,59.858 C 50.172,60.131 49.491,60.563 48.909,61.045 C 48.658,61.253 48.419,61.471 48.171,61.683 C 47.727,62.064 47.298,62.462 46.853,62.844 C 46.813,62.877 46.773,62.911 46.733,62.944 C 46.55,62.841 46.368,62.737 46.19,62.632 C 46.007,62.524 45.828,62.403 45.644,62.298 C 45.49,62.21 45.342,62.106 45.193,62.01 C 44.947,61.852 44.708,61.69 44.473,61.525 C 44.739,61.288 45.019,61.054 45.291,60.828 C 46.36,59.935 47.411,59.045 48.654,58.404 C 48.907,58.273 49.16,58.186 49.422,58.082 C 49.575,58.021 49.65,57.846 49.589,57.693 C 49.528,57.54 49.353,57.465 49.2,57.526 C 47.896,58.042 46.74,59.015 45.688,59.922 C 45.372,60.194 45.044,60.471 44.738,60.753 C 44.545,60.93 44.34,61.117 44.138,61.285 C 43.734,60.992 43.338,60.688 42.939,60.378 C 42.65,60.153 42.373,59.918 42.1,59.679 C 42.236,59.577 42.371,59.475 42.504,59.37 C 42.941,59.023 43.402,58.692 43.859,58.371 C 45.208,57.422 46.551,56.668 48.08,56.048 C 48.216,55.991 48.28,55.831 48.223,55.695 C 48.166,55.559 48.006,55.495 47.87,55.552 C 47.612,55.654 47.333,55.785 47.085,55.911 C 46.628,56.143 46.189,56.37 45.745,56.628 C 44.993,57.065 44.274,57.543 43.568,58.052 C 43.055,58.422 42.52,58.801 42.034,59.205 C 41.953,59.271 41.873,59.338 41.793,59.405 C 41.58,59.215 41.369,59.023 41.156,58.833 C 40.98,58.676 40.807,58.51 40.638,58.341 C 40.689,58.301 40.74,58.26 40.792,58.22 C 42.325,57.016 43.935,55.959 45.685,55.094 C 46.345,54.768 47.037,54.463 47.737,54.234 C 47.887,54.181 47.965,54.015 47.912,53.865 C 47.859,53.715 47.693,53.637 47.543,53.69 C 47.113,53.844 46.669,53.997 46.256,54.192 C 45.855,54.382 45.455,54.568 45.068,54.787 C 44.203,55.276 43.391,55.796 42.582,56.373 C 41.825,56.912 41.082,57.476 40.358,58.06 C 40.304,58.005 40.251,57.951 40.198,57.898 C 39.929,57.626 39.664,57.348 39.404,57.066 C 39.553,56.946 39.701,56.83 39.849,56.716 C 41.756,55.235 44.009,54.097 46.232,53.177 C 46.352,53.125 46.406,52.983 46.354,52.863 C 46.302,52.743 46.16,52.689 46.04,52.741 C 45.701,52.896 45.36,53.046 45.021,53.201 C 44.753,53.324 44.48,53.461 44.216,53.593 C 43.484,53.959 42.773,54.329 42.069,54.748 C 41.386,55.155 40.7,55.583 40.064,56.06 C 39.752,56.293 39.444,56.531 39.144,56.779 C 39.09,56.718 39.036,56.658 38.982,56.597 C 39.811,55.778 40.609,54.931 41.403,54.079 C 41.579,53.888 41.754,53.696 41.929,53.502 C 42.125,53.386 42.324,53.27 42.517,53.148 C 42.7,53.031 42.886,52.91 43.073,52.799 C 43.169,52.738 43.197,52.61 43.136,52.514 C 43.078,52.422 42.959,52.392 42.865,52.442 C 43.079,52.199 43.294,51.957 43.512,51.717 C 43.747,51.457 43.975,51.19 44.209,50.929 C 44.403,50.712 44.602,50.497 44.772,50.26 C 44.991,49.954 45.136,49.619 45.3,49.284 C 44.991,49.478 44.692,49.657 44.415,49.898 C 44.173,50.109 43.961,50.374 43.749,50.616 C 43.395,51.02 43.039,51.423 42.683,51.826 C 42.183,52.39 41.683,52.952 41.177,53.51 C 40.941,53.66 40.707,53.816 40.488,53.976 C 40.181,54.198 39.874,54.416 39.59,54.664 C 39.593,54.66 39.595,54.657 39.598,54.654 C 39.765,54.423 39.921,54.175 40.072,53.925 C 40.368,53.601 40.666,53.275 40.952,52.942 C 41.319,52.515 41.681,52.085 42.045,51.656 C 42.381,51.261 42.706,50.841 43.022,50.429 C 43.522,49.776 44.014,49.118 44.502,48.456 C 44.905,47.909 45.292,47.349 45.695,46.803 C 45.808,46.645 45.771,46.424 45.613,46.311 C 45.455,46.198 45.234,46.235 45.121,46.393 C 44.717,46.945 44.329,47.507 43.918,48.055 C 43.415,48.725 42.893,49.38 42.364,50.029 C 42.016,50.456 41.665,50.881 41.311,51.303 C 41.396,51.034 41.461,50.752 41.537,50.483 C 41.553,50.44 41.532,50.391 41.489,50.375 C 41.446,50.359 41.397,50.38 41.381,50.423 C 41.038,51.072 40.654,51.689 40.286,52.323 C 40.179,52.505 40.074,52.689 39.966,52.871 C 39.56,53.327 39.137,53.777 38.719,54.217 C 38.412,54.537 38.104,54.856 37.792,55.17 C 37.763,55.133 37.734,55.097 37.706,55.06 C 37.667,55.011 37.595,55.003 37.546,55.042 C 37.497,55.081 37.489,55.153 37.528,55.202 C 37.563,55.244 37.598,55.288 37.633,55.331 C 37.263,55.702 36.887,56.067 36.504,56.425 C 34.974,57.851 33.382,59.179 31.699,60.365 C 31.316,60.577 30.931,60.784 30.548,60.992 C 30.03,61.271 29.505,61.554 28.977,61.815 C 28.761,61.904 28.538,61.984 28.318,62.054 C 27.589,62.285 26.853,62.523 26.112,62.715 C 25.319,62.92 24.53,63.087 23.722,63.223 C 22.931,63.356 22.138,63.437 21.34,63.501 C 20.76,63.547 20.144,63.581 19.562,63.576 C 18.874,63.57 18.206,63.564 17.518,63.528 C 17.125,63.507 16.727,63.465 16.333,63.435 C 16.168,63.422 16.001,63.392 15.836,63.38 C 15.475,63.354 15.095,63.287 14.736,63.234 C 13.94,63.115 13.099,62.968 12.321,62.762 C 11.762,62.614 11.21,62.473 10.659,62.296 C 8.645,61.648 6.594,60.686 4.963,59.32 C 4.665,59.07 4.359,58.799 4.07,58.512 C 3.856,57.979 3.664,57.441 3.496,56.886 C 3.385,56.519 3.291,56.149 3.193,55.778 C 2.988,54.997 2.875,54.189 2.753,53.392 C 2.678,52.901 2.635,52.374 2.604,51.878 C 2.478,49.903 2.543,47.946 2.802,45.984 C 2.939,45.436 3.086,44.887 3.247,44.349 C 4.165,41.274 5.319,38.299 6.715,35.438 C 6.872,35.16 7.027,34.887 7.176,34.613 C 7.557,33.909 7.967,33.211 8.365,32.517 C 8.423,32.415 8.481,32.313 8.54,32.21 C 8.654,32.033 8.769,31.858 8.884,31.683 C 9.497,30.749 10.163,29.822 10.859,28.948 C 11.156,28.574 11.452,28.193 11.767,27.835 C 12.401,27.115 13.032,26.426 13.709,25.746 C 14.074,25.379 14.461,25.03 14.844,24.682 C 15.723,23.882 16.691,23.155 17.671,22.485 C 17.876,22.345 18.092,22.216 18.299,22.079 C 18.72,21.8 19.15,21.525 19.58,21.26 C 19.712,21.179 19.848,21.103 19.978,21.02 C 20.053,20.982 20.083,20.888 20.045,20.813 C 20.007,20.738 19.913,20.708 19.838,20.746 C 18.698,21.196 17.652,21.821 16.667,22.547 C 16.267,22.842 15.856,23.137 15.474,23.456 C 15.38,23.533 15.286,23.611 15.191,23.69 C 15.555,23.298 15.923,22.91 16.296,22.529 C 18.412,20.362 20.623,18.312 22.973,16.414 C 23.468,16.141 23.97,15.887 24.474,15.657 C 24.539,15.627 24.567,15.547 24.537,15.482 C 24.507,15.417 24.427,15.389 24.362,15.419 C 24.249,15.472 24.137,15.527 24.027,15.581 C 24.185,15.459 24.344,15.337 24.504,15.216 C 26.008,14.073 27.569,12.996 29.174,12.015 C 29.981,11.627 30.786,11.264 31.602,10.906 C 32.122,10.678 32.661,10.466 33.191,10.264 C 34.316,9.835 35.455,9.439 36.609,9.095 C 36.757,9.05 36.905,9.007 37.053,8.965 C 35.395,10.007 33.753,11.072 32.132,12.168 C 29.832,13.722 27.573,15.378 25.448,17.165 C 24.111,18.29 22.814,19.462 21.609,20.729 C 21.277,21.078 21.018,21.482 20.701,21.848 C 20.681,21.871 20.683,21.909 20.706,21.929 C 20.729,21.949 20.767,21.947 20.787,21.924 C 20.938,21.745 21.132,21.563 21.309,21.409 C 21.439,21.296 21.578,21.193 21.695,21.066 C 22.16,20.564 22.662,20.07 23.161,19.6 C 23.874,18.928 24.594,18.266 25.351,17.643 C 25.694,17.361 26.031,17.07 26.378,16.793 C 27.226,16.116 28.091,15.444 28.973,14.813 C 29.666,14.318 30.357,13.826 31.058,13.342 C 31.503,13.035 31.957,12.741 32.404,12.436 C 33.091,11.967 33.807,11.526 34.508,11.078 C 35.86,10.213 37.232,9.374 38.609,8.546 C 38.852,8.488 39.097,8.436 39.336,8.363 C 39.665,8.261 39.978,8.146 40.302,8.036 C 40.438,8.124 40.573,8.212 40.707,8.3 Z M 40.697,8.142 C 41.083,8.362 41.474,8.59 41.867,8.82 C 41.872,8.823 41.878,8.826 41.883,8.829 C 41.873,8.836 41.862,8.843 41.852,8.85 C 41.438,8.586 41.021,8.329 40.6,8.096 C 40.624,8.107 40.657,8.122 40.697,8.142 Z M 43.823,10.038 C 44.164,10.256 44.504,10.479 44.842,10.705 C 44.784,10.736 44.726,10.767 44.668,10.799 C 44.001,10.283 43.313,9.792 42.609,9.338 C 42.484,9.257 42.36,9.177 42.236,9.097 C 42.25,9.086 42.264,9.076 42.279,9.065 C 42.798,9.38 43.312,9.711 43.823,10.038 Z M 47.725,12.745 C 47.849,12.837 47.974,12.93 48.099,13.023 C 48.086,13.03 48.073,13.037 48.061,13.044 C 47.917,13.121 47.773,13.2 47.63,13.28 C 47.376,13.06 47.121,12.839 46.871,12.617 C 46.515,12.301 46.138,12.002 45.774,11.694 C 45.578,11.528 45.381,11.365 45.181,11.204 C 45.254,11.164 45.328,11.124 45.401,11.084 C 46.187,11.622 46.962,12.178 47.725,12.745 Z M 29.803,11.17 C 29.804,11.173 29.806,11.177 29.807,11.182 C 29.689,11.227 29.712,11.21 29.799,11.165 C 29.801,11.166 29.802,11.168 29.803,11.17 Z M 49.142,13.817 C 49.353,13.983 49.564,14.153 49.776,14.32 C 49.938,14.465 50.1,14.612 50.261,14.759 C 50.063,14.871 49.866,14.985 49.671,15.1 C 49.216,14.681 48.758,14.267 48.296,13.86 C 48.226,13.798 48.155,13.736 48.085,13.675 C 48.255,13.581 48.425,13.488 48.596,13.395 C 48.779,13.534 48.961,13.674 49.142,13.817 Z M 51.708,16.128 C 52.071,16.485 52.433,16.842 52.792,17.203 C 52.599,17.286 52.407,17.371 52.219,17.461 C 52.206,17.466 52.194,17.472 52.182,17.478 C 52.069,17.368 51.957,17.259 51.844,17.151 C 51.268,16.596 50.687,16.044 50.1,15.497 C 50.303,15.388 50.507,15.28 50.711,15.174 C 51.048,15.487 51.38,15.805 51.708,16.128 Z M 53.25,17.667 C 53.924,18.357 54.585,19.065 55.231,19.784 C 55.206,19.803 55.18,19.821 55.155,19.84 C 55.037,19.924 54.919,20.009 54.801,20.094 C 54.075,19.348 53.341,18.611 52.597,17.882 C 52.785,17.78 52.974,17.679 53.163,17.578 C 53.192,17.607 53.221,17.637 53.25,17.667 Z M 57.988,21.683 C 58.238,21.952 58.486,22.224 58.73,22.498 C 58.674,22.523 58.619,22.549 58.563,22.575 C 58.356,22.322 58.146,22.07 57.932,21.829 C 57.544,21.395 57.164,20.952 56.776,20.517 C 56.555,20.269 56.333,20.023 56.107,19.776 C 56.111,19.773 56.115,19.77 56.118,19.767 C 56.759,20.394 57.384,21.033 57.988,21.683 Z M 56.329,21.033 C 56.564,21.306 56.806,21.574 57.034,21.852 C 57.055,21.877 57.076,21.903 57.097,21.929 C 57.076,21.912 57.055,21.895 57.034,21.879 C 56.997,21.847 56.94,21.852 56.908,21.889 C 56.876,21.926 56.881,21.983 56.918,22.015 C 57.22,22.301 57.533,22.585 57.84,22.867 C 57.853,22.879 57.867,22.892 57.881,22.905 C 57.786,22.951 57.692,22.997 57.598,23.042 C 56.807,22.188 56.008,21.341 55.2,20.505 C 55.332,20.402 55.465,20.298 55.596,20.193 C 55.842,20.472 56.087,20.752 56.329,21.033 Z M 61.05,25.373 C 60.76,25.093 60.428,24.783 60.089,24.474 C 59.721,24.004 59.345,23.535 58.965,23.069 C 58.952,23.053 58.939,23.037 58.926,23.021 C 58.988,22.992 59.05,22.962 59.113,22.932 C 59.793,23.717 60.447,24.524 61.05,25.373 Z M 58.926,24.197 C 59.357,24.737 59.777,25.296 60.188,25.858 C 60.173,25.866 60.158,25.873 60.144,25.88 C 59.437,25.065 58.718,24.26 57.991,23.469 C 58.078,23.425 58.166,23.382 58.254,23.34 C 58.478,23.625 58.699,23.913 58.926,24.197 Z M 11.637,26.248 C 11.203,26.827 10.77,27.402 10.356,27.996 C 10.032,28.459 9.718,28.928 9.406,29.408 C 9.084,29.837 8.759,30.275 8.438,30.717 C 8.24,30.989 8.05,31.267 7.852,31.539 C 7.729,31.707 7.608,31.877 7.488,32.047 C 7.625,31.802 7.766,31.558 7.913,31.318 C 8.25,30.764 8.584,30.208 8.95,29.672 C 9.233,29.258 9.521,28.852 9.811,28.443 C 10.208,27.884 10.653,27.353 11.084,26.82 C 11.413,26.412 11.777,25.991 12.153,25.592 C 11.975,25.814 11.802,26.028 11.637,26.248 Z M 63.114,28.456 C 63.296,28.771 63.474,29.087 63.645,29.412 C 63.463,29.139 63.282,28.869 63.103,28.598 C 62.915,28.315 62.714,28.036 62.518,27.758 C 62.719,27.989 62.917,28.222 63.114,28.456 Z M 67.273,33.849 C 67.59,34.313 67.901,34.777 68.203,35.24 C 67.81,34.655 67.401,34.075 66.974,33.505 C 66.779,33.245 66.589,32.983 66.386,32.729 C 66.342,32.674 66.299,32.62 66.256,32.566 C 66.17,32.401 66.083,32.238 65.995,32.074 C 66.433,32.658 66.863,33.248 67.273,33.849 Z M 65.634,32.487 C 65.677,32.541 65.72,32.596 65.763,32.651 C 65.967,33.045 66.165,33.44 66.36,33.838 C 66.374,33.868 66.389,33.898 66.401,33.928 C 66.151,33.458 65.882,32.998 65.61,32.54 C 65.567,32.468 65.524,32.396 65.481,32.324 C 65.478,32.31 65.475,32.297 65.472,32.284 C 65.526,32.351 65.58,32.419 65.634,32.487 Z M 61.13,35.292 C 60.263,35.675 59.385,36.042 58.528,36.446 C 57.986,36.701 57.444,36.952 56.904,37.212 C 56.027,37.634 55.153,38.095 54.312,38.584 C 53.271,39.188 52.248,39.829 51.299,40.571 C 50.844,40.927 50.419,41.279 49.985,41.66 C 49.823,41.802 49.648,41.958 49.499,42.112 C 49.414,42.192 49.409,42.327 49.489,42.412 C 49.569,42.497 49.704,42.502 49.789,42.422 C 50.028,42.175 50.304,41.953 50.558,41.721 C 50.792,41.508 51.05,41.314 51.297,41.116 C 51.627,40.852 51.974,40.6 52.322,40.36 C 54.633,38.763 57.225,37.55 59.812,36.471 C 60.558,36.16 61.305,35.848 62.053,35.54 C 62.456,35.374 62.871,35.215 63.267,35.032 C 63.778,34.796 64.275,34.553 64.776,34.295 C 64.894,34.243 64.948,34.103 64.896,33.985 C 64.844,33.867 64.704,33.813 64.586,33.865 C 63.407,34.29 62.277,34.786 61.13,35.292 Z M 70.462,39.87 C 71.104,41.101 71.693,42.397 72.167,43.702 C 72.342,44.183 72.517,44.669 72.669,45.158 C 73.098,46.54 73.411,47.953 73.606,49.386 C 73.663,49.805 73.714,50.251 73.738,50.676 C 73.734,51.582 73.657,52.485 73.497,53.375 C 73.388,53.976 73.247,54.568 73.061,55.15 C 73.02,55.173 72.979,55.195 72.938,55.218 C 72.913,55.231 72.889,55.244 72.865,55.257 C 72.978,54.644 73.053,54.032 73.083,53.393 C 73.083,53.385 73.083,53.378 73.082,53.37 C 73.219,52.692 73.293,51.98 73.266,51.301 C 73.245,50.789 73.191,50.321 73.106,49.839 C 73.192,50.044 73.279,50.248 73.368,50.453 C 73.165,49.752 72.973,49.042 72.755,48.346 C 72.587,47.808 72.425,47.264 72.247,46.729 C 71.755,45.248 71.226,43.773 70.618,42.335 C 70.581,42.249 70.545,42.164 70.509,42.08 C 70.508,42.067 70.507,42.055 70.505,42.044 C 70.494,41.981 70.465,41.927 70.425,41.883 C 70.151,41.25 69.867,40.623 69.576,40 C 69.566,39.976 69.557,39.951 69.548,39.927 C 68.886,38.192 68.166,36.488 67.378,34.821 C 68.512,36.435 69.548,38.118 70.462,39.87 Z M 59.906,38.784 C 58.44,39.606 57.06,40.484 55.724,41.506 C 55.391,41.761 55.058,42.018 54.737,42.288 C 54.59,42.412 54.434,42.53 54.293,42.661 C 53.878,43.048 53.458,43.43 53.046,43.821 C 52.982,43.88 52.977,43.981 53.036,44.045 C 53.095,44.109 53.196,44.114 53.26,44.055 C 53.668,43.666 54.105,43.309 54.542,42.953 C 54.702,42.823 54.857,42.686 55.019,42.559 C 55.339,42.307 55.652,42.05 55.977,41.802 C 56.644,41.293 57.341,40.816 58.05,40.367 C 59.965,39.155 61.98,38.212 64.095,37.405 C 64.593,37.215 65.108,37.026 65.615,36.864 C 65.767,36.809 65.846,36.64 65.791,36.488 C 65.736,36.336 65.567,36.257 65.415,36.312 C 63.532,37.021 61.664,37.798 59.906,38.784 Z M 3.579,40.335 C 3.553,40.395 3.528,40.454 3.504,40.515 C 2.782,42.254 2.179,44.005 1.718,45.832 C 1.638,46.145 1.565,46.459 1.498,46.774 C 1.758,44.856 2.289,42.962 3.037,41.151 C 3.32,40.463 3.639,39.765 3.989,39.095 C 3.845,39.507 3.709,39.921 3.579,40.335 Z M 71.799,41.892 C 71.815,41.931 71.832,41.97 71.843,42.012 C 71.959,42.24 71.873,42.026 71.765,41.819 C 71.778,41.843 71.788,41.867 71.799,41.892 Z M 72.675,44.275 C 72.695,44.337 72.715,44.399 72.727,44.465 C 72.795,44.602 72.715,44.347 72.609,44.096 C 72.637,44.161 72.656,44.218 72.675,44.275 Z M 68.641,46.564 C 68.515,46.61 68.388,46.655 68.266,46.711 C 66.74,47.412 65.369,48.336 63.969,49.252 C 63.415,49.614 62.864,49.978 62.308,50.337 C 61.907,50.596 61.486,50.855 61.071,51.092 C 60.659,51.327 60.239,51.536 59.822,51.76 L 59.852,51.82 C 60.06,51.708 60.276,51.608 60.484,51.497 C 61.032,51.205 61.571,50.9 62.11,50.591 C 63.379,49.864 64.62,49.082 65.916,48.402 C 66.713,47.984 67.573,47.57 68.42,47.267 C 68.696,47.168 68.968,47.046 69.244,46.944 C 69.471,46.86 69.717,46.794 69.95,46.723 C 70.104,46.673 70.188,46.507 70.138,46.353 C 70.088,46.199 69.922,46.115 69.768,46.165 C 69.389,46.296 69.017,46.427 68.641,46.564 Z M 72.622,48.702 C 72.678,48.832 72.734,48.962 72.789,49.093 C 72.833,49.516 72.853,49.934 72.863,50.356 C 72.819,50.114 72.768,49.873 72.714,49.629 C 72.616,49.192 72.48,48.763 72.356,48.332 C 72.289,48.099 72.22,47.866 72.152,47.635 C 72.309,47.989 72.467,48.345 72.622,48.702 Z M 70.382,48.537 C 69.273,49.051 68.232,49.722 67.206,50.381 C 66.54,50.808 65.893,51.261 65.252,51.722 L 63.397,53.061 L 63.569,52.703 C 63.786,52.26 64.035,51.8 64.342,51.453 C 64.015,51.75 63.734,52.367 63.518,52.747 C 63.466,52.838 63.415,52.939 63.369,53.032 C 63.359,53.053 63.307,53.126 63.332,53.141 C 63.359,53.158 63.415,53.099 63.442,53.082 C 63.54,53.019 63.638,52.95 63.734,52.883 C 64.156,52.589 64.595,52.306 65.03,52.031 C 66.194,51.295 67.389,50.586 68.627,49.983 C 69.257,49.676 69.919,49.376 70.578,49.138 C 70.769,49.069 70.957,48.981 71.148,48.91 C 71.31,48.845 71.389,48.66 71.324,48.498 C 71.259,48.336 71.074,48.257 70.912,48.322 C 70.737,48.394 70.553,48.458 70.382,48.537 Z M 2.046,52.128 C 2.102,52.909 2.218,53.664 2.335,54.437 C 2.404,54.895 2.507,55.402 2.623,55.85 C 2.678,56.062 2.733,56.272 2.791,56.487 C 2.681,56.24 2.577,55.992 2.478,55.738 C 2.069,54.688 1.775,53.618 1.584,52.539 L 1.606,52.41 C 1.742,51.603 1.851,50.793 1.976,49.985 C 1.971,50.698 1.994,51.412 2.046,52.128 Z M 70.899,51.283 C 70.53,51.479 70.176,51.658 69.821,51.883 C 69.131,52.32 68.476,52.808 67.789,53.248 C 67.563,53.393 67.333,53.535 67.1,53.668 C 66.922,53.769 66.738,53.854 66.558,53.948 C 66.457,54.001 66.336,54.059 66.23,54.1 C 66.122,54.141 66.016,54.19 65.909,54.232 C 65.772,54.286 65.624,54.325 65.486,54.378 C 65.44,54.394 65.414,54.446 65.43,54.492 C 65.446,54.538 65.498,54.564 65.544,54.548 C 65.685,54.496 65.83,54.453 65.971,54.402 C 66.097,54.356 66.226,54.299 66.352,54.25 C 66.443,54.215 66.54,54.167 66.629,54.125 C 66.946,53.975 67.255,53.828 67.56,53.654 C 68.899,52.887 70.145,52.008 71.626,51.534 C 71.761,51.481 71.828,51.326 71.775,51.191 C 71.722,51.056 71.567,50.989 71.432,51.042 C 71.263,51.105 71.058,51.198 70.899,51.283 Z M 1.156,54.224 C 1.231,54.774 1.333,55.322 1.463,55.853 C 1.492,55.983 1.622,56.065 1.752,56.036 C 1.772,56.031 1.792,56.024 1.81,56.014 C 2.013,56.537 2.241,57.051 2.497,57.554 C 2.995,58.534 3.566,59.421 4.236,60.272 C 4.348,60.489 4.463,60.704 4.582,60.915 C 4.724,61.168 4.87,61.428 5.034,61.669 C 4.227,60.921 3.551,60.172 2.922,59.256 C 2.787,59.059 2.637,58.838 2.523,58.629 C 2.451,58.497 2.372,58.37 2.302,58.237 C 2.03,57.72 1.786,57.184 1.603,56.629 C 1.326,55.793 1.156,54.92 1.107,54.042 C 1.123,54.102 1.139,54.163 1.156,54.224 Z M 39.358,55.481 C 39.118,55.722 38.882,55.965 38.644,56.207 C 38.612,56.169 38.58,56.131 38.548,56.094 C 38.589,56.041 38.631,55.988 38.674,55.937 C 38.675,55.938 38.676,55.939 38.678,55.94 C 38.755,55.999 38.866,55.984 38.925,55.907 C 39.266,55.455 39.639,55.088 40.044,54.759 C 39.817,55.006 39.589,55.247 39.358,55.481 Z M 72.857,55.759 C 72.781,55.955 72.703,56.151 72.628,56.348 C 72.625,56.354 72.623,56.36 72.619,56.37 C 72.64,56.293 72.658,56.22 72.676,56.148 C 72.713,55.989 72.749,55.832 72.782,55.675 C 72.824,55.655 72.866,55.635 72.908,55.616 C 72.892,55.664 72.875,55.712 72.857,55.759 Z M 38.42,56.296 C 38.441,56.32 38.462,56.345 38.483,56.369 C 38.261,56.593 38.037,56.815 37.806,57.033 C 37.773,57.063 37.741,57.093 37.71,57.123 C 37.947,56.846 38.175,56.562 38.403,56.276 C 38.409,56.283 38.414,56.289 38.42,56.296 Z M 38.971,56.924 C 38.919,56.968 38.867,57.012 38.816,57.057 C 38.803,57.037 38.791,57.017 38.779,56.998 C 38.752,56.956 38.718,56.92 38.681,56.891 C 38.728,56.846 38.775,56.8 38.821,56.755 C 38.871,56.811 38.921,56.868 38.971,56.924 Z M 39.789,57.822 C 39.912,57.954 40.037,58.085 40.165,58.216 C 40.084,58.282 40.003,58.348 39.923,58.415 C 39.883,58.447 39.844,58.48 39.805,58.513 C 39.534,58.141 39.273,57.763 39.023,57.38 C 39.091,57.322 39.159,57.266 39.227,57.209 C 39.412,57.414 39.599,57.618 39.789,57.822 Z M 34.838,59.18 C 34.285,59.698 33.693,60.177 33.102,60.651 C 32.796,60.897 32.488,61.126 32.175,61.361 C 32.043,61.459 31.904,61.565 31.767,61.657 C 31.342,61.899 30.898,62.127 30.465,62.332 C 30.141,62.485 29.818,62.642 29.487,62.778 C 29.324,62.845 29.16,62.913 28.995,62.978 C 29.114,62.913 29.232,62.847 29.351,62.78 C 31.176,61.739 32.882,60.53 34.516,59.212 C 35.045,58.785 35.588,58.336 36.09,57.877 C 36.292,57.691 36.493,57.506 36.695,57.319 C 36.101,57.964 35.477,58.58 34.838,59.18 Z M 38.183,57.644 C 38.118,57.709 38.054,57.774 37.991,57.841 C 37.92,57.91 37.918,58.026 37.987,58.097 C 38.056,58.168 38.172,58.17 38.243,58.101 C 38.289,58.053 38.337,58.005 38.385,57.958 C 38.635,58.34 38.9,58.721 39.172,59.085 C 38.99,59.247 38.808,59.409 38.63,59.574 C 38.587,59.515 38.544,59.455 38.502,59.396 C 38.196,58.965 37.916,58.496 37.673,58.026 C 37.651,57.984 37.629,57.942 37.608,57.9 C 37.764,57.757 37.919,57.614 38.074,57.469 C 38.11,57.528 38.146,57.586 38.183,57.644 Z M 41.584,59.58 C 41.396,59.737 41.208,59.895 41.02,60.053 C 40.68,59.654 40.353,59.245 40.039,58.828 C 40.174,58.718 40.308,58.608 40.443,58.498 C 40.815,58.869 41.197,59.23 41.584,59.58 Z M 40.509,60.764 C 41.398,61.799 42.374,62.754 43.429,63.615 C 42.237,63.005 41.128,62.245 40.159,61.318 C 39.672,60.851 39.235,60.364 38.829,59.838 C 39.006,59.674 39.192,59.516 39.388,59.37 C 39.755,59.844 40.118,60.308 40.509,60.764 Z M 7.419,61.475 C 9.787,62.771 12.616,63.601 15.289,63.94 C 16.002,64.03 16.719,64.104 17.436,64.148 C 17.775,64.169 18.115,64.177 18.455,64.19 C 19.736,64.241 21.079,64.178 22.354,64.046 C 23.331,63.944 24.307,63.796 25.268,63.581 C 24.509,63.904 23.752,64.215 22.976,64.505 C 22.263,64.77 21.541,65.018 20.816,65.248 C 20.294,65.342 19.769,65.419 19.242,65.489 C 18.821,65.545 18.36,65.57 17.935,65.587 L 16.285,65.587 C 16.017,65.508 15.752,65.42 15.499,65.328 C 15.362,65.278 15.228,65.215 15.091,65.165 C 14.756,65.042 14.441,64.852 14.117,64.707 C 14.055,64.676 13.977,64.702 13.946,64.764 C 13.915,64.826 13.941,64.904 14.003,64.935 C 14.331,65.088 14.644,65.259 14.981,65.396 C 15.065,65.43 15.15,65.463 15.232,65.495 C 15.018,65.471 14.803,65.444 14.585,65.416 C 14.158,65.36 13.688,65.271 13.27,65.165 C 12.899,65.071 12.53,64.982 12.165,64.865 C 11.621,64.691 11.084,64.494 10.559,64.266 C 10.32,64.162 10.087,64.046 9.852,63.933 C 9.557,63.792 9.22,63.614 8.945,63.439 C 8.72,63.295 8.489,63.162 8.265,63.015 C 7.383,62.438 6.616,61.767 5.868,61.03 C 5.603,60.769 5.312,60.452 5.081,60.161 C 4.902,59.936 4.723,59.717 4.55,59.491 C 5.428,60.264 6.423,60.929 7.419,61.475 Z M 43.894,61.488 C 43.76,61.599 43.625,61.714 43.502,61.828 C 43.418,61.899 43.407,62.026 43.478,62.11 C 43.549,62.194 43.676,62.205 43.76,62.134 C 43.909,61.996 44.074,61.869 44.232,61.737 C 44.942,62.253 45.675,62.739 46.43,63.185 C 46.064,63.463 45.683,63.708 45.274,63.938 C 45.269,63.94 45.265,63.944 45.261,63.947 C 45.184,63.895 45.109,63.842 45.036,63.786 C 44.827,63.626 44.606,63.46 44.393,63.306 C 44.09,63.088 43.779,62.813 43.496,62.566 C 42.706,61.876 41.957,61.124 41.257,60.326 C 41.421,60.194 41.586,60.064 41.753,59.939 C 41.795,59.907 41.837,59.875 41.879,59.844 C 42.527,60.416 43.199,60.967 43.894,61.488 Z M 6.297,62.426 C 6.531,62.627 6.772,62.832 7.02,63.015 C 7.316,63.232 7.605,63.445 7.911,63.649 C 8.366,63.952 8.843,64.226 9.325,64.477 C 9.197,64.418 9.064,64.357 8.93,64.296 C 8.508,64.103 8.07,63.851 7.673,63.612 C 7.185,63.318 6.707,63.006 6.247,62.67 C 6.134,62.474 6.022,62.278 5.91,62.083 C 6.038,62.2 6.167,62.314 6.297,62.426 Z M 49.201,64.594 C 49.003,64.704 48.805,64.814 48.607,64.924 C 48.573,64.942 48.56,64.987 48.578,65.021 C 48.596,65.055 48.641,65.068 48.675,65.05 C 48.906,64.92 49.139,64.792 49.373,64.666 C 50.372,65.083 51.4,65.426 52.459,65.68 C 52.025,65.674 51.593,65.658 51.158,65.63 C 49.632,65.529 48.076,65.277 46.587,64.788 C 46.307,64.626 46.003,64.455 45.739,64.269 C 45.614,64.181 45.485,64.097 45.357,64.012 C 45.487,63.936 45.63,63.87 45.753,63.788 C 45.861,63.716 45.983,63.654 46.087,63.58 C 46.241,63.469 46.397,63.364 46.552,63.256 C 47.409,63.756 48.293,64.206 49.201,64.594 Z M 28.057,63.559 C 28.098,63.671 28.224,63.729 28.336,63.688 C 28.463,63.636 28.594,63.589 28.725,63.543 C 26.208,64.869 23.525,65.845 20.735,66.03 C 20.798,66.011 20.862,65.991 20.925,65.972 C 21.16,65.929 21.395,65.883 21.632,65.833 C 22.312,65.688 22.958,65.496 23.625,65.306 C 23.986,65.203 24.34,65.064 24.695,64.945 C 25.039,64.83 25.384,64.688 25.721,64.552 C 26.203,64.357 26.694,64.15 27.161,63.921 C 27.457,63.775 27.751,63.629 28.043,63.481 C 28.043,63.506 28.047,63.533 28.057,63.559 Z" stroke="none" fill="#000000" stroke-width="0.5" fill-rule="evenodd" marker-start="none" marker-end="none" stroke-miterlimit="79.8403193612775"/></g></g></g><text x="0" y="90" fill="#000000" font-size="5px" font-weight="bold" font-family="'Helvetica Neue', Helvetica, Arial-Unicode, Arial, Sans-serif">Created by Denis Sazhin</text><text x="0" y="95" fill="#000000" font-size="5px" font-weight="bold" font-family="'Helvetica Neue', Helvetica, Arial-Unicode, Arial, Sans-serif">from the Noun Project</text></svg>