<svg xmlns:xlink="http://www.w3.org/1999/xlink" xmlns="http://www.w3.org/2000/svg" stroke-width="0.501" stroke-linejoin="bevel" fill-rule="evenodd" version="1.1" overflow="visible" viewBox="0 0 75 93.75" x="0px" y="0px"><g fill="none" stroke="black" font-family="Times New Roman" font-size="16" transform="scale(1 -1)"><g transform="translate(0 -75)"><g><path d="M 42.516,8.933 C 41.336,8.907 40.155,8.879 38.975,8.85 C 39.028,8.811 39.081,8.771 39.134,8.732 C 39.052,8.716 38.835,8.796 38.704,8.843 C 35.55,8.766 32.397,8.682 29.244,8.611 C 27.808,8.578 26.37,8.551 24.934,8.531 C 23.738,8.515 22.536,8.489 21.339,8.504 C 20.294,8.516 19.249,8.547 18.206,8.591 C 18.21,8.573 18.209,8.553 18.201,8.536 C 18.182,8.497 18.133,8.48 18.094,8.499 C 18.005,8.533 17.918,8.57 17.831,8.607 C 16.59,8.662 15.35,8.736 14.111,8.819 C 13.117,8.885 12.123,8.945 11.13,9.011 C 11.128,9.005 11.126,8.998 11.123,8.993 C 11.108,8.969 11.075,8.962 11.051,8.977 C 11.025,8.991 10.999,9.006 10.974,9.021 C 10.237,9.071 9.494,9.119 8.753,9.16 C 8.732,9.151 8.709,9.145 8.686,9.145 C 8.479,9.129 8.277,9.089 8.075,9.075 C 8.004,9.07 7.934,9.051 7.862,9.053 C 7.409,9.063 6.973,9.156 6.534,9.255 C 5.84,9.277 5.147,9.295 4.452,9.309 C 3.564,9.326 2.669,9.313 1.781,9.3 C 1.687,9.299 1.609,9.375 1.608,9.469 C 1.607,9.563 1.683,9.641 1.777,9.642 C 2.596,9.65 3.411,9.667 4.23,9.665 C 4.621,9.663 5.014,9.66 5.406,9.654 C 5.316,9.695 5.226,9.738 5.135,9.784 C 5.02,9.841 4.909,9.91 4.795,9.97 C 4.509,10.12 4.175,10.37 3.923,10.575 C 3.113,11.235 2.471,12.056 2.031,12.976 C 1.837,12.77 1.644,12.564 1.452,12.357 C 1.39,12.29 1.282,12.286 1.215,12.348 C 1.148,12.41 1.144,12.518 1.206,12.585 C 1.432,12.826 1.657,13.067 1.882,13.308 C 1.843,13.402 1.806,13.498 1.771,13.595 C 1.773,13.57 1.775,13.545 1.778,13.521 C 1.775,13.546 1.773,13.572 1.77,13.597 C 1.534,14.244 1.393,14.93 1.359,15.634 C 1.332,16.17 1.363,16.785 1.481,17.362 C 1.356,19.191 1.256,21.022 1.166,22.854 C 1.049,25.211 0.955,27.573 0.892,29.932 C 0.865,30.962 0.833,31.991 0.809,33.021 C 0.797,33.535 0.779,34.052 0.777,34.566 C 0.773,35.424 0.789,36.285 0.799,37.143 C 0.813,38.282 0.824,39.42 0.839,40.559 C 0.861,42.235 0.878,43.911 0.9,45.587 C 0.915,46.706 0.916,47.826 0.956,48.945 C 1.007,50.382 1.093,51.818 1.19,53.253 C 1.165,53.419 1.138,53.586 1.117,53.752 C 1.046,54.295 0.935,54.887 0.926,55.432 C 0.916,56.038 0.931,56.61 0.996,57.214 C 1.02,57.436 1.059,57.68 1.115,57.93 C 1.081,57.982 1.065,58.047 1.077,58.115 C 1.14,58.438 1.188,58.755 1.277,59.074 C 1.246,59.247 1.214,59.421 1.182,59.596 C 1.17,59.663 1.126,59.712 1.113,59.776 C 1.095,59.861 1.078,59.947 1.059,60.033 C 1.028,60.026 0.994,60.03 0.964,60.046 C 0.895,60.081 0.869,60.167 0.904,60.236 C 0.928,60.287 0.953,60.337 0.979,60.387 C 0.979,60.389 0.978,60.392 0.978,60.395 C 0.969,60.43 0.96,60.464 0.952,60.498 L 0.944,60.545 L 0.935,60.598 C 0.932,60.664 0.947,60.727 1.004,60.788 C 1.041,60.827 1.079,60.847 1.131,60.859 C 1.181,60.869 1.223,60.867 1.258,60.855 C 1.467,61.166 1.709,61.452 1.977,61.713 C 1.966,62.398 1.954,63.083 1.941,63.769 C 1.94,63.845 2.001,63.908 2.077,63.909 C 2.153,63.91 2.216,63.849 2.217,63.773 C 2.228,63.171 2.241,62.57 2.256,61.968 C 2.651,62.309 3.091,62.603 3.556,62.851 C 3.621,62.919 3.687,62.987 3.754,63.055 C 3.655,63.102 3.586,63.204 3.586,63.321 C 3.586,63.482 3.718,63.614 3.879,63.614 L 4.328,63.614 C 4.693,63.957 5.071,64.294 5.454,64.636 C 5.6,64.76 5.82,64.742 5.944,64.596 C 6.068,64.45 6.05,64.23 5.904,64.106 C 5.703,63.942 5.5,63.778 5.297,63.614 L 5.564,63.614 C 5.844,63.686 6.117,63.753 6.404,63.814 C 7.343,64.011 8.373,64.111 9.332,64.146 C 9.724,64.16 10.12,64.169 10.513,64.167 C 10.821,64.165 11.129,64.151 11.436,64.149 C 11.753,64.147 12.075,64.118 12.392,64.104 C 12.875,64.083 13.367,64.036 13.847,63.985 C 14.044,63.964 14.237,63.921 14.432,63.888 C 14.79,63.827 15.188,63.727 15.564,63.614 L 57.597,63.614 C 57.597,63.622 57.597,63.631 57.599,63.641 C 57.61,63.712 57.678,63.762 57.749,63.751 C 58.006,63.703 58.281,63.688 58.543,63.675 C 58.714,63.667 58.861,63.668 59.033,63.644 C 59.109,63.633 59.185,63.623 59.261,63.614 L 65.54,63.614 C 65.684,63.614 65.805,63.507 65.829,63.369 C 66.266,63.379 66.717,63.388 67.145,63.358 C 67.37,63.342 67.613,63.337 67.835,63.303 C 68.056,63.269 68.269,63.237 68.489,63.199 C 68.677,63.166 68.87,63.116 69.06,63.059 C 69.706,63.003 70.351,62.928 70.976,62.819 C 71.035,62.809 71.124,62.796 71.175,62.769 C 71.365,62.668 71.431,62.431 71.417,62.228 C 71.409,62.109 71.385,61.995 71.383,61.875 C 71.379,61.685 71.446,61.449 71.476,61.258 C 71.492,61.155 71.506,61.052 71.52,60.951 C 71.516,61.138 71.51,61.329 71.513,61.519 C 71.587,61.441 71.618,61.239 71.649,61.131 C 71.728,60.854 71.79,60.575 71.855,60.294 C 71.883,60.167 71.909,60.041 71.933,59.916 C 71.952,59.914 71.972,59.909 71.992,59.902 C 72.037,59.884 72.092,59.844 72.132,59.815 C 72.258,59.722 72.369,59.625 72.47,59.52 C 72.538,59.599 72.606,59.677 72.674,59.756 C 72.693,59.786 72.734,59.795 72.764,59.776 C 72.794,59.757 72.803,59.716 72.784,59.686 C 72.731,59.571 72.679,59.457 72.625,59.344 C 72.698,59.254 72.765,59.157 72.832,59.053 C 73.321,58.28 73.518,57.365 73.939,56.563 C 74.017,56.392 73.942,56.189 73.771,56.111 C 73.666,56.063 73.55,56.072 73.458,56.125 C 73.438,55.976 73.41,55.827 73.36,55.682 C 73.369,55.683 73.371,55.677 73.371,55.672 C 73.53,50.26 73.775,44.85 73.955,39.438 C 73.98,38.667 74.003,37.895 74.021,37.123 C 74.046,36.72 74.069,36.317 74.092,35.915 C 74.176,34.397 74.232,32.884 74.29,31.365 C 74.318,30.629 74.298,29.872 74.291,29.135 C 74.275,27.382 74.225,25.632 74.124,23.882 C 73.993,21.604 73.794,19.323 73.452,17.067 C 73.372,16.541 73.275,16.013 73.166,15.486 C 73.216,15.03 73.205,14.548 73.106,14.153 C 73.07,14.011 73.036,13.878 72.996,13.746 L 72.956,13.629 L 72.873,13.328 C 72.614,12.529 72.187,11.787 71.613,11.166 C 71.437,10.976 71.183,10.737 70.967,10.596 C 70.898,10.551 70.833,10.501 70.765,10.456 L 70.684,10.41 L 70.019,9.773 C 69.938,9.696 69.808,9.7 69.731,9.781 C 69.692,9.821 69.674,9.874 69.675,9.926 L 69.685,9.971 L 69.347,9.904 C 69.373,9.865 69.389,9.819 69.389,9.771 C 69.389,9.64 69.281,9.532 69.15,9.532 L 64.783,9.532 C 64.858,9.485 64.932,9.438 65.007,9.392 C 65.181,9.379 65.355,9.366 65.529,9.353 C 65.414,9.316 65.296,9.297 65.177,9.287 C 65.265,9.233 65.354,9.179 65.444,9.126 C 65.501,9.091 65.519,9.013 65.484,8.956 C 65.449,8.899 65.371,8.881 65.314,8.916 C 65.117,9.033 64.922,9.153 64.727,9.274 C 64.676,9.274 64.625,9.273 64.575,9.272 C 64.213,9.261 63.848,9.258 63.486,9.254 C 62.269,9.242 61.048,9.212 59.831,9.184 C 55.572,9.087 51.313,9.091 47.054,9.021 C 47.005,9.02 46.957,9.019 46.909,9.018 C 46.932,9.007 46.955,8.995 46.978,8.984 C 47.04,8.957 47.069,8.884 47.042,8.822 C 47.015,8.76 46.942,8.731 46.88,8.758 C 46.669,8.833 46.461,8.916 46.255,9.007 C 45.163,8.988 44.072,8.966 42.98,8.943 C 43.116,8.851 43.25,8.756 43.385,8.658 C 43.433,8.628 43.446,8.563 43.416,8.515 C 43.386,8.467 43.321,8.454 43.273,8.484 C 43.01,8.627 42.764,8.778 42.516,8.933 Z M 26.011,9.298 C 25.877,9.374 25.744,9.452 25.611,9.532 L 23.049,9.532 C 23.005,9.472 22.922,9.453 22.857,9.489 C 22.83,9.503 22.804,9.517 22.778,9.532 L 20.397,9.532 C 20.4,9.53 20.402,9.529 20.405,9.528 C 20.436,9.514 20.45,9.476 20.436,9.445 C 20.422,9.414 20.384,9.4 20.353,9.414 C 20.248,9.45 20.145,9.49 20.042,9.532 L 16.594,9.532 C 16.735,9.445 16.877,9.36 17.02,9.277 C 18.885,9.221 20.764,9.198 22.626,9.238 C 23.754,9.259 24.883,9.278 26.011,9.298 Z M 16.109,9.532 L 13.961,9.532 C 14.015,9.498 14.069,9.465 14.124,9.432 C 14.155,9.412 14.186,9.392 14.218,9.372 C 14.913,9.347 15.609,9.323 16.305,9.3 C 16.369,9.297 16.434,9.295 16.499,9.293 C 16.368,9.371 16.238,9.45 16.109,9.532 Z M 28.558,9.348 C 29.701,9.371 30.846,9.398 31.99,9.427 C 31.937,9.461 31.885,9.496 31.833,9.532 L 25.985,9.532 C 26.093,9.457 26.2,9.38 26.306,9.303 C 27.056,9.317 27.807,9.332 28.558,9.348 Z M 13.468,9.532 L 10.389,9.532 C 10.399,9.525 10.41,9.518 10.421,9.511 C 11.515,9.472 12.609,9.431 13.704,9.391 C 13.626,9.44 13.547,9.487 13.468,9.532 Z M 64.32,9.532 L 63.032,9.532 C 63.514,9.499 63.996,9.465 64.479,9.43 C 64.426,9.464 64.373,9.498 64.32,9.532 Z M 34.702,9.497 C 34.683,9.508 34.663,9.52 34.644,9.532 L 32.136,9.532 C 32.163,9.507 32.17,9.464 32.153,9.431 C 33.003,9.452 33.852,9.474 34.702,9.497 Z M 36.006,9.532 L 35.362,9.532 C 35.373,9.526 35.383,9.521 35.394,9.515 C 35.598,9.521 35.802,9.526 36.006,9.532 Z M 10.106,9.532 L 9.854,9.532 C 9.943,9.528 10.033,9.525 10.122,9.522 C 10.117,9.525 10.112,9.528 10.106,9.532 Z M 8.489,10.479 C 8.003,10.766 7.518,11.068 7.025,11.341 C 6.589,11.582 6.159,11.834 5.724,12.077 C 5.977,11.783 6.232,11.491 6.493,11.205 C 6.689,10.99 6.894,10.782 7.09,10.567 C 7.198,10.451 7.191,10.268 7.075,10.16 C 6.959,10.052 6.776,10.059 6.668,10.175 C 6.412,10.437 6.152,10.724 5.911,11 C 5.575,11.386 5.238,11.764 4.923,12.168 C 4.779,12.352 4.635,12.544 4.493,12.74 C 4.13,12.932 3.765,13.124 3.4,13.316 C 3.37,13.332 3.358,13.37 3.374,13.4 C 3.39,13.43 3.428,13.442 3.458,13.426 C 3.747,13.274 4.038,13.123 4.329,12.971 C 4.171,13.198 4.018,13.427 3.875,13.655 C 3.719,13.9 3.557,14.147 3.405,14.397 C 3.287,14.278 3.169,14.159 3.052,14.039 C 3.061,13.991 3.071,13.944 3.081,13.896 C 3.17,13.462 3.325,13.049 3.491,12.641 C 3.611,12.347 3.804,11.996 3.987,11.737 C 4.032,11.666 4.045,11.582 4.028,11.505 L 3.993,11.424 L 4.211,11.197 C 4.317,11.091 4.427,10.99 4.538,10.905 C 4.725,10.762 4.913,10.594 5.117,10.473 C 5.325,10.35 5.519,10.238 5.732,10.123 C 5.805,10.083 5.883,10.045 5.962,10.01 L 9.288,10.01 C 9.021,10.165 8.755,10.322 8.489,10.479 Z M 12.398,10.143 C 11.923,10.404 11.447,10.663 10.971,10.922 C 9.36,11.798 7.635,12.716 6.22,13.896 C 6.179,13.928 6.172,13.989 6.204,14.03 C 6.236,14.071 6.297,14.078 6.338,14.046 C 8.16,12.56 10.224,11.603 12.283,10.494 C 12.574,10.337 12.862,10.176 13.148,10.011 L 13.149,10.01 L 15.383,10.01 C 15.005,10.268 14.634,10.535 14.267,10.8 C 13.524,11.335 12.802,11.904 12.057,12.435 C 11.421,12.889 10.793,13.329 10.134,13.75 C 10.095,13.774 10.084,13.827 10.108,13.866 C 10.132,13.905 10.185,13.916 10.224,13.892 C 12.142,12.659 13.943,11.265 15.845,10.01 L 19.04,10.01 C 18.359,10.379 17.706,10.815 17.071,11.232 C 16.343,11.709 15.636,12.217 14.907,12.692 C 14.71,12.82 14.514,12.951 14.318,13.081 C 14.034,13.269 13.737,13.441 13.451,13.627 C 13.427,13.642 13.42,13.675 13.435,13.699 C 13.45,13.723 13.483,13.73 13.507,13.715 C 13.772,13.543 14.045,13.381 14.313,13.213 C 15.206,12.654 16.076,12.051 16.972,11.498 C 17.816,10.976 18.654,10.479 19.526,10.01 L 21.911,10.01 C 20.257,10.892 18.588,11.731 17.142,12.938 C 16.889,13.149 16.653,13.378 16.416,13.606 C 16.381,13.64 16.38,13.699 16.414,13.734 C 16.448,13.769 16.507,13.77 16.542,13.736 C 16.704,13.564 16.897,13.391 17.079,13.24 C 17.188,13.15 17.288,13.055 17.402,12.969 C 17.737,12.717 18.065,12.465 18.421,12.241 C 19.199,11.751 19.984,11.335 20.806,10.92 C 21.269,10.686 21.738,10.445 22.193,10.195 C 22.304,10.134 22.415,10.071 22.527,10.01 L 24.834,10.01 C 24.491,10.225 24.149,10.442 23.805,10.653 C 23.24,10.998 22.663,11.366 22.119,11.744 C 21.392,12.249 20.707,12.743 20.047,13.335 L 20.043,13.403 L 20.111,13.407 C 21.234,12.395 22.565,11.559 23.867,10.801 C 24.318,10.538 24.769,10.275 25.218,10.01 L 28.225,10.01 C 27.908,10.167 27.595,10.332 27.282,10.511 C 27.151,10.586 27.012,10.656 26.885,10.736 C 26.64,10.889 26.39,11.037 26.147,11.193 C 25.922,11.338 25.704,11.496 25.48,11.643 C 25.315,11.752 25.144,11.882 24.985,12.002 C 24.419,12.428 23.873,12.856 23.336,13.319 C 23.308,13.342 23.304,13.386 23.327,13.414 C 23.35,13.442 23.394,13.446 23.422,13.423 C 24.738,12.29 26.139,11.317 27.661,10.481 C 27.965,10.313 28.274,10.159 28.587,10.01 L 31.094,10.01 C 30.701,10.25 30.31,10.491 29.914,10.728 C 28.903,11.332 27.76,12.02 26.929,12.868 C 26.9,12.895 26.899,12.942 26.926,12.971 C 26.953,13 27,13.001 27.029,12.974 C 27.328,12.693 27.636,12.413 27.969,12.172 C 28.837,11.543 29.735,11.024 30.662,10.478 C 30.915,10.329 31.174,10.17 31.423,10.01 L 33.879,10.01 C 33.639,10.163 33.397,10.315 33.168,10.484 C 32.538,10.949 31.915,11.412 31.291,11.886 C 30.791,12.266 30.288,12.659 29.778,13.026 C 29.523,13.21 29.266,13.392 29.014,13.58 C 28.964,13.615 28.953,13.686 28.988,13.736 C 29.023,13.786 29.094,13.797 29.144,13.762 C 29.674,13.371 30.219,12.994 30.752,12.605 C 31.574,12.006 32.401,11.415 33.247,10.852 C 33.681,10.563 34.117,10.285 34.558,10.01 L 36.691,10.01 C 36.129,10.403 35.59,10.842 35.064,11.272 C 34.333,11.868 33.62,12.484 32.886,13.076 C 32.602,13.305 32.314,13.529 32.028,13.756 C 31.993,13.784 31.986,13.837 32.014,13.872 C 32.042,13.907 32.095,13.914 32.13,13.886 C 32.443,13.635 32.766,13.395 33.078,13.143 C 34.198,12.238 35.339,11.351 36.507,10.509 C 36.736,10.343 36.974,10.173 37.215,10.01 L 40.778,10.01 C 40.562,10.143 40.346,10.276 40.131,10.41 C 38.232,11.579 36.409,12.744 34.732,14.217 C 34.703,14.242 34.7,14.289 34.725,14.318 C 34.75,14.347 34.797,14.35 34.826,14.325 C 34.997,14.178 35.164,14.025 35.338,13.882 C 35.629,13.643 35.924,13.417 36.223,13.188 C 36.861,12.7 37.56,12.245 38.244,11.823 C 38.673,11.558 39.098,11.291 39.533,11.036 C 40.114,10.694 40.706,10.357 41.288,10.01 L 44.361,10.01 C 44.196,10.108 44.032,10.207 43.871,10.307 C 42.097,11.391 40.453,12.674 38.776,13.9 C 38.737,13.929 38.729,13.985 38.758,14.024 C 38.787,14.063 38.843,14.071 38.882,14.042 C 40.186,13.066 41.524,12.077 42.899,11.205 C 43.35,10.919 43.801,10.649 44.259,10.376 C 44.473,10.248 44.691,10.126 44.912,10.01 L 47.934,10.01 C 47.317,10.363 46.736,10.747 46.168,11.186 C 45.086,12.021 44.034,12.893 43.001,13.788 L 42.996,13.849 L 43.057,13.854 C 44.446,12.65 45.907,11.501 47.49,10.563 C 47.824,10.364 48.153,10.184 48.493,10.01 L 50.895,10.01 C 50.586,10.165 50.279,10.326 49.979,10.491 C 49.63,10.683 49.281,10.867 48.938,11.07 C 48.235,11.486 47.537,11.963 46.904,12.48 C 46.476,12.83 46.04,13.2 45.664,13.606 C 45.629,13.641 45.629,13.701 45.664,13.736 L 45.794,13.736 C 46.669,12.827 47.724,12.094 48.812,11.463 C 49.051,11.325 49.285,11.183 49.526,11.048 C 50.179,10.683 50.862,10.339 51.542,10.01 L 53.432,10.01 C 52.775,10.413 52.141,10.847 51.511,11.29 C 50.212,12.201 48.974,13.172 47.785,14.22 C 47.757,14.244 47.754,14.287 47.778,14.315 C 47.802,14.343 47.845,14.346 47.873,14.322 C 48.547,13.728 49.248,13.147 49.977,12.623 C 50.309,12.384 50.646,12.152 50.978,11.914 C 51.213,11.745 51.462,11.588 51.705,11.43 C 51.948,11.272 52.189,11.112 52.437,10.962 C 52.984,10.631 53.527,10.311 54.09,10.01 L 56.733,10.01 C 54.492,11.589 52.411,13.361 50.204,14.987 L 50.195,15.046 L 50.254,15.055 C 51.411,14.203 52.557,13.336 53.707,12.475 C 54.84,11.626 56.007,10.79 57.214,10.049 C 57.23,10.038 57.244,10.024 57.254,10.01 L 60.425,10.01 C 59.571,10.504 58.757,11.068 57.933,11.613 C 57.044,12.2 56.149,12.81 55.302,13.456 C 54.966,13.713 54.642,13.98 54.312,14.244 C 53.809,14.646 53.335,15.117 52.883,15.576 C 52.859,15.601 52.859,15.643 52.884,15.667 C 52.909,15.691 52.951,15.691 52.975,15.666 C 54.534,14.022 56.598,12.725 58.532,11.572 C 59.072,11.25 59.622,10.932 60.154,10.598 C 60.443,10.416 60.702,10.214 60.963,10.01 L 63.587,10.01 C 63.149,10.301 62.715,10.599 62.286,10.902 C 61.59,11.391 60.909,11.914 60.226,12.421 C 59.282,13.122 58.338,13.823 57.392,14.521 C 57.365,14.541 57.359,14.581 57.379,14.608 C 57.399,14.635 57.439,14.641 57.466,14.621 C 58.61,13.78 59.761,12.955 60.919,12.133 C 61.493,11.726 62.079,11.308 62.67,10.926 C 62.924,10.762 63.169,10.584 63.421,10.417 C 63.626,10.28 63.832,10.144 64.039,10.01 L 67.989,10.01 C 67.824,10.061 67.663,10.124 67.506,10.198 C 67.396,10.25 67.288,10.316 67.179,10.371 C 67.426,10.361 67.676,10.371 67.926,10.397 C 67.806,10.446 67.686,10.496 67.567,10.548 C 67.065,10.767 66.568,11.013 66.073,11.247 C 65.033,11.74 63.974,12.28 62.997,12.893 C 62.718,13.068 62.435,13.239 62.163,13.425 C 61.023,14.203 60.002,15.076 59.163,16.17 C 59.135,16.206 59.142,16.259 59.178,16.287 C 59.214,16.315 59.267,16.308 59.295,16.272 C 59.499,16.009 59.702,15.779 59.921,15.53 C 60.056,15.377 60.227,15.224 60.376,15.085 C 60.884,14.608 61.443,14.186 62.024,13.803 C 62.879,13.239 63.759,12.798 64.673,12.342 C 65.003,12.177 65.349,12.038 65.682,11.875 C 66.205,11.619 66.734,11.379 67.258,11.128 C 67.434,11.043 67.623,10.959 67.793,10.864 C 68.007,10.744 68.226,10.617 68.443,10.504 C 68.455,10.498 68.466,10.49 68.475,10.482 C 68.706,10.529 68.934,10.59 69.156,10.663 C 69.424,10.751 69.678,10.837 69.923,10.952 C 69.821,11.02 69.719,11.087 69.617,11.153 C 68.96,11.573 68.295,11.982 67.637,12.401 C 66.194,13.321 64.781,14.244 63.519,15.404 C 63.483,15.437 63.479,15.495 63.512,15.531 C 63.545,15.567 63.603,15.571 63.639,15.538 C 63.882,15.326 64.116,15.111 64.368,14.909 C 64.675,14.663 64.987,14.433 65.306,14.204 C 66.385,13.429 67.569,12.782 68.703,12.094 C 69.08,11.865 69.461,11.627 69.833,11.389 C 69.969,11.301 70.103,11.211 70.238,11.12 C 70.275,11.142 70.312,11.166 70.349,11.191 C 70.435,11.248 70.52,11.31 70.603,11.376 C 70.613,11.412 70.623,11.449 70.633,11.487 L 70.656,11.575 L 70.687,11.858 C 70.701,11.988 70.713,12.118 70.721,12.249 C 70.733,12.455 70.738,12.659 70.74,12.862 C 70.669,12.907 70.598,12.953 70.528,13 C 70.136,13.259 69.782,13.549 69.421,13.849 C 69.074,14.138 68.737,14.431 68.399,14.731 C 67.963,15.118 67.52,15.522 67.064,15.885 C 66.831,16.07 66.597,16.25 66.361,16.431 C 66.312,16.468 66.302,16.54 66.339,16.589 C 66.376,16.638 66.448,16.648 66.497,16.611 C 67.03,16.199 67.558,15.794 68.071,15.355 C 68.528,14.963 69.001,14.563 69.479,14.198 C 69.656,14.063 69.829,13.921 70.011,13.792 C 70.253,13.62 70.495,13.453 70.741,13.29 C 70.741,13.418 70.741,13.546 70.743,13.676 C 70.745,13.874 70.727,14.077 70.719,14.275 C 70.709,14.507 70.696,14.738 70.681,14.969 C 70.412,15.273 70.158,15.598 69.89,15.907 C 69.155,16.749 68.366,17.587 67.56,18.362 C 67.087,18.817 66.622,19.283 66.131,19.72 C 65.845,19.974 65.567,20.237 65.281,20.491 C 64.708,21.001 64.128,21.508 63.543,22.005 C 63.119,22.364 62.695,22.722 62.264,23.085 C 61.778,23.467 61.287,23.853 60.797,24.239 C 61.485,23.573 62.175,22.908 62.865,22.24 C 63.135,21.984 63.409,21.725 63.684,21.468 C 64.152,21.031 64.605,20.579 65.061,20.13 C 65.979,19.225 66.893,18.317 67.801,17.402 C 68.218,16.982 68.628,16.554 69.047,16.135 C 69.165,16.015 69.163,15.821 69.043,15.703 C 68.923,15.585 68.729,15.587 68.611,15.707 C 67.835,16.485 67.063,17.27 66.293,18.053 C 66.095,18.253 65.896,18.453 65.697,18.651 C 65.67,18.665 65.646,18.682 65.624,18.703 C 64.755,19.435 63.944,20.236 63.129,21.027 C 61.805,22.314 60.516,23.636 59.226,24.957 C 59.199,24.983 59.173,25.01 59.147,25.037 C 59.004,24.643 58.876,24.247 58.756,23.837 C 58.738,23.767 58.665,23.726 58.595,23.744 C 58.525,23.762 58.484,23.835 58.502,23.905 C 58.562,24.109 58.615,24.31 58.68,24.513 C 58.758,24.757 58.847,25.004 58.941,25.247 C 58.768,25.424 58.594,25.602 58.415,25.786 C 58.35,25.848 58.274,25.921 58.198,25.995 C 58.075,26.112 57.952,26.229 57.829,26.345 C 57.794,26.249 57.758,26.154 57.72,26.06 C 57.633,25.851 57.537,25.648 57.439,25.444 C 57.397,25.356 57.29,25.319 57.202,25.361 C 57.114,25.403 57.077,25.51 57.119,25.598 C 57.275,25.937 57.422,26.263 57.553,26.608 C 57.236,26.91 56.918,27.21 56.601,27.51 C 56.585,27.52 56.57,27.53 56.555,27.541 C 56.352,27.676 56.152,27.814 55.952,27.953 C 55.835,27.676 55.726,27.397 55.626,27.116 C 55.596,27.035 55.505,26.994 55.424,27.024 C 55.343,27.054 55.302,27.145 55.332,27.226 C 55.444,27.531 55.564,27.833 55.691,28.133 C 55.663,28.152 55.635,28.171 55.607,28.191 C 55.406,28.329 55.189,28.479 54.999,28.63 C 54.977,28.646 54.972,28.679 54.988,28.701 C 55.004,28.723 55.037,28.728 55.059,28.712 C 55.275,28.544 55.499,28.379 55.727,28.217 C 55.738,28.244 55.75,28.271 55.762,28.298 C 55.754,28.305 55.746,28.313 55.738,28.321 C 55.165,28.8 54.604,29.277 54.049,29.758 C 53.912,29.478 53.775,29.197 53.638,28.918 C 53.609,28.858 53.536,28.833 53.476,28.862 C 53.416,28.891 53.391,28.964 53.42,29.024 C 53.567,29.323 53.714,29.622 53.862,29.92 C 53.534,30.204 53.207,30.488 52.88,30.774 C 52.77,30.607 52.658,30.441 52.544,30.277 C 52.52,30.242 52.47,30.232 52.435,30.256 C 52.4,30.28 52.39,30.33 52.414,30.365 C 52.532,30.534 52.648,30.705 52.762,30.878 C 52.226,31.347 51.693,31.821 51.168,32.304 C 51.125,32.231 51.082,32.158 51.04,32.085 C 51.021,32.052 50.976,32.041 50.943,32.06 C 50.91,32.079 50.899,32.124 50.918,32.157 C 50.966,32.238 51.014,32.32 51.063,32.402 C 51.019,32.442 50.976,32.482 50.934,32.522 C 50.711,32.729 50.484,32.933 50.263,33.143 C 50.174,33.052 50.084,32.961 49.995,32.871 C 49.719,32.591 49.442,32.314 49.164,32.037 C 49.523,31.739 49.899,31.457 50.242,31.141 C 50.666,30.749 51.103,30.345 51.549,29.979 C 51.774,29.794 52.001,29.612 52.227,29.428 C 52.966,28.826 53.807,28.21 54.674,27.81 C 54.778,27.758 54.82,27.63 54.768,27.526 C 54.716,27.422 54.588,27.38 54.484,27.432 C 53.179,28.065 52.186,28.924 51.117,29.895 C 50.846,30.141 50.578,30.391 50.307,30.636 C 50.139,30.787 49.963,30.941 49.801,31.098 C 49.624,31.27 49.455,31.461 49.272,31.626 C 49.181,31.707 49.09,31.79 48.999,31.874 C 48.468,31.348 47.933,30.827 47.391,30.311 C 47.403,30.302 47.415,30.293 47.428,30.284 C 47.611,30.145 47.791,30.001 47.976,29.863 C 48.218,29.682 48.465,29.495 48.692,29.296 C 49.19,28.86 49.713,28.426 50.238,28.022 C 50.556,27.778 50.881,27.547 51.205,27.312 C 51.625,27.007 52.121,26.686 52.578,26.44 C 52.671,26.386 52.702,26.265 52.648,26.172 C 52.594,26.079 52.473,26.048 52.38,26.102 C 51.927,26.377 51.464,26.639 51.041,26.962 C 50.404,27.448 49.792,27.938 49.185,28.463 C 48.864,28.741 48.528,29.006 48.214,29.292 C 47.899,29.578 47.571,29.899 47.237,30.165 C 47.019,29.958 46.8,29.753 46.581,29.548 C 46.261,29.249 45.937,28.958 45.611,28.669 C 45.712,28.566 45.815,28.463 45.921,28.361 C 46.039,28.247 46.15,28.126 46.27,28.014 C 46.594,27.713 46.913,27.39 47.259,27.113 C 47.514,26.909 47.77,26.682 48.037,26.496 C 48.17,26.403 48.306,26.302 48.437,26.205 C 48.729,25.988 49.056,25.792 49.365,25.599 C 49.601,25.452 49.847,25.302 50.093,25.172 C 50.516,24.948 50.937,24.704 51.374,24.509 C 51.477,24.457 51.519,24.329 51.467,24.226 C 51.415,24.123 51.287,24.081 51.184,24.133 C 49.826,24.827 48.567,25.605 47.379,26.563 C 46.805,27.026 46.224,27.552 45.713,28.085 C 45.597,28.205 45.483,28.329 45.371,28.454 C 45.201,28.304 45.031,28.154 44.861,28.003 C 44.58,27.753 44.295,27.506 44.006,27.263 L 44.009,27.261 C 44.553,26.775 45.101,26.296 45.659,25.826 C 46.856,24.817 48.202,23.808 49.695,23.29 C 49.788,23.254 49.834,23.148 49.798,23.055 C 49.762,22.962 49.656,22.916 49.563,22.952 C 48.031,23.557 46.823,24.5 45.578,25.559 C 44.995,26.055 44.42,26.571 43.849,27.081 C 43.838,27.09 43.83,27.1 43.824,27.111 C 43.27,26.651 42.702,26.205 42.122,25.776 C 43.103,24.843 44.309,24.067 45.451,23.365 C 46.134,22.944 46.814,22.519 47.495,22.096 C 47.591,22.032 47.618,21.901 47.554,21.805 C 47.49,21.709 47.359,21.682 47.263,21.746 C 47.038,21.89 46.806,22.054 46.588,22.209 C 46.195,22.488 45.776,22.749 45.375,23.019 C 44.182,23.821 42.967,24.634 41.935,25.638 C 41.467,25.297 40.993,24.967 40.513,24.652 C 41.251,24.108 41.995,23.581 42.757,23.073 C 43.074,22.861 43.393,22.665 43.714,22.462 C 43.917,22.334 44.131,22.224 44.335,22.099 C 44.608,21.932 44.918,21.756 45.207,21.621 C 45.289,21.578 45.322,21.475 45.279,21.393 C 45.236,21.311 45.133,21.278 45.051,21.321 C 44.883,21.4 44.716,21.495 44.554,21.586 C 43.747,22.04 42.995,22.585 42.256,23.142 C 41.629,23.614 41.004,24.089 40.383,24.568 C 40.1,24.394 39.79,24.239 39.498,24.087 C 39.198,23.93 38.89,23.781 38.579,23.641 C 39.426,23.032 40.289,22.444 41.154,21.862 C 41.658,21.522 42.149,21.162 42.646,20.811 C 42.695,20.775 42.705,20.703 42.669,20.654 C 42.633,20.605 42.561,20.595 42.512,20.631 C 42.289,20.792 42.077,20.972 41.856,21.134 C 41.51,21.387 41.165,21.641 40.82,21.895 C 40.04,22.467 39.252,23.024 38.472,23.593 C 38.434,23.576 38.397,23.56 38.36,23.544 C 38.394,23.466 38.396,23.374 38.358,23.291 C 38.323,23.217 38.263,23.163 38.193,23.135 C 38.612,22.724 39.09,22.366 39.556,22.019 C 39.739,21.883 39.931,21.749 40.108,21.607 C 40.229,21.511 40.354,21.415 40.472,21.316 C 40.606,21.204 40.733,21.082 40.867,20.971 C 40.922,20.923 40.927,20.838 40.879,20.783 C 40.831,20.728 40.746,20.723 40.691,20.771 C 40.555,20.883 40.428,21.011 40.292,21.121 C 40.065,21.304 39.831,21.487 39.596,21.66 C 38.978,22.113 38.303,22.613 37.776,23.195 C 37.723,23.212 37.672,23.229 37.621,23.247 C 37.34,23.144 37.057,23.064 36.774,22.972 C 36.692,22.948 36.604,22.994 36.58,23.076 C 36.559,23.147 36.591,23.223 36.654,23.258 C 36.615,23.267 36.577,23.284 36.543,23.309 C 36.512,23.329 36.482,23.35 36.453,23.371 C 36.302,23.415 36.16,23.474 35.991,23.559 C 35.84,23.634 35.663,23.776 35.535,23.887 C 35.39,24.013 35.261,24.155 35.144,24.307 C 34.85,24.52 34.556,24.735 34.262,24.95 C 34.336,24.845 34.412,24.742 34.488,24.637 C 34.797,24.207 35.167,23.786 35.517,23.39 C 35.741,23.136 35.978,22.894 36.202,22.642 C 36.31,22.52 36.436,22.387 36.554,22.276 C 36.696,22.143 36.825,21.993 36.972,21.866 C 37.024,21.815 37.025,21.73 36.974,21.678 C 36.923,21.626 36.838,21.625 36.786,21.676 C 36.683,21.783 36.575,21.886 36.472,21.994 C 36.382,22.088 36.29,22.198 36.197,22.286 C 36.061,22.414 35.914,22.599 35.789,22.74 C 35.469,23.1 35.159,23.465 34.854,23.838 C 34.624,24.12 34.418,24.407 34.197,24.693 C 34.072,24.853 33.916,25.087 33.815,25.276 C 33.695,25.364 33.574,25.452 33.453,25.54 C 33.429,25.557 33.405,25.574 33.383,25.592 C 33.131,25.72 32.9,25.874 32.674,26.03 C 31.801,26.628 30.944,27.232 30.091,27.858 C 29.583,28.23 29.078,28.619 28.581,29.015 C 28.586,29.002 28.592,28.989 28.598,28.976 C 28.744,28.63 28.891,28.284 29.039,27.939 C 29.292,27.348 29.546,26.769 29.828,26.191 C 29.958,25.925 30.088,25.658 30.235,25.401 C 30.487,24.962 30.746,24.576 31.043,24.167 C 31.167,23.996 31.302,23.823 31.443,23.665 C 31.494,23.603 31.485,23.508 31.423,23.457 C 31.361,23.406 31.266,23.415 31.215,23.477 C 30.123,24.768 29.545,26.263 28.907,27.813 C 28.756,28.179 28.611,28.551 28.454,28.914 C 28.408,29.018 28.362,29.123 28.315,29.227 C 28.107,29.394 27.9,29.562 27.696,29.73 C 27.072,30.239 26.454,30.752 25.84,31.271 C 26.235,30.469 26.661,29.679 27.087,28.91 C 27.402,28.339 27.726,27.773 28.033,27.198 C 28.23,26.829 28.423,26.458 28.622,26.091 C 28.824,25.718 29.008,25.36 29.17,24.968 C 29.195,24.918 29.176,24.855 29.126,24.83 C 29.076,24.805 29.013,24.824 28.988,24.874 C 28.735,25.241 28.546,25.641 28.337,26.034 C 27.978,26.707 27.616,27.379 27.27,28.059 C 26.687,29.204 26.111,30.341 25.568,31.501 C 25.168,31.84 24.769,32.182 24.374,32.527 C 24.278,32.554 24.183,32.586 24.089,32.621 C 24.052,32.575 24.015,32.53 23.979,32.486 C 24.028,32.34 24.077,32.195 24.128,32.051 C 24.327,31.478 24.528,30.919 24.753,30.356 C 24.838,30.144 24.922,29.924 25.021,29.718 C 25.227,29.29 25.399,28.875 25.647,28.464 C 25.698,28.372 25.664,28.254 25.572,28.203 C 25.48,28.152 25.362,28.186 25.311,28.278 C 25.105,28.639 24.926,29.007 24.754,29.384 C 24.632,29.651 24.541,29.941 24.443,30.217 C 24.243,30.782 24.07,31.356 23.898,31.93 C 23.864,32.041 23.831,32.153 23.797,32.266 C 23.531,31.951 23.244,31.651 22.948,31.358 C 22.946,31.33 22.937,31.302 22.921,31.277 C 22.89,31.23 22.839,31.204 22.787,31.201 C 22.763,31.177 22.739,31.154 22.715,31.131 C 22.739,31.011 22.764,30.892 22.789,30.773 C 23.072,30.965 23.355,31.157 23.639,31.347 C 23.791,31.451 24.001,31.413 24.105,31.261 C 24.209,31.109 24.171,30.899 24.019,30.795 C 22.992,30.065 21.943,29.366 20.911,28.644 C 20.086,28.067 19.253,27.499 18.429,26.92 C 17.5,26.267 16.574,25.613 15.65,24.956 C 14.119,23.707 12.576,22.473 11.059,21.211 C 10.189,20.487 9.306,19.773 8.454,19.029 C 8.005,18.637 7.543,18.253 7.1,17.854 C 6.391,17.216 5.682,16.581 4.985,15.931 C 4.551,15.527 4.126,15.116 3.707,14.699 C 3.815,14.518 3.926,14.34 4.048,14.162 C 4.349,13.72 4.682,13.3 5.029,12.893 C 5.174,12.721 5.32,12.55 5.464,12.38 C 6.164,12.012 6.858,11.638 7.539,11.248 C 7.96,11.006 8.387,10.777 8.804,10.527 C 9.087,10.357 9.366,10.185 9.643,10.01 L 12.635,10.01 C 12.556,10.054 12.477,10.099 12.398,10.143 Z M 71.559,12.4 C 71.436,12.45 71.315,12.521 71.208,12.583 C 71.168,12.605 71.129,12.628 71.089,12.651 C 71.075,12.408 71.056,12.165 71.036,11.921 C 71.031,11.863 71.026,11.806 71.021,11.748 C 71.219,11.948 71.401,12.167 71.559,12.4 Z M 71.937,13.089 C 72.004,13.248 72.078,13.416 72.131,13.579 C 72.153,13.648 72.17,13.721 72.193,13.79 C 72.272,14.031 72.316,14.286 72.344,14.543 C 72.314,14.567 72.284,14.592 72.254,14.617 C 71.864,14.93 71.475,15.246 71.094,15.57 C 71.096,15.533 71.097,15.496 71.099,15.458 C 71.123,15.432 71.147,15.405 71.172,15.378 C 71.286,15.244 71.27,15.042 71.136,14.928 C 71.129,14.922 71.123,14.917 71.117,14.913 C 71.132,14.309 71.132,13.706 71.112,13.109 C 71.111,13.09 71.11,13.071 71.109,13.053 C 71.219,12.986 71.333,12.922 71.443,12.862 C 71.531,12.812 71.645,12.764 71.725,12.706 C 71.82,12.833 71.882,12.96 71.937,13.089 Z M 3.224,14.705 C 3.212,14.727 3.2,14.749 3.188,14.771 C 3.117,14.899 3.045,15.037 2.976,15.177 C 2.953,15.158 2.929,15.138 2.906,15.119 C 2.925,14.9 2.95,14.681 2.982,14.46 C 3.062,14.542 3.143,14.623 3.224,14.705 Z M 72.396,15.229 C 72.42,15.621 72.404,16.099 72.319,16.482 C 72.297,16.583 72.271,16.698 72.319,16.795 C 72.362,16.882 72.437,16.936 72.52,16.952 C 72.52,17.202 72.52,17.452 72.52,17.702 C 72.375,17.729 72.261,17.852 72.255,18.005 C 72.172,19.077 72.098,20.142 72.06,21.215 C 72.018,21.184 71.959,21.178 71.912,21.206 C 71.494,21.455 71.114,21.715 70.734,22.023 C 70.309,22.368 69.922,22.762 69.537,23.151 C 69.38,23.309 69.197,23.48 69.053,23.647 C 69.013,23.688 69.014,23.757 69.055,23.797 C 69.096,23.837 69.165,23.836 69.205,23.795 C 69.296,23.689 69.418,23.57 69.52,23.473 C 69.696,23.304 69.863,23.122 70.041,22.954 C 70.529,22.494 71.04,22.035 71.616,21.689 C 71.755,21.606 71.901,21.506 72.046,21.436 C 72.063,21.425 72.077,21.412 72.059,21.385 C 72.049,21.552 72.049,21.558 72.049,21.564 C 71.982,23.905 72.033,26.273 72.11,28.614 C 72.111,28.647 72.112,28.681 72.113,28.715 C 71.911,28.849 71.711,28.992 71.528,29.135 C 71.141,29.436 70.751,29.725 70.385,30.053 C 69.949,30.444 69.559,30.831 69.157,31.256 C 69.094,31.323 69.097,31.43 69.164,31.493 C 69.231,31.556 69.338,31.553 69.401,31.486 C 70.203,30.584 71.138,29.874 72.13,29.216 C 72.183,30.725 72.247,32.231 72.323,33.741 C 72.369,34.663 72.411,35.579 72.481,36.499 C 72.493,36.67 72.506,36.841 72.52,37.012 C 72.52,41.628 72.52,46.244 72.52,50.86 C 72.374,50.971 72.228,51.081 72.083,51.192 C 72.05,50.363 72.019,49.533 71.989,48.705 C 71.919,46.826 71.887,44.975 71.941,43.095 C 71.973,41.99 72.047,40.874 72.184,39.777 C 72.187,39.747 72.165,39.719 72.135,39.716 C 72.105,39.713 72.077,39.735 72.074,39.765 C 71.918,40.999 71.858,42.225 71.792,43.466 C 71.748,44.284 71.744,45.111 71.733,45.93 C 71.707,47.765 71.747,49.601 71.755,51.437 C 70.783,52.156 69.823,52.899 68.88,53.659 C 68.63,53.347 68.376,53.038 68.118,52.733 C 66.263,50.545 64.362,48.411 62.379,46.339 C 62.732,46.09 63.091,45.847 63.448,45.616 C 63.767,45.409 64.103,45.201 64.438,45.023 C 64.619,44.927 64.82,44.804 65.011,44.731 C 65.099,44.686 65.134,44.577 65.089,44.489 C 65.044,44.401 64.935,44.366 64.847,44.411 C 64.218,44.741 63.649,45.181 63.068,45.589 C 62.79,45.784 62.521,45.997 62.25,46.205 C 62.209,46.162 62.168,46.119 62.127,46.077 C 61.564,45.492 60.999,44.912 60.43,44.332 C 60.407,44.305 60.384,44.278 60.361,44.252 C 60.41,44.214 60.459,44.178 60.509,44.142 C 60.683,44.015 60.848,43.87 61.024,43.743 C 61.392,43.478 61.781,43.23 62.172,43.003 C 62.406,42.868 62.646,42.722 62.902,42.632 C 62.99,42.592 63.03,42.486 62.99,42.398 C 62.95,42.31 62.844,42.27 62.756,42.31 C 62.496,42.449 62.231,42.57 61.978,42.726 C 61.658,42.923 61.388,43.127 61.083,43.349 C 60.848,43.52 60.623,43.706 60.393,43.882 C 60.324,43.934 60.261,43.999 60.197,44.061 C 59.828,43.632 59.457,43.202 59.084,42.775 C 59.335,42.538 59.591,42.291 59.87,42.085 C 59.979,42.004 60.086,41.91 60.2,41.837 C 60.34,41.748 60.475,41.655 60.617,41.569 C 60.723,41.505 60.836,41.45 60.943,41.388 C 61.096,41.299 61.267,41.238 61.423,41.158 C 61.526,41.107 61.567,40.98 61.516,40.877 C 61.465,40.774 61.338,40.733 61.235,40.784 C 61.039,40.877 60.835,41.006 60.651,41.123 C 59.992,41.541 59.459,42.031 58.918,42.585 C 58.913,42.579 58.908,42.573 58.903,42.568 C 58.518,42.129 58.133,41.691 57.747,41.254 C 57.772,41.224 57.798,41.194 57.826,41.164 C 58.365,40.557 59.174,40.096 59.86,39.676 C 59.982,39.602 60.108,39.53 60.228,39.454 C 60.377,39.36 60.526,39.254 60.678,39.166 C 60.758,39.112 60.778,39.002 60.724,38.922 C 60.67,38.842 60.56,38.822 60.48,38.876 C 60.179,39.093 59.871,39.331 59.557,39.527 C 59.381,39.637 59.192,39.769 59.025,39.893 C 58.535,40.258 58.114,40.565 57.699,41.011 C 57.67,41.041 57.642,41.072 57.615,41.104 C 57.156,40.585 56.697,40.068 56.236,39.552 C 56.277,39.522 56.318,39.491 56.36,39.461 C 57.357,38.721 58.328,37.91 59.458,37.384 C 59.547,37.341 59.585,37.231 59.542,37.142 C 59.499,37.053 59.389,37.015 59.3,37.058 C 58.956,37.217 58.55,37.436 58.245,37.66 C 57.678,38.077 57.162,38.538 56.618,38.983 C 56.449,39.12 56.278,39.266 56.103,39.405 C 55.732,38.99 55.36,38.577 54.987,38.166 C 55.071,38.095 55.155,38.025 55.239,37.956 C 55.599,37.654 55.974,37.352 56.36,37.061 C 56.494,37.279 56.63,37.495 56.77,37.709 C 56.79,37.741 56.835,37.75 56.867,37.73 C 56.899,37.71 56.908,37.665 56.888,37.633 C 56.747,37.416 56.608,37.197 56.473,36.977 C 56.763,36.761 57.059,36.553 57.361,36.356 C 57.584,36.725 57.809,37.093 58.037,37.46 C 58.086,37.538 58.19,37.562 58.268,37.513 C 58.346,37.464 58.37,37.36 58.321,37.282 C 58.088,36.916 57.856,36.553 57.625,36.188 C 57.982,35.967 58.346,35.763 58.716,35.586 C 58.807,35.538 58.842,35.425 58.794,35.334 C 58.746,35.243 58.633,35.208 58.542,35.256 C 58.166,35.455 57.804,35.677 57.453,35.914 C 57.13,35.401 56.813,34.885 56.507,34.359 C 56.728,34.249 56.966,34.141 57.189,34.061 C 57.266,34.028 57.302,33.938 57.269,33.861 C 57.236,33.784 57.146,33.748 57.069,33.781 C 56.832,33.878 56.595,33.994 56.366,34.114 C 56.084,33.624 55.808,33.132 55.537,32.637 C 56.039,32.35 56.554,32.107 57.072,31.853 C 57.172,31.802 57.212,31.678 57.161,31.578 C 57.11,31.478 56.986,31.438 56.886,31.489 C 56.372,31.757 55.87,32.043 55.378,32.346 C 55.147,31.92 54.921,31.491 54.699,31.06 C 54.674,31.012 54.65,30.964 54.625,30.917 C 55.171,30.65 55.744,30.403 56.301,30.226 C 56.414,30.187 56.473,30.062 56.434,29.949 C 56.395,29.836 56.27,29.777 56.157,29.816 C 55.556,30.009 54.989,30.261 54.437,30.544 C 54.429,30.527 54.421,30.511 54.412,30.494 C 54.89,30.029 55.367,29.562 55.842,29.097 C 55.855,29.089 55.866,29.082 55.876,29.073 C 55.929,29.019 55.983,28.966 56.037,28.913 C 56.368,29.629 56.727,30.333 57.087,31.035 C 57.392,31.63 57.689,32.238 57.97,32.844 C 58.098,33.119 58.212,33.406 58.335,33.684 C 58.369,33.763 58.463,33.799 58.542,33.765 C 58.621,33.731 58.657,33.637 58.623,33.558 C 58.495,33.272 58.378,32.978 58.244,32.695 C 57.955,32.084 57.66,31.479 57.355,30.875 C 56.989,30.153 56.615,29.425 56.274,28.684 C 56.513,28.454 56.755,28.227 57.001,28.003 C 57.272,27.789 57.545,27.577 57.817,27.365 C 57.954,27.769 58.092,28.173 58.225,28.578 C 58.4,29.111 58.603,29.628 58.863,30.124 C 58.976,30.341 59.104,30.519 59.238,30.72 C 59.292,30.797 59.401,30.816 59.478,30.762 C 59.555,30.708 59.574,30.599 59.52,30.522 C 58.921,29.677 58.674,28.801 58.338,27.831 C 58.259,27.604 58.19,27.368 58.115,27.134 C 58.519,26.821 58.925,26.508 59.33,26.195 C 59.463,26.504 59.604,26.81 59.764,27.111 C 59.844,27.26 59.935,27.397 60.019,27.541 C 60.057,27.601 60.139,27.619 60.199,27.581 C 60.259,27.543 60.277,27.461 60.239,27.401 C 59.962,26.988 59.743,26.493 59.543,26.03 C 59.699,25.91 59.854,25.79 60.01,25.67 C 61.782,24.296 63.545,22.904 65.291,21.497 C 66.505,20.518 67.689,19.52 68.865,18.498 C 69.421,18.014 69.98,17.513 70.516,16.997 C 70.499,17.193 70.483,17.389 70.468,17.586 C 69.82,18.035 69.208,18.632 68.642,19.123 C 68.088,19.604 67.553,20.042 66.935,20.436 C 66.713,20.578 66.477,20.686 66.25,20.815 C 66.22,20.831 66.207,20.87 66.223,20.9 C 66.239,20.93 66.278,20.943 66.308,20.927 C 66.534,20.799 66.769,20.689 66.995,20.556 C 67.288,20.384 67.579,20.183 67.854,19.984 C 68.727,19.351 69.541,18.632 70.435,18.029 C 70.411,18.371 70.39,18.713 70.377,19.056 C 70.369,19.195 70.475,19.315 70.614,19.323 C 70.753,19.331 70.873,19.225 70.881,19.086 C 70.9,18.624 70.931,18.158 70.963,17.694 C 71.032,17.653 71.101,17.613 71.171,17.575 C 71.256,17.525 71.283,17.414 71.233,17.329 C 71.184,17.246 71.078,17.218 70.994,17.262 C 70.999,17.184 71.005,17.106 71.011,17.029 C 71.024,16.844 71.036,16.658 71.047,16.472 C 71.1,16.419 71.152,16.365 71.205,16.312 C 71.628,15.874 72.009,15.398 72.376,14.91 C 72.383,15.017 72.389,15.123 72.396,15.229 Z M 5.416,16.819 C 6.657,17.982 7.94,19.117 9.236,20.23 C 8.311,19.52 7.393,18.8 6.484,18.073 C 5.401,17.207 4.336,16.321 3.276,15.43 C 3.346,15.309 3.419,15.189 3.492,15.066 C 3.503,15.046 3.514,15.026 3.526,15.006 C 4.146,15.621 4.781,16.225 5.416,16.819 Z M 9.463,20.877 C 10.66,21.825 11.857,22.784 13.075,23.704 C 13.813,24.262 14.548,24.825 15.286,25.384 C 15.411,25.479 15.538,25.574 15.667,25.671 C 16.588,26.451 17.503,27.244 18.408,28.048 C 18.769,28.368 19.131,28.687 19.492,29.008 C 18.685,29.444 17.937,29.931 17.154,30.45 C 16.683,30.761 16.218,31.102 15.766,31.44 C 15.175,31.882 14.591,32.329 14.018,32.794 C 13.976,32.827 13.969,32.89 14.002,32.932 C 14.035,32.974 14.098,32.981 14.14,32.948 C 15.376,31.939 16.738,30.965 18.109,30.15 C 18.44,29.953 18.773,29.756 19.112,29.574 C 19.31,29.468 19.512,29.369 19.711,29.265 C 19.725,29.257 19.74,29.249 19.755,29.241 C 20.053,29.507 20.349,29.774 20.644,30.044 C 20.798,30.185 20.953,30.328 21.107,30.47 C 20.913,30.591 20.719,30.712 20.524,30.83 C 20.176,31.04 19.83,31.255 19.483,31.467 C 19.17,31.658 18.852,31.842 18.545,32.042 C 16.972,33.066 15.417,34.128 13.904,35.237 L 13.895,35.296 L 13.954,35.305 C 14.948,34.585 15.966,33.916 17.024,33.295 C 17.445,33.048 17.87,32.809 18.293,32.565 C 18.576,32.402 18.862,32.25 19.14,32.078 C 19.832,31.649 20.535,31.237 21.232,30.817 C 21.281,30.787 21.331,30.756 21.381,30.726 C 21.604,30.934 21.826,31.144 22.047,31.355 C 22.11,31.415 22.173,31.476 22.236,31.538 C 22.04,31.675 21.845,31.815 21.648,31.951 C 21.257,32.219 20.868,32.49 20.478,32.761 C 20.519,32.604 20.561,32.447 20.605,32.291 C 20.616,32.25 20.59,32.206 20.549,32.195 C 20.508,32.184 20.464,32.21 20.453,32.251 C 20.393,32.466 20.334,32.683 20.276,32.901 C 19.935,33.137 19.594,33.372 19.25,33.605 C 18.091,34.387 16.91,35.12 15.704,35.827 C 15.68,35.84 15.672,35.872 15.685,35.896 C 15.698,35.92 15.73,35.928 15.754,35.915 C 16.063,35.726 16.382,35.554 16.692,35.367 C 17.277,35.014 17.861,34.661 18.445,34.306 C 19.03,33.949 19.613,33.584 20.194,33.215 C 20.095,33.604 20.002,33.995 19.922,34.386 C 19.884,34.567 19.847,34.748 19.81,34.93 C 19.1,35.343 18.389,35.745 17.669,36.143 C 17.723,35.852 17.792,35.566 17.888,35.29 C 17.898,35.258 17.88,35.222 17.848,35.212 C 17.816,35.202 17.78,35.22 17.77,35.252 C 17.662,35.579 17.596,35.861 17.534,36.199 C 17.364,37.133 17.37,38.104 17.141,39.029 C 16.618,39.522 16.097,40.019 15.581,40.52 C 15.622,40.308 15.666,40.094 15.706,39.88 C 15.756,39.609 15.792,39.33 15.853,39.062 C 15.968,38.558 16.049,38.025 16.242,37.541 C 16.253,37.507 16.233,37.469 16.199,37.458 C 16.165,37.447 16.127,37.467 16.116,37.501 C 15.894,38.063 15.788,38.726 15.676,39.32 C 15.601,39.716 15.533,40.112 15.459,40.508 C 15.448,40.563 15.437,40.618 15.425,40.672 C 14.309,41.761 13.217,42.874 12.18,44.03 C 12.13,44.084 12.134,44.17 12.188,44.22 C 12.242,44.27 12.328,44.266 12.378,44.212 C 12.423,44.16 12.469,44.109 12.521,44.063 C 11.885,44.692 11.264,45.335 10.653,45.987 C 10.728,44.801 10.8,43.662 11.19,42.507 C 11.209,42.446 11.176,42.379 11.115,42.36 C 11.054,42.341 10.987,42.374 10.968,42.435 C 10.904,42.636 10.841,42.827 10.788,43.032 C 10.655,43.544 10.586,44.07 10.53,44.595 C 10.473,45.132 10.434,45.689 10.423,46.233 C 9.867,46.831 9.318,47.435 8.774,48.042 C 7.745,49.189 6.732,50.344 5.729,51.513 C 5.291,52.023 4.847,52.54 4.426,53.063 C 4.113,53.452 3.786,53.832 3.473,54.223 C 3.124,54.657 2.776,55.092 2.432,55.528 C 2.44,55.262 2.448,54.996 2.457,54.73 C 2.505,54.176 2.547,53.619 2.591,53.064 C 2.66,52.171 2.698,51.26 2.73,50.365 C 2.762,49.472 2.787,48.579 2.806,47.687 L 2.817,46.963 L 2.853,45.682 C 2.873,44.994 2.89,44.306 2.892,43.619 C 2.894,42.777 2.911,41.934 2.916,41.092 C 2.927,39.053 2.92,37.01 2.905,34.971 C 2.902,34.623 2.899,34.276 2.896,33.938 C 2.922,32.567 2.946,31.207 2.969,29.847 C 3.012,27.214 3.092,24.58 3.128,21.947 C 3.151,20.288 3.145,18.633 3.136,16.974 C 3.137,16.888 3.068,16.815 2.982,16.814 C 2.909,16.813 2.846,16.862 2.827,16.928 C 2.83,16.83 2.832,16.731 2.835,16.632 C 2.839,16.449 2.844,16.269 2.85,16.091 C 2.907,16.084 2.959,16.049 2.985,15.994 C 3.028,15.891 3.076,15.793 3.127,15.697 C 5.216,17.451 7.324,19.183 9.463,20.877 Z M 1.806,18.366 C 1.858,18.474 1.982,18.727 2.097,18.921 C 2.097,18.985 2.096,19.049 2.096,19.114 C 2.089,19.934 2.096,20.755 2.1,21.575 C 2.107,22.849 2.138,24.128 2.135,25.401 C 2.134,25.902 2.148,26.407 2.155,26.908 C 2.175,28.284 2.202,29.66 2.218,31.036 C 2.239,32.886 2.273,34.737 2.303,36.587 C 2.24,40.484 2.179,44.381 2.11,48.278 C 2.085,49.642 2.083,51.008 2.079,52.386 C 1.982,53.752 1.854,55.128 1.678,56.499 C 1.597,56.605 1.516,56.712 1.435,56.82 C 1.41,56.6 1.395,56.375 1.387,56.148 C 1.374,55.779 1.391,55.41 1.391,55.04 C 1.39,54.357 1.453,53.689 1.509,53.009 C 1.533,52.716 1.561,52.374 1.61,52.086 C 1.615,52.039 1.595,51.995 1.56,51.967 C 1.575,51.735 1.589,51.503 1.603,51.271 C 1.702,49.612 1.712,47.95 1.688,46.289 C 1.669,45.021 1.657,43.752 1.637,42.484 C 1.608,40.658 1.583,38.833 1.558,37.007 C 1.545,36.065 1.556,35.118 1.522,34.177 C 1.43,31.608 1.354,29.03 1.337,26.46 C 1.326,24.787 1.34,23.115 1.369,21.442 C 1.381,20.734 1.411,20.026 1.433,19.318 C 1.451,18.706 1.476,18.092 1.506,17.478 C 1.577,17.794 1.676,18.096 1.806,18.366 Z M 2.651,20.246 C 2.569,20.26 2.504,20.33 2.503,20.416 C 2.488,20.527 2.472,20.638 2.457,20.749 L 2.429,21.033 L 2.418,20.347 C 2.413,19.97 2.41,19.593 2.408,19.217 C 2.525,19.235 2.643,19.18 2.706,19.081 C 2.687,19.469 2.668,19.857 2.651,20.246 Z M 70.283,20.07 C 69.963,20.344 69.638,20.659 69.367,20.982 C 69.213,21.165 69.056,21.36 68.899,21.538 C 68.86,21.583 68.788,21.668 68.759,21.717 C 68.73,21.755 68.737,21.812 68.775,21.841 C 68.813,21.87 68.87,21.863 68.899,21.825 C 68.942,21.751 69.03,21.659 69.085,21.59 C 69.211,21.432 69.347,21.276 69.481,21.124 C 69.934,20.613 70.491,20.042 71.122,19.765 C 71.173,19.742 71.196,19.679 71.173,19.628 C 71.15,19.577 71.087,19.554 71.036,19.577 C 70.795,19.66 70.476,19.905 70.283,20.07 Z M 73.267,24.666 C 73.419,27.471 73.493,30.281 73.639,33.089 C 73.64,33.177 73.64,33.265 73.64,33.353 C 73.633,34.92 73.588,36.486 73.553,38.053 C 73.526,39.266 73.48,40.488 73.426,41.7 C 73.407,42.108 73.392,42.517 73.377,42.915 C 73.363,42.228 73.347,41.53 73.332,40.833 C 73.309,39.806 73.277,38.779 73.254,37.752 C 73.238,37.02 73.233,36.271 73.191,35.541 C 73.11,34.138 73.048,32.729 72.994,31.325 C 72.975,30.84 72.956,30.355 72.937,29.87 C 72.937,26.666 72.937,23.463 72.937,20.259 C 73.082,21.726 73.186,23.196 73.267,24.666 Z M 35.117,21.521 C 34.921,21.731 34.737,21.953 34.544,22.164 C 34.293,22.438 34.042,22.712 33.79,22.985 C 33.352,23.46 32.929,23.939 32.517,24.437 C 32.281,24.723 32.009,25.044 31.811,25.359 C 31.477,25.89 31.188,26.402 30.935,26.978 C 30.912,27.029 30.935,27.092 30.986,27.115 C 31.037,27.138 31.1,27.115 31.123,27.064 C 31.241,26.809 31.362,26.576 31.496,26.329 C 31.642,26.061 31.841,25.776 32.023,25.53 C 32.19,25.305 32.345,25.068 32.526,24.854 C 32.685,24.666 32.842,24.475 33,24.285 C 33.09,24.177 33.19,24.074 33.284,23.969 C 33.616,23.597 33.96,23.237 34.3,22.872 C 34.654,22.492 34.993,22.105 35.341,21.721 C 35.396,21.66 35.39,21.564 35.329,21.509 C 35.268,21.454 35.172,21.46 35.117,21.521 Z M 9.684,22.532 C 9.573,22.576 9.467,22.613 9.356,22.654 C 9.232,22.7 9.094,22.693 8.97,22.717 C 8.913,22.721 8.871,22.773 8.875,22.83 C 8.879,22.887 8.931,22.929 8.988,22.925 C 9.125,22.902 9.258,22.903 9.399,22.868 C 9.529,22.836 9.653,22.783 9.779,22.748 C 9.975,22.693 10.208,22.546 10.392,22.454 C 10.451,22.425 10.505,22.378 10.566,22.35 C 10.637,22.302 10.656,22.205 10.608,22.134 C 10.56,22.063 10.463,22.044 10.392,22.092 C 10.173,22.247 9.935,22.433 9.684,22.532 Z M 38.133,23.843 C 37.803,24.086 37.475,24.332 37.151,24.584 C 37.131,24.599 37.127,24.629 37.142,24.649 C 37.157,24.669 37.187,24.673 37.207,24.658 C 37.545,24.398 37.887,24.143 38.232,23.891 C 38.312,23.931 38.393,23.972 38.475,24.014 C 38.76,24.159 39.026,24.339 39.301,24.503 C 39.435,24.6 39.564,24.699 39.688,24.797 C 39.632,24.882 39.64,24.997 39.71,25.073 C 39.602,25.153 39.495,25.235 39.39,25.318 C 39.361,25.339 39.355,25.381 39.376,25.41 C 39.397,25.439 39.439,25.445 39.468,25.424 C 39.579,25.336 39.693,25.25 39.809,25.165 C 40.02,25.361 40.227,25.569 40.434,25.769 C 40.655,25.983 40.882,26.19 41.101,26.406 C 41.122,26.427 41.144,26.448 41.166,26.469 C 41.158,26.479 41.15,26.488 41.143,26.498 C 41.103,26.545 41.109,26.617 41.156,26.657 C 41.203,26.697 41.275,26.691 41.315,26.644 C 41.319,26.638 41.324,26.633 41.328,26.628 C 41.946,27.225 42.587,27.801 43.201,28.402 C 43.98,29.165 44.791,29.9 45.572,30.663 C 46.767,31.83 47.98,32.979 49.18,34.142 C 49.185,34.151 49.19,34.16 49.197,34.169 C 49.2,34.173 49.203,34.176 49.209,34.17 L 49.238,34.198 C 49.182,34.254 49.127,34.31 49.072,34.367 C 49.038,34.399 49.022,34.444 49.024,34.488 C 48.994,34.514 48.965,34.541 48.936,34.568 C 48.88,34.619 48.875,34.708 48.926,34.764 C 48.977,34.82 49.066,34.825 49.122,34.774 C 49.243,34.663 49.366,34.552 49.488,34.441 C 49.836,34.78 50.183,35.12 50.529,35.464 C 51.346,36.275 52.173,37.078 52.986,37.893 C 53.289,38.197 53.592,38.501 53.895,38.805 C 53.847,38.848 53.8,38.892 53.754,38.935 C 53.707,38.976 53.702,39.049 53.743,39.096 C 53.784,39.143 53.857,39.148 53.904,39.107 C 53.954,39.06 54.005,39.014 54.056,38.968 C 55.467,40.388 56.872,41.815 58.265,43.261 C 58.26,43.266 58.255,43.271 58.251,43.277 C 58.152,43.382 58.042,43.483 57.947,43.591 C 57.903,43.636 57.904,43.709 57.949,43.753 C 57.994,43.797 58.067,43.796 58.111,43.751 C 58.2,43.649 58.308,43.559 58.397,43.459 C 58.406,43.448 58.415,43.438 58.424,43.427 C 58.618,43.628 58.811,43.83 59.004,44.032 C 59.191,44.25 59.379,44.468 59.567,44.687 C 59.531,44.726 59.494,44.766 59.459,44.806 C 59.424,44.844 59.426,44.906 59.464,44.941 C 59.502,44.976 59.564,44.974 59.599,44.936 C 59.624,44.902 59.656,44.866 59.691,44.831 C 60.264,45.497 60.839,46.165 61.413,46.834 C 61.318,46.907 61.223,46.98 61.129,47.053 C 61.092,47.08 61.084,47.134 61.111,47.171 C 61.138,47.208 61.192,47.216 61.229,47.189 C 61.326,47.113 61.424,47.038 61.523,46.963 C 61.684,47.15 61.844,47.337 62.004,47.524 C 63.104,48.809 64.209,50.088 65.318,51.365 C 66.52,52.749 67.719,54.111 69.037,55.388 C 69.054,55.405 69.072,55.422 69.09,55.44 C 69.473,55.941 69.859,56.451 70.259,56.937 C 70.509,57.241 70.763,57.543 71.02,57.844 C 71.037,58.308 71.058,58.764 71.068,59.223 C 70.707,59.692 70.343,60.164 70.048,60.663 C 69.965,60.802 69.891,60.937 69.818,61.076 C 69.717,61.21 69.615,61.351 69.526,61.487 C 69.486,61.546 69.464,61.635 69.528,61.71 C 69.521,61.724 69.519,61.729 69.517,61.735 C 69.47,61.847 69.434,61.992 69.405,62.141 L 69.388,62.247 L 68.811,62.326 C 68.241,62.388 67.671,62.44 67.104,62.489 C 67.111,62.468 67.115,62.445 67.115,62.422 C 67.115,62.292 67.01,62.185 66.88,62.185 C 65.377,62.118 63.869,62.076 62.364,62.058 C 61.123,62.043 59.881,62.056 58.64,62.071 C 57.122,62.089 55.605,62.102 54.087,62.124 C 51.657,62.159 49.226,62.184 46.796,62.22 C 45.02,62.246 43.247,62.268 41.503,62.28 C 40.965,62.268 40.457,62.256 39.95,62.246 C 38.704,62.219 37.458,62.181 36.212,62.149 C 31.858,62.037 27.505,61.916 23.159,61.793 C 22.966,61.778 22.779,61.762 22.592,61.747 C 21.865,61.686 21.129,61.621 20.405,61.534 C 19.993,61.484 19.582,61.436 19.17,61.385 C 18.724,61.33 18.278,61.256 17.832,61.198 L 17.826,61.244 C 18.94,61.394 20.047,61.561 21.165,61.693 C 21.314,61.71 21.464,61.73 21.614,61.749 C 19.494,61.688 17.372,61.617 15.253,61.529 C 13.204,61.443 11.153,61.358 9.106,61.231 C 7.64,61.14 6.176,61.042 4.711,60.936 C 4.49,60.92 4.257,60.892 4.036,60.894 C 3.795,60.896 3.557,60.901 3.32,60.904 C 2.732,60.069 2.346,59.097 2.481,58.069 L 2.521,57.84 L 2.58,57.775 C 2.781,57.548 2.863,57.398 2.969,57.066 C 2.993,56.989 2.951,56.905 2.874,56.881 C 2.797,56.857 2.713,56.899 2.689,56.976 C 2.617,57.2 2.561,57.328 2.419,57.517 C 2.406,57.534 2.39,57.55 2.373,57.566 C 2.382,57.219 2.392,56.872 2.403,56.526 C 2.487,56.419 2.57,56.312 2.653,56.204 C 3.216,55.463 3.811,54.72 4.413,54.01 C 5.302,52.961 6.197,51.933 7.129,50.922 C 8.193,49.767 9.285,48.641 10.392,47.529 C 10.388,47.725 10.388,47.939 10.375,48.133 C 10.357,48.395 10.338,48.658 10.32,48.92 C 10.366,48.858 10.427,48.4 10.44,48.297 C 10.479,47.988 10.515,47.682 10.546,47.374 C 11.124,46.796 11.705,46.22 12.289,45.647 C 15.582,42.407 18.978,39.243 22.512,36.266 C 23.528,35.41 24.543,34.556 25.572,33.715 C 26.381,33.054 27.199,32.404 28.009,31.744 C 29.321,30.676 30.68,29.664 32.009,28.617 C 32.895,27.919 33.764,27.2 34.647,26.499 C 34.772,26.407 34.799,26.228 34.707,26.103 C 34.615,25.978 34.436,25.951 34.311,26.043 C 33.427,26.639 32.551,27.234 31.688,27.86 C 30.771,28.525 29.881,29.232 28.989,29.929 C 28.024,30.683 27.059,31.447 26.115,32.227 C 25.639,32.62 25.163,33.012 24.688,33.405 C 24.684,33.4 24.68,33.395 24.677,33.39 C 24.652,33.357 24.628,33.324 24.604,33.291 C 27.14,31.131 29.756,29.078 32.489,27.184 C 33.478,26.498 34.507,25.834 35.541,25.218 C 35.938,24.981 36.344,24.754 36.751,24.536 C 36.989,24.409 37.25,24.291 37.478,24.152 C 37.666,24.036 37.855,23.915 38.043,23.799 C 38.073,23.814 38.103,23.828 38.133,23.843 Z M 11.443,24.171 C 11.331,24.229 11.216,24.302 11.103,24.356 C 11.01,24.4 10.918,24.456 10.825,24.503 C 10.656,24.588 10.486,24.634 10.306,24.69 C 10.262,24.702 10.236,24.75 10.248,24.794 C 10.26,24.838 10.308,24.864 10.352,24.852 C 10.574,24.784 10.761,24.729 10.97,24.623 C 11.377,24.417 11.822,24.131 12.288,24.125 C 12.345,24.121 12.387,24.069 12.383,24.012 C 12.379,23.955 12.327,23.913 12.27,23.917 C 12.007,23.92 11.674,24.052 11.443,24.171 Z M 70.877,24.321 C 70.217,24.791 69.715,25.332 69.219,25.969 C 69.092,26.132 68.956,26.293 68.836,26.461 C 68.776,26.539 68.791,26.654 68.869,26.714 C 68.947,26.774 69.062,26.759 69.122,26.681 C 69.244,26.507 69.394,26.332 69.531,26.169 C 69.815,25.832 70.099,25.528 70.428,25.234 C 70.694,24.996 70.976,24.744 71.283,24.559 C 71.399,24.489 71.516,24.429 71.632,24.361 C 71.736,24.305 71.775,24.172 71.719,24.068 C 71.663,23.964 71.53,23.925 71.426,23.981 C 71.237,24.075 71.049,24.198 70.877,24.321 Z M 13.097,25.012 L 13.06,25.063 C 13.026,25.104 12.969,25.161 12.925,25.194 C 12.69,25.369 12.463,25.53 12.213,25.692 C 12.089,25.772 11.945,25.854 11.827,25.941 C 11.712,26.026 11.547,26.101 11.46,26.205 C 11.424,26.243 11.425,26.304 11.463,26.34 C 11.501,26.376 11.562,26.375 11.598,26.337 C 11.603,26.32 11.705,26.247 11.729,26.233 C 11.843,26.169 11.963,26.074 12.078,26.002 C 12.44,25.776 12.787,25.541 13.119,25.281 C 13.178,25.234 13.213,25.175 13.261,25.13 C 13.293,25.085 13.283,25.021 13.238,24.989 C 13.193,24.957 13.129,24.967 13.097,25.012 Z M 71.419,25.975 C 71.231,26.106 71.048,26.242 70.865,26.381 C 70.473,26.678 70.102,27.003 69.755,27.351 C 69.533,27.574 69.284,27.845 69.12,28.113 C 69.061,28.2 69.084,28.321 69.171,28.38 C 69.258,28.439 69.379,28.416 69.438,28.329 C 69.686,27.913 70.129,27.53 70.485,27.212 C 70.787,26.942 71.121,26.716 71.449,26.481 C 71.594,26.378 71.79,26.241 71.948,26.16 C 72.052,26.095 72.083,25.956 72.018,25.852 C 71.953,25.748 71.814,25.717 71.71,25.782 C 71.623,25.824 71.502,25.917 71.419,25.975 Z M 12.82,27.392 C 12.777,27.424 12.768,27.487 12.8,27.53 C 12.832,27.573 12.895,27.582 12.938,27.55 C 13.336,27.248 13.737,26.948 14.138,26.65 C 14.181,26.618 14.19,26.555 14.158,26.512 C 14.126,26.469 14.063,26.46 14.02,26.492 C 13.619,26.79 13.218,27.09 12.82,27.392 Z M 13.96,28.181 C 13.784,28.325 13.601,28.457 13.426,28.599 C 13.387,28.628 13.378,28.685 13.407,28.724 C 13.436,28.763 13.493,28.772 13.532,28.743 C 13.713,28.593 13.912,28.463 14.089,28.306 C 14.262,28.152 14.422,27.992 14.591,27.835 C 14.626,27.801 14.627,27.744 14.593,27.709 C 14.559,27.674 14.502,27.673 14.467,27.707 C 14.298,27.864 14.138,28.035 13.96,28.181 Z M 16.566,28.358 C 15.807,28.767 15.007,29.155 14.419,29.803 C 14.328,29.903 14.233,30 14.155,30.111 C 14.122,30.151 14.129,30.212 14.169,30.245 C 14.209,30.278 14.27,30.271 14.303,30.231 C 14.474,30.03 14.612,29.866 14.809,29.688 C 15.426,29.13 16.176,28.785 16.918,28.424 C 17.188,28.293 17.462,28.155 17.734,28.03 C 17.794,28 17.818,27.926 17.788,27.866 C 17.758,27.806 17.684,27.782 17.624,27.812 C 17.274,27.996 16.913,28.171 16.566,28.358 Z M 56.002,28.072 C 55.997,28.06 55.992,28.048 55.987,28.036 C 56.055,27.988 56.123,27.941 56.192,27.894 C 56.129,27.954 56.065,28.013 56.002,28.072 Z M 44.732,28.888 C 44.799,28.91 44.868,28.928 44.938,28.947 C 44.915,28.973 44.893,28.998 44.871,29.024 C 44.818,29.083 44.823,29.176 44.882,29.229 C 44.941,29.282 45.034,29.277 45.087,29.218 C 45.127,29.175 45.167,29.132 45.207,29.09 C 45.732,29.564 46.246,30.054 46.753,30.55 C 46.692,30.599 46.632,30.648 46.572,30.698 C 46.532,30.729 46.525,30.788 46.556,30.828 C 46.587,30.868 46.646,30.875 46.686,30.844 C 46.753,30.79 46.822,30.737 46.891,30.685 C 47.185,30.975 47.478,31.267 47.77,31.56 C 48.429,32.221 49.082,32.891 49.722,33.571 C 49.655,33.621 49.587,33.671 49.52,33.722 C 48.869,33.106 48.218,32.492 47.568,31.878 C 46.691,31.05 45.809,30.226 44.932,29.398 C 44.648,29.13 44.365,28.861 44.082,28.592 C 44.284,28.709 44.498,28.809 44.732,28.888 Z M 21.762,30.065 C 21.726,30.087 21.691,30.108 21.655,30.13 C 21.447,29.936 21.238,29.743 21.028,29.552 C 21.272,29.723 21.517,29.895 21.762,30.065 Z M 22.654,30.681 C 22.633,30.791 22.614,30.903 22.591,31.013 C 22.37,30.801 22.147,30.593 21.926,30.384 C 21.978,30.352 22.03,30.319 22.082,30.287 C 22.272,30.419 22.463,30.55 22.654,30.681 Z M 55.024,32.213 C 55.07,32.302 55.117,32.391 55.164,32.48 C 54.858,32.673 54.558,32.873 54.261,33.08 C 53.977,32.571 53.688,32.067 53.385,31.57 C 53.574,31.463 53.766,31.358 53.959,31.257 C 54.107,31.178 54.259,31.099 54.413,31.021 C 54.614,31.419 54.817,31.816 55.024,32.213 Z M 54.143,33.164 C 53.635,33.523 53.142,33.904 52.665,34.307 C 52.597,34.363 52.529,34.421 52.463,34.478 C 52.193,34.035 51.926,33.589 51.661,33.142 C 52.167,32.659 52.672,32.175 53.176,31.69 C 53.201,31.675 53.226,31.66 53.251,31.646 C 53.559,32.145 53.854,32.652 54.143,33.164 Z M 21.873,33.73 C 21.395,33.999 20.922,34.277 20.447,34.558 C 20.298,34.645 20.15,34.732 20.002,34.818 C 20.121,34.24 20.25,33.664 20.394,33.089 C 20.778,32.844 21.16,32.6 21.541,32.356 C 21.827,32.172 22.115,31.985 22.404,31.803 C 22.238,32.449 22.05,33.088 21.873,33.73 Z M 23.04,32.299 C 23.234,32.472 23.432,32.644 23.632,32.814 L 23.631,32.816 C 23.565,32.846 23.501,32.877 23.439,32.908 C 22.983,33.128 22.537,33.363 22.096,33.607 C 22.149,33.4 22.204,33.193 22.257,32.988 C 22.35,32.617 22.44,32.24 22.543,31.872 C 22.545,31.862 22.548,31.852 22.551,31.842 C 22.711,31.996 22.873,32.15 23.04,32.299 Z M 71.071,33.201 C 70.756,33.466 70.398,33.706 70.072,33.963 C 69.782,34.192 69.523,34.414 69.256,34.669 C 69.111,34.808 68.942,34.982 68.826,35.146 C 68.757,35.23 68.77,35.355 68.854,35.424 C 68.938,35.493 69.063,35.48 69.132,35.396 C 69.246,35.23 69.428,35.053 69.575,34.915 C 69.772,34.729 69.975,34.547 70.194,34.387 C 70.797,33.947 71.392,33.51 71.977,33.048 C 72.074,32.967 72.087,32.82 72.006,32.723 C 71.925,32.626 71.778,32.613 71.681,32.694 C 71.479,32.866 71.273,33.031 71.071,33.201 Z M 56.126,34.242 C 55.805,34.416 55.5,34.597 55.204,34.787 C 55.016,34.447 54.829,34.106 54.642,33.767 C 54.562,33.622 54.482,33.477 54.402,33.332 C 54.7,33.136 55.005,32.947 55.315,32.765 C 55.579,33.261 55.85,33.753 56.126,34.242 Z M 51.338,32.871 C 51.107,33.092 50.876,33.312 50.646,33.534 C 50.622,33.51 50.599,33.486 50.576,33.463 C 50.726,33.328 50.876,33.194 51.026,33.06 C 51.126,32.99 51.226,32.922 51.328,32.854 C 51.331,32.86 51.334,32.866 51.338,32.871 Z M 52.333,34.591 C 52.212,34.698 52.092,34.805 51.974,34.914 C 51.63,34.553 51.284,34.192 50.937,33.834 C 51.143,33.637 51.349,33.441 51.554,33.244 C 51.815,33.693 52.073,34.142 52.333,34.591 Z M 22.362,34.32 C 22.17,34.493 21.98,34.667 21.813,34.821 C 21.851,34.634 21.891,34.448 21.934,34.261 C 21.944,34.215 21.955,34.169 21.966,34.123 C 22.142,34.029 22.32,33.938 22.498,33.851 C 22.773,33.715 23.053,33.581 23.331,33.445 C 23.005,33.735 22.683,34.026 22.362,34.32 Z M 55.088,34.862 C 54.549,35.215 54.036,35.597 53.512,36.016 C 53.49,36.032 53.469,36.049 53.448,36.067 C 53.156,35.606 52.868,35.144 52.584,34.678 C 53.128,34.226 53.694,33.804 54.282,33.411 C 54.553,33.894 54.82,34.378 55.088,34.862 Z M 24.519,33.545 C 24.073,33.915 23.629,34.285 23.186,34.66 C 23.212,34.588 23.24,34.516 23.268,34.445 C 23.647,34.113 24.027,33.784 24.41,33.457 C 24.446,33.486 24.482,33.516 24.519,33.545 Z M 50.139,34.017 C 50.121,34.035 50.103,34.052 50.085,34.07 C 50.048,34.104 50.027,34.149 50.022,34.196 C 49.979,34.155 49.937,34.115 49.894,34.075 C 49.948,34.026 50.002,33.977 50.057,33.929 C 50.084,33.958 50.112,33.988 50.139,34.017 Z M 21.534,35.064 C 21.054,35.482 20.593,35.888 20.137,36.296 C 19.972,36.442 19.808,36.588 19.645,36.734 C 19.729,36.241 19.818,35.751 19.914,35.262 C 20.165,35.122 20.417,34.981 20.67,34.842 C 21.021,34.647 21.376,34.444 21.734,34.248 C 21.663,34.519 21.596,34.791 21.534,35.064 Z M 51.431,35.418 C 51.411,35.437 51.392,35.456 51.372,35.474 C 51.003,35.124 50.634,34.774 50.265,34.426 C 50.304,34.419 50.342,34.401 50.373,34.372 C 50.389,34.355 50.406,34.339 50.423,34.323 C 50.76,34.686 51.096,35.052 51.431,35.418 Z M 57.201,36.089 C 56.904,36.298 56.615,36.517 56.33,36.743 C 55.982,36.168 55.649,35.584 55.321,34.998 C 55.62,34.809 55.948,34.646 56.263,34.484 C 56.569,35.022 56.882,35.557 57.201,36.089 Z M 23.043,34.762 C 23.048,34.764 23.054,34.765 23.059,34.766 C 22.631,35.129 22.204,35.495 21.782,35.866 C 21.012,36.538 20.237,37.204 19.453,37.905 L 19.453,37.904 C 20.616,36.816 21.791,35.744 22.984,34.694 C 22.991,34.724 23.012,34.75 23.043,34.762 Z M 53.279,36.207 C 53.262,36.221 53.245,36.236 53.229,36.251 C 52.863,35.857 52.495,35.465 52.125,35.074 C 52.232,34.978 52.34,34.885 52.449,34.792 C 52.723,35.265 52.999,35.738 53.279,36.207 Z M 56.219,36.83 C 55.83,37.141 55.448,37.462 55.068,37.782 C 54.987,37.849 54.906,37.918 54.825,37.987 C 54.675,37.823 54.526,37.659 54.377,37.495 C 54.101,37.083 53.83,36.667 53.564,36.249 C 53.758,36.089 53.957,35.933 54.161,35.786 C 54.506,35.533 54.851,35.306 55.206,35.073 C 55.536,35.664 55.87,36.252 56.219,36.83 Z M 19.563,36.147 C 19.507,36.411 19.457,36.679 19.408,36.946 C 18.769,37.518 18.133,38.095 17.509,38.683 C 17.443,38.744 17.377,38.806 17.312,38.868 C 17.375,38.564 17.418,38.248 17.453,37.943 C 17.506,37.459 17.544,36.959 17.616,36.467 C 17.659,36.485 17.711,36.485 17.755,36.462 C 18.057,36.296 18.367,36.14 18.666,35.969 C 19.016,35.768 19.369,35.568 19.722,35.37 C 19.669,35.629 19.616,35.888 19.563,36.147 Z M 52.181,36.243 C 51.964,36.036 51.747,35.83 51.53,35.624 C 51.546,35.609 51.561,35.594 51.577,35.579 C 51.779,35.8 51.98,36.021 52.181,36.243 Z M 53.446,36.485 C 53.422,36.459 53.398,36.433 53.375,36.408 C 53.38,36.403 53.386,36.398 53.391,36.393 C 53.409,36.424 53.428,36.454 53.446,36.485 Z M 71.114,37.227 C 71.051,37.29 70.927,37.422 70.857,37.466 C 70.794,37.506 70.733,37.569 70.664,37.607 C 70.612,37.635 70.487,37.687 70.45,37.715 C 70.4,37.752 70.211,37.776 70.144,37.796 C 70.048,37.815 69.985,37.91 70.004,38.006 C 70.023,38.102 70.118,38.165 70.214,38.146 C 70.282,38.128 70.354,38.122 70.42,38.1 C 70.689,38.01 70.894,37.913 71.111,37.724 C 71.18,37.664 71.244,37.598 71.315,37.539 C 71.371,37.492 71.435,37.418 71.487,37.364 C 71.662,37.181 71.976,36.877 72.215,36.786 C 72.306,36.739 72.341,36.626 72.294,36.535 C 72.247,36.444 72.134,36.409 72.043,36.456 C 71.72,36.58 71.357,36.984 71.114,37.227 Z M 13.999,39.158 C 13.951,39.423 13.914,39.691 13.867,39.956 C 13.819,40.224 13.765,40.492 13.714,40.759 C 13.616,41.275 13.497,41.789 13.4,42.306 C 13.392,42.349 13.421,42.392 13.464,42.4 C 13.507,42.408 13.55,42.379 13.558,42.336 C 13.664,41.747 13.798,41.161 13.91,40.573 C 13.998,40.109 14.076,39.648 14.159,39.184 C 14.166,39.14 14.136,39.098 14.092,39.091 C 14.048,39.084 14.006,39.114 13.999,39.158 Z M 73.674,42.778 C 73.648,44.208 73.602,45.642 73.556,47.072 C 73.508,48.539 73.461,50.006 73.415,51.472 C 73.432,50.071 73.444,48.669 73.439,47.265 C 73.437,46.894 73.434,46.524 73.43,46.148 C 73.456,45.714 73.484,45.274 73.515,44.836 C 73.574,43.99 73.627,43.144 73.682,42.297 C 73.679,42.457 73.676,42.617 73.674,42.778 Z M 72.987,43.381 C 73.034,44.079 73.077,44.779 73.109,45.478 C 73.137,46.121 73.169,46.765 73.197,47.399 C 73.189,47.598 73.182,47.788 73.174,47.978 C 73.138,48.798 73.107,49.62 73.08,50.441 C 73.032,50.476 72.984,50.512 72.937,50.547 C 72.937,47.916 72.937,45.285 72.937,42.654 C 72.954,42.896 72.97,43.138 72.987,43.381 Z M 66.381,48.032 C 66.268,48.141 66.136,48.196 65.985,48.231 C 65.937,48.242 65.874,48.236 65.824,48.245 C 65.783,48.247 65.751,48.285 65.753,48.326 C 65.755,48.367 65.793,48.399 65.834,48.397 C 65.891,48.388 65.959,48.395 66.013,48.381 C 66.227,48.328 66.38,48.258 66.535,48.099 C 66.861,47.766 67.112,47.204 67.636,47.197 C 67.677,47.194 67.708,47.155 67.705,47.114 C 67.702,47.073 67.663,47.042 67.622,47.045 C 67.023,47.052 66.76,47.666 66.381,48.032 Z M 73.274,49.833 C 73.285,50.577 73.287,51.32 73.296,52.063 C 73.311,53.332 73.265,54.61 73.208,55.882 C 73.192,55.933 73.179,55.974 73.174,55.992 C 73.108,56.19 73.025,56.389 72.936,56.586 C 72.937,54.612 72.937,52.64 72.937,50.668 C 72.983,50.63 73.03,50.593 73.076,50.556 C 73.037,51.76 73.005,52.966 72.977,54.17 C 72.977,54.198 73,54.223 73.028,54.223 C 73.056,54.223 73.081,54.2 73.081,54.172 C 73.119,52.525 73.18,50.879 73.262,49.223 C 73.266,49.433 73.27,49.633 73.274,49.833 Z M 72.52,57.062 C 72.409,57.136 72.31,57.25 72.239,57.338 C 72.215,57.367 72.192,57.396 72.17,57.424 C 72.174,57.332 72.178,57.24 72.183,57.148 C 72.2,56.747 72.225,56.324 72.216,55.924 C 72.196,55.014 72.204,54.103 72.165,53.193 C 72.138,52.577 72.113,51.962 72.088,51.347 C 72.232,51.232 72.376,51.117 72.519,51.002 C 72.52,53.022 72.52,55.041 72.52,57.062 Z M 71.756,52.412 C 71.753,53.217 71.752,54.023 71.732,54.827 C 71.69,54.059 71.637,53.291 71.679,52.521 C 71.303,53.532 71.09,54.476 71.006,55.552 C 70.984,55.826 70.978,56.104 70.979,56.383 C 70.646,55.895 70.282,55.42 69.916,54.959 C 69.604,54.568 69.295,54.175 68.983,53.786 C 69.688,53.221 70.404,52.671 71.118,52.114 C 71.331,51.947 71.544,51.779 71.756,51.611 C 71.756,51.878 71.756,52.145 71.756,52.412 Z M 73.287,55.635 C 73.286,55.64 73.284,55.644 73.283,55.648 C 73.286,55.589 73.289,55.529 73.292,55.471 C 73.291,55.518 73.289,55.576 73.287,55.635 Z M 2.022,58.745 C 1.995,58.697 1.97,58.649 1.946,58.602 C 1.956,58.55 1.966,58.5 1.976,58.45 C 1.995,58.351 2.013,58.252 2.03,58.156 C 2.027,58.352 2.024,58.548 2.022,58.745 Z M 2.535,60.442 C 2.603,60.598 2.677,60.751 2.755,60.901 C 2.725,60.9 2.696,60.899 2.666,60.898 C 2.629,60.843 2.593,60.787 2.557,60.733 C 2.459,60.583 2.377,60.429 2.298,60.272 C 2.302,60.123 2.306,59.975 2.31,59.826 C 2.368,60.034 2.452,60.255 2.535,60.442 Z M 1.626,60.053 C 1.718,60.295 1.863,60.563 1.993,60.792 C 1.99,60.964 1.987,61.136 1.984,61.309 C 1.977,61.301 1.971,61.294 1.965,61.287 C 1.772,61.064 1.597,60.852 1.438,60.607 L 1.466,60.527 C 1.494,60.443 1.526,60.355 1.548,60.269 C 1.569,60.186 1.591,60.104 1.613,60.021 C 1.618,60.032 1.622,60.042 1.626,60.053 Z M 2.826,61.033 C 2.92,61.204 3.021,61.371 3.13,61.534 C 3.096,61.491 3.063,61.449 3.033,61.406 C 2.963,61.306 2.883,61.212 2.812,61.113 C 2.791,61.083 2.77,61.053 2.749,61.023 C 2.775,61.026 2.801,61.03 2.826,61.033 Z M 70.975,61.339 C 70.95,61.476 70.94,61.633 70.895,61.764 C 70.869,61.839 70.818,61.903 70.775,61.969 L 70.72,62.068 L 69.987,62.166 C 69.992,62.155 69.996,62.144 70.001,62.134 C 70.032,62.059 70.054,61.979 70.085,61.904 C 70.087,61.897 70.09,61.891 70.093,61.886 C 70.135,61.877 70.165,61.858 70.193,61.841 C 70.482,61.649 70.758,61.427 70.952,61.134 C 70.971,61.104 70.995,61.074 71.018,61.043 C 71.005,61.147 70.991,61.246 70.975,61.339 Z M 4.37,61.27 C 4.82,61.297 5.272,61.34 5.722,61.373 C 6.963,61.464 8.206,61.548 9.447,61.641 C 11.156,61.769 12.873,61.871 14.584,61.978 C 17.643,62.169 20.699,62.341 23.76,62.491 C 28.4,62.719 33.044,62.834 37.688,62.959 C 38.555,62.982 39.422,63.005 40.29,63.028 L 4.827,63.028 C 4.712,62.99 4.597,62.949 4.485,62.907 C 4.579,62.905 4.672,62.864 4.738,62.787 C 4.857,62.645 4.837,62.431 4.695,62.312 C 4.619,62.249 4.534,62.191 4.455,62.131 C 4.263,61.983 4.045,61.778 3.882,61.599 C 3.747,61.451 3.617,61.298 3.494,61.139 C 3.789,61.191 4.067,61.252 4.37,61.27 Z M 2.861,62.062 C 2.739,61.977 2.62,61.887 2.505,61.793 C 2.428,61.73 2.345,61.66 2.264,61.587 C 2.267,61.476 2.27,61.364 2.273,61.253 C 2.456,61.536 2.653,61.804 2.861,62.062 Z M 60.761,63.028 L 59.217,63.028 C 58.437,62.975 57.658,62.923 56.879,62.878 C 56.709,62.868 56.54,62.858 56.373,62.848 C 58.109,62.827 59.849,62.816 61.588,62.794 C 62.398,62.783 63.209,62.764 64.02,62.741 C 62.932,62.829 61.845,62.92 60.761,63.028 Z" stroke="none" fill="#000000" stroke-width="0.5" fill-rule="evenodd" marker-start="none" marker-end="none" stroke-miterlimit="79.8403193612775"/></g></g></g><text x="0" y="90" fill="#000000" font-size="5px" font-weight="bold" font-family="'Helvetica Neue', Helvetica, Arial-Unicode, Arial, Sans-serif">Created by Denis Sazhin</text><text x="0" y="95" fill="#000000" font-size="5px" font-weight="bold" font-family="'Helvetica Neue', Helvetica, Arial-Unicode, Arial, Sans-serif">from the Noun Project</text></svg>